<?xml version="1.0" encoding="UTF-8"?>
<svg xmlns="http://www.w3.org/2000/svg" version="1.1" xmlns:xlink="http://www.w3.org/1999/xlink" viewBox="0 0 753 157">
  <defs>
    <style>
      .cls-1, .cls-2, .cls-3 {
        fill: #463a27;
      }

      .cls-1, .cls-3 {
        stroke: #231f20;
        stroke-miterlimit: 10;
      }

      .cls-3 {
        stroke-width: .5px;
      }

      .cls-4 {
        display: none;
      }

      .cls-5 {
        fill: #beb08d;
      }
    </style>
  </defs>
  <!-- Generator: Adobe Illustrator 28.7.5, SVG Export Plug-In . SVG Version: 1.2.0 Build 176)  -->
  <g>
    <g id="Layer_1">
      <image width="753" height="157" transform="translate(-2 165.7)" xlink:href="../../../Gallery/Oaks/2025/logo thee oaks.png"/>
      <g>
        <path class="cls-1" d="M138.5,78.6c-2,1.8-4.1,3.1-6.4,4.1-2.2,1-4.5,1.5-7,1.5s-4.1-.3-6-1c-3.7,4.8-7.6,8.6-11.5,11.3-5,3.5-10,5.2-15.1,5.2s-7.7-1.2-9.9-3.6c-2.3-2.4-3.4-5.8-3.4-10.3,0-8.6,3.5-17,10.6-25.1s14.9-12.6,23.4-13.6c2.4-2.3,5.1-3.4,8.3-3.4s5.4,1.3,7,4c1.4,2.2,2,5,2,8.3s-1.1,8.8-3.3,13.8c-1.9,4.3-4.3,8.4-7.3,12.5.8.3,1.8.5,2.8.6,1.1.1,2.1.2,3.2.2,1.9,0,4-.5,6.2-1.5,2.2-1,4.1-2.2,5.5-3.7l.7.8ZM112.3,48.6c-7.1,1.5-13.1,6.4-18.2,14.8-4.6,7.6-6.9,15.3-6.9,23.1s.4,5.8,1.3,7.6c1.2,2.6,3.3,3.9,6.2,3.9s8.2-1.8,12.5-5.4c3.6-3,6.6-6.6,8.9-10.8-3.1-1.8-5.6-4.2-7.4-7.4-1.8-3.2-2.7-6.6-2.7-10.2s.5-5.7,1.6-8.5c1.1-2.7,2.7-5.1,4.7-7.2ZM118.8,56.5c.3-1,.4-2,.4-3,0-1.7-.5-3-1.5-3.9-1-.8-2.4-1.3-4.1-1.3-1.6,1.7-2.7,3.8-3.4,6.2-.7,2.4-1,5-1,7.8,0,3.9.5,7.3,1.5,10.2,1.2,3.8,3.2,6.4,6,8.1,2.2-3.7,4-7.8,5.3-12.4,1.4-4.6,2.1-8.9,2.1-13s-.3-4.5-1-6.1c-1-2.2-2.6-3.4-4.8-3.4s-2.7.5-3.6,1.4c1.8,0,3.1.6,4.1,1.8,1,1.2,1.5,2.7,1.5,4.5s0,1.2-.1,1.7c0,.5-.1,1-.2,1.3h-1.2Z"/>
        <path class="cls-1" d="M162.7,72.1l8.1-.5c-4.4,6.7-7.7,11.9-10,15.6-2.4,4-3.6,6.8-3.6,8.5s.6,1.8,1.7,1.8c2.5,0,6.3-2.7,11.5-8,3.5-3.5,6.8-7.4,9.8-11.5l.8.5c-2.7,3.6-4.9,6.4-6.6,8.5-3.2,3.7-6.2,6.6-8.8,8.7-3.5,2.7-6.6,4-9.4,4s-2.8-.4-3.9-1.3c-1-.9-1.5-2-1.5-3.5v-1.2c-1.5,1.7-3.3,3.1-5.3,4.2-2,1.1-4,1.7-6,1.7s-4-.8-5.1-2.4c-1.1-1.6-1.7-3.6-1.7-6,0-4.8,2.4-9.5,7.1-14.1,4.7-4.5,9.5-6.8,14.4-6.8s5.5,1.5,6.7,4.4l1.8-2.8ZM143.9,96.9c2.8,0,6-2.8,9.5-8.4,3.4-5.4,5.1-9.6,5.1-12.7s-.3-2.4-.8-3.1c-.5-.7-1.5-1.1-2.8-1.1-3.2,0-6.4,2.6-9.8,7.7-3.2,4.8-4.8,8.9-4.8,12.4s.3,3.4.9,4.1c.6.7,1.5,1.1,2.7,1.1Z"/>
        <path class="cls-1" d="M184.6,85c4.6-5.2,7.4-8.3,8.6-9.3,3.9-3.5,7.6-5.2,11.1-5.2s2.6.4,3.5,1.3c1,.9,1.4,2,1.4,3.3,0,2.7-1.5,4.8-4.4,6.3-1.1.6-3.8,1.5-8,2.7.8.5,1.5,1.1,2.1,1.9.5.8.8,1.6.8,2.5s-.2,2.4-.7,4.1c-.5,1.8-.7,3-.7,3.8l1.1,1.2c1.9,0,4.6-1.6,8.1-4.8,3.5-3.2,7.6-7.9,12.5-14.2l.9.5c-5.4,6.7-9,10.9-10.8,12.8-5.2,5.2-9.9,7.8-14,7.8s-2.7-.4-3.6-1.2c-.9-.8-1.3-2-1.3-3.6s.6-3.8,2-6.6c.9-1.8,1.6-3.1,1.9-3.7l-4.8,1.2-1.5-1.3c0-.5.2-.9.7-1.1.5-.2,1.1-.4,1.9-.4s1.5,0,2.2.2c.8.1,1.4.2,2.1.2,1.5,0,3-.8,4.4-2.3,1.4-1.5,2.1-3.1,2.1-4.6s-.2-1.5-.5-2.1c-.4-.6-.9-.9-1.6-.9-2.3,0-5.4,2.1-9.3,6.2-3.8,4.2-8.4,10.3-13.6,18.6l-7.7.2,31.9-52.7,8.7-.5c-2.8,4.4-5.5,8.8-8.3,13.3-2.3,3.7-5.1,8.2-8.4,13.3-3.1,4.8-6,9.2-8.7,13.2Z"/>
        <path class="cls-1" d="M251.7,78.3l.8.6c-3.6,4.8-6.3,8.2-8.1,10.1-3.2,3.4-6.4,5.9-9.7,7.6-3.8,2-8,3-12.6,3s-5.6-.6-7.5-1.7c-2.3-1.4-3.4-3.6-3.4-6.5s.5-3.4,1.5-4.9c1-1.4,2.3-2.1,4.1-2.1s2,.3,2.7.9c.7.6,1.1,1.4,1.1,2.5s-.3,1.9-.9,2.5c-.6.6-1.4.9-2.3.9s-1,0-1.6-.2c-.5.9-.8,1.9-.8,2.9,0,1.5.5,2.6,1.6,3.4,1.1.8,2.4,1.2,4,1.2s3.5-.6,5-1.8c1.5-1.2,2.2-2.7,2.2-4.6s-1-3.9-3-6.7c-2-2.8-3-4.9-3-6.4,0-2.8,1.3-5,3.8-6.6,2.2-1.4,4.8-2,7.7-2s4.1.5,5.8,1.5c1.7,1,2.6,2.5,2.6,4.5s-.5,2.7-1.5,3.7c-1,1-2.2,1.5-3.7,1.5s-1.5-.1-2.3-.4c.4-.9.8-1.9,1.1-3s.5-2.1.5-3-.3-1.9-.9-2.6c-.6-.7-1.4-1.1-2.4-1.1s-2.3.4-3.1,1.2c-.8.8-1.1,1.9-1.1,3.3s1.3,4.3,4,8.4c1.3,2,2,3.8,2,5.4s-.3,2.9-1,4.2c-.7,1.3-1.7,2.3-3,3.1,2.9-.8,5.7-2.3,8.5-4.4,2.2-1.8,4.6-4.1,7.1-6.9.8-1,2.9-3.5,6.1-7.6Z"/>
      </g>
      <g>
        <path class="cls-1" d="M445.9,95.9c7-4.4,12.6-8.1,16.7-11.2,6.5-4.9,11.6-9.7,15.4-14.5,4.7-5.9,7.5-11.9,8.3-17.9-1.5-.6-2.3-1.8-2.3-3.7s.4-1.9,1.3-2.7c.9-.7,1.8-1.1,2.9-1.1s2.5.6,3.3,1.8c.8,1.2,1.2,2.5,1.2,3.9,0,6-3.5,12.6-10.5,19.8-5.3,5.4-12.7,11.3-22.4,17.6-3.3,2.2-10.2,6.4-20.7,12.6l-.9-.6c2.7-4.1,5.2-10,7.5-17.8,3-10.2,5-16.5,5.9-18.6,2.8-6.7,6.6-11.9,11.3-15.5-7.5,2.1-11.3,3.2-11.4,3.3-5.4,1.8-9.5,3.7-12.4,5.7-3.9,2.8-5.9,5.9-5.9,9.3s.4,3.1,1.2,4.1c.8,1,2,1.5,3.7,1.5,2.4,0,4.3-1.1,5.5-3.4,1-1.8,1.6-4.1,1.6-6.7h1.3c0,3.4-.8,6.1-2.3,8.2-1.7,2.3-4.2,3.5-7.5,3.5s-4.4-.7-5.9-2c-1.5-1.3-2.3-3.2-2.3-5.5,0-4.1,2.8-7.6,8.3-10.7,3.9-2.2,9.7-4.3,17.3-6.4,9.6-2.7,14.6-4,15-4.1l.5.8c-3.4,2-6.6,6.4-9.4,13.3-.3.6-2.5,7.2-6.8,19.8-2.7,8-5.3,13.7-7.9,17.1Z"/>
        <path class="cls-1" d="M498.9,71.7c-5,7.7-7.6,11.7-7.8,11.9-3.8,6.2-5.8,10.2-5.8,11.9s0,1.2.3,1.5c.2.3.5.4.9.4,2.4,0,6.2-2.7,11.5-8,2.5-2.5,5.9-6.3,10.1-11.4l.9.6c-1.8,2.5-4,5.1-6.6,8-3.2,3.5-6.3,6.3-9.3,8.6-3.6,2.7-6.5,4.1-8.8,4.1s-2.8-.5-3.9-1.4c-1-.9-1.5-2.1-1.5-3.6s1.6-5.9,4.8-11.2c.1-.2,2.4-3.8,7-11l8.1-.4ZM506.8,58.6c0,1.1-.4,2.1-1.2,2.9-.8.8-1.8,1.2-3,1.2s-2.1-.3-2.9-1c-.8-.6-1.2-1.5-1.2-2.7s.5-2.1,1.4-3c.9-.8,2-1.2,3.2-1.2s1.8.4,2.6,1.1c.8.7,1.2,1.6,1.2,2.7Z"/>
        <path class="cls-1" d="M538.2,45.5c-2.8,4.3-5.6,8.6-8.4,12.9-6.6,10.2-11.3,17.6-14,22.3-4.9,8.3-7.3,13.3-7.3,15s.5,2,1.5,2c2.5,0,6.3-2.6,11.4-7.9,3.1-3.3,6.4-7.1,9.8-11.5l.9.3c-2.3,3.3-4.5,6.1-6.5,8.4-3.1,3.5-6,6.3-8.7,8.4-3.4,2.5-6.6,3.8-9.4,3.8s-3-.4-3.9-1.1c-.9-.7-1.4-1.9-1.4-3.6s2.3-7.2,6.9-15.5c3.2-5.8,7.6-13,13.1-21.6,3.1-4.9,5.5-8.7,7.4-11.5l8.7-.5Z"/>
        <path class="cls-1" d="M561.3,45.5c-2.8,4.3-5.6,8.6-8.4,12.9-6.6,10.2-11.3,17.6-14,22.3-4.9,8.3-7.3,13.3-7.3,15s.5,2,1.5,2c2.5,0,6.3-2.6,11.4-7.9,3.1-3.3,6.4-7.1,9.8-11.5l.9.3c-2.3,3.3-4.5,6.1-6.5,8.4-3.1,3.5-6,6.3-8.7,8.4-3.4,2.5-6.6,3.8-9.4,3.8s-3-.4-3.9-1.1c-.9-.7-1.4-1.9-1.4-3.6s2.3-7.2,6.9-15.5c3.2-5.8,7.6-13,13.1-21.6,3.1-4.9,5.5-8.7,7.4-11.5l8.7-.5Z"/>
        <path class="cls-1" d="M579.5,72.1l8.1-.5c-4.4,6.7-7.7,11.9-10,15.6-2.4,4-3.6,6.8-3.6,8.5s.6,1.8,1.7,1.8c2.5,0,6.3-2.7,11.5-8,3.5-3.5,6.8-7.4,9.8-11.5l.8.5c-2.7,3.6-4.9,6.4-6.6,8.5-3.2,3.7-6.2,6.6-8.8,8.7-3.5,2.7-6.6,4-9.4,4s-2.8-.4-3.9-1.3c-1-.9-1.5-2-1.5-3.5v-1.2c-1.5,1.7-3.3,3.1-5.3,4.2s-4,1.7-6,1.7-4-.8-5.1-2.4c-1.1-1.6-1.7-3.6-1.7-6,0-4.8,2.4-9.5,7.1-14.1,4.7-4.5,9.5-6.8,14.4-6.8s5.5,1.5,6.7,4.4l1.8-2.8ZM560.7,96.9c2.8,0,6-2.8,9.5-8.4,3.4-5.4,5.1-9.6,5.1-12.7s-.3-2.4-.8-3.1c-.5-.7-1.5-1.1-2.8-1.1-3.2,0-6.4,2.6-9.8,7.7-3.2,4.8-4.8,8.9-4.8,12.4s.3,3.4.9,4.1c.6.7,1.5,1.1,2.7,1.1Z"/>
        <path class="cls-1" d="M611.7,92.3c-1.9,2.1-3.8,3.8-5.7,4.9-2.3,1.4-4.7,2.1-7.1,2.1s-3.5-.7-4.7-2.1c-1.1-1.4-1.7-3.1-1.7-5.2,0-5,2.3-9.8,6.8-14.5,4.5-4.7,9.3-7,14.3-7s3.4.4,4.6,1.1,2.1,1.9,2.6,3.6l1.6-3,8.1-.5c-1.8,3.1-3.6,6.2-5.4,9.4-1.8,3.1-3.6,6.2-5.3,9.3-1.7,3.1-3.6,6.2-5.6,9.4,5-1.5,9.9-4.4,14.6-8.6,3.6-3.2,7.3-7.5,11.2-12.9l.8.3c-3.8,5.6-7.7,10.1-11.8,13.7-4.9,4.3-10.1,7.3-15.6,8.9-3.7,6.4-8.2,11.4-13.6,15-5.8,3.9-12.1,5.8-19.1,5.8s-7-.6-9.4-1.9c-3.1-1.7-4.6-4.3-4.6-7.8s1.1-4.7,3.2-6.3c2.1-1.6,4.5-2.4,7.2-2.4s1.8,0,2.5.1,1.3.2,1.8.2v.8c-2.5,0-4.4.7-5.8,2.1-1.4,1.4-2.1,3.3-2.1,5.7s.8,4.3,2.4,5.9c1.6,1.6,3.6,2.4,5.9,2.4,4.2,0,8.3-1.7,12.5-5.1,3.2-2.6,6.6-6.5,10-11.4.2-.2,2.7-4.1,7.6-11.8ZM603.9,96.4c2.9,0,6.1-2.7,9.4-8.1,3.1-5,4.7-9.1,4.7-12.3s-.2-2.3-.6-3.2c-.4-.9-1.2-1.3-2.3-1.3-3.5,0-6.9,2.5-10.3,7.4-3.2,4.6-4.8,8.7-4.8,12.4s.3,2.9.8,3.7c.5.9,1.6,1.3,3.1,1.3Z"/>
        <path class="cls-1" d="M675.3,78.6c-3,3.8-5.7,7.1-8.3,9.7-3.5,3.6-6.9,6.3-10.1,8-4,2.2-8,3.3-12.2,3.3s-5.1-.8-6.9-2.5-2.6-3.9-2.6-6.8c0-4.8,2.5-9.4,7.6-13.6,5.1-4.2,10.1-6.4,15-6.4s3.5.4,4.9,1.1c1.4.8,2.1,2,2.1,3.8,0,3.1-2.9,5.8-8.8,8.2-3.4,1.4-7.7,2.5-12.9,3.6l-.4,2.7c0,2.1.6,3.8,1.8,5.1,1.2,1.3,2.9,1.9,5,1.9s6.1-1.1,9.5-3.4c2.9-1.9,5.8-4.4,8.7-7.6,1.6-1.7,3.8-4.4,6.7-8.1l.8.8ZM656.6,71.6c-2.4,0-5.1,1.8-8,5.5-2.5,3.1-4.2,6.1-5.1,8.9,3.2-.7,6.3-2.1,9.4-4.4,3.7-2.7,5.6-5.5,5.6-8.2s-.6-1.8-1.9-1.8Z"/>
      </g>
      <g>
        <path class="cls-3" d="M204.2,117.4c-2.6,3-4.8,5.6-6.6,7.9-2.6,3.4-4.7,6.7-6.2,9.7-1.9,3.7-2.8,6.9-2.8,9.5s0,1,.3,1.3c.2.4.5.5,1,.5,1.8,0,4.5-2,8.1-5.9,1.4-1.5,2.6-3,3.7-4.5l.5.3c-1.3,1.7-2.5,3.2-3.7,4.5-1.7,1.9-3.3,3.4-4.8,4.5-1.9,1.4-3.6,2.1-5.1,2.1s-2.1-.4-2.7-1-.9-1.7-.9-2.9.3-3.1.8-4.7c.4-1.4,1-2.8,1.9-4.4h-5.5c-2.1,2.5-3.8,4.4-5.1,5.6-2.2,2.2-4.3,3.8-6.2,5-2.4,1.4-4.8,2.1-7.2,2.1s-3.2-.4-4.3-1.1c-1.4-.9-2.1-2.1-2.1-3.7s.3-1.6.8-2.2c.5-.7,1.1-1,1.9-1s1,.2,1.4.5c.4.4.6.8.6,1.3s-.2,1.2-.7,1.6c-.4.4-1,.6-1.7.6,0,1.1.5,1.9,1.4,2.5.9.6,1.9.9,3.1.9,3.2,0,7-2.2,11.5-6.5,4.5-4.3,9-8.7,13.3-13,5.5-5.2,10.4-8.5,14.8-9.9l.4.3ZM199.3,119.6c-3.1,1.7-6.1,3.8-8.9,6.3-2.4,2.1-4.9,4.7-7.6,7.9h5.2c1.4-2.5,3.1-5,5.1-7.5,1.9-2.4,3.9-4.6,6.2-6.7Z"/>
        <path class="cls-3" d="M208.8,132.5c-1,1.5-2.1,2.9-3.1,4.3-2.7,3.9-4,6.6-4,8.3s.6,1.7,1.7,1.7c2,0,4-1.4,5.9-4.2,1.8-2.6,2.7-5,2.7-7.1s0-.4-.2-.8c-.1-.4-.2-.6-.2-.8,0-.6.2-1,.5-1.4.4-.4.8-.5,1.4-.5s1.3.4,1.7,1.2c.3.6.4,1.4.4,2.5s0,.7,0,1c0,.3,0,.6-.1.7.9.8,1.9,1.1,3.1,1.1s1.6-.3,2.3-.8c.6-.4,1.2-1,1.8-1.7l.5.3c-.4.8-1.1,1.5-1.9,2-.8.5-1.7.8-2.7.8s-1.1,0-1.6-.3c-.5-.2-1-.4-1.5-.8-.6,2.6-2.1,4.8-4.5,6.6-2.4,1.8-4.9,2.7-7.6,2.7s-2.5-.3-3.4-.9c-.9-.7-1.4-1.8-1.4-3.2s1-4.1,2.9-7c.9-1.3,1.7-2.5,2.6-3.8l4.6-.2Z"/>
        <path class="cls-3" d="M244.2,136.5c-.9,1.1-1.7,1.8-2.5,2.3-.6.4-1.3.5-1.9.5-1.1,0-2.1-.5-2.9-1.5-.7,2.8-2.2,5.1-4.4,7-2.2,1.9-4.7,2.9-7.5,2.9s-2.7-.4-3.6-1.3c-.9-.9-1.4-2.1-1.4-3.5,0-2.8,1.3-5.4,3.9-7.6,2.5-2.2,5.2-3.2,8.1-3.2s3.9,1.1,4.8,3.3c.8,2.2,1.8,3.3,2.9,3.3s1.2-.2,1.9-.5c.6-.4,1.4-1.1,2.3-2.1l.3.5ZM233.5,134.7c0-.7-.1-1.2-.4-1.5-.3-.3-.7-.5-1.3-.5-1.8,0-3.7,1.6-5.6,4.9-1.7,3-2.6,5.5-2.6,7.5s.1,1.1.4,1.5c.3.3.7.5,1.3.5,1.8,0,3.7-1.6,5.6-4.9,1.7-3,2.6-5.4,2.6-7.5Z"/>
        <path class="cls-3" d="M245.6,139.9c2.2-2.6,3.6-4.3,4.5-5,2-1.9,4-2.9,5.8-2.9s1.5.2,2,.7c.5.5.8,1.1.8,1.9,0,1.3-.9,3.2-2.8,5.7-1.9,2.5-2.8,4.2-2.8,5.2s.3,1,1,1,2-.7,3.5-2.2c1.2-1.1,2.7-2.6,4.3-4.5.2-.3,1.2-1.5,3-3.7l.5.3c-1.1,1.4-2.3,2.9-3.4,4.3-1.7,2-3.2,3.5-4.5,4.6-1.8,1.4-3.3,2.1-4.7,2.1s-1.7-.2-2.2-.7c-.6-.5-.9-1.2-.9-2.1s.6-2.7,1.8-4.3c2.5-3.6,3.8-5.7,3.8-6.2s-.1-.5-.3-.7c-.2-.2-.5-.3-.7-.3-1.6,0-3.9,1.9-6.9,5.7-2.5,3.1-4.3,5.8-5.5,8.1h-4.3c0,.1,8.7-14.3,8.7-14.3l4.8-.2-5.4,7.5h0Z"/>
        <path class="cls-3" d="M315.1,116.9c-1.6.3-3.1.7-4.6,1.5,1.4.6,2.5,1.4,3.3,2.6.9,1.2,1.3,2.5,1.3,3.9,0,2.2-1,4.1-3.1,5.6-1.9,1.4-4,2.1-6.3,2.1s-1.7-.2-2.4-.6c-.8-.5-1.3-1.1-1.3-2s.2-1.1.7-1.5c.5-.4,1-.6,1.6-.6s1.2.2,1.9.6c-.5.3-.9.5-1.1.8-.4.4-.5.9-.5,1.3,0,.9.4,1.3,1.3,1.3,1.5,0,2.8-1.1,4.1-3.2,1.1-1.9,1.6-3.6,1.6-5.2s-.2-1.9-.5-2.6c-.3-.8-.8-1.4-1.6-1.9-2.6,1.8-5.2,5-7.9,9.4-3.9,6.4-6.1,10-6.6,10.7-2.9,3.6-6.2,6-10,7,2.1.5,4.2.8,6.3.8,4.1,0,7.9-.9,11.5-2.8,3.6-1.8,6.5-4.4,8.9-7.8l.4.3c-2.4,3.7-4.9,6.4-7.7,8.1-3.1,2-6.7,3-10.8,3s-6.5-.4-9.7-1.3c-1.1.4-2.2.6-3.4.8-1.2.2-2.4.3-3.6.3s-1.9-.1-2.8-.3c-1.3-.3-2-.8-2-1.5s.3-.8.8-.9c.5-.1,1.1-.2,1.8-.2s1.9.1,3.2.4c2.7.6,4.5.9,5.3.9,1.9,0,4.2-1.9,6.9-5.8,2.6-4,5.3-8,7.9-12,3.5-4.8,6.8-8,10-9.6-.7-.2-1.4-.4-2.2-.4-.8,0-1.7-.1-2.7-.1-4.6,0-9,1.4-13.3,4.3-4.7,3.2-7.1,6.9-7.1,11.3s.2,2.2.7,3c.6,1,1.4,1.5,2.6,1.5,2.2,0,3.8-1.1,5-3.3,1-1.8,1.4-3.9,1.4-6.2h.6v2c.1,2.3-.8,4.3-2.6,6.1-1.8,1.8-3.8,2.6-6.1,2.6s-2.8-.6-3.7-1.7c-.9-1.1-1.3-2.4-1.3-4,0-3,1.5-5.8,4.4-8.4,2.5-2.3,5.8-4.2,9.7-5.7,3.7-1.4,6.9-2.1,9.7-2.1s2,0,3,.2c1,.1,2,.3,2.9.5.9-.4,1.8-.7,2.7-.9.9-.3,1.9-.5,3.1-.7v.5Z"/>
        <path class="cls-3" d="M325.1,132.9l4.4-.3c-2.4,3.6-4.2,6.4-5.4,8.4-1.3,2.1-1.9,3.7-1.9,4.6s.3,1,.9,1c1.3,0,3.4-1.4,6.2-4.3,1.9-1.9,3.6-4,5.3-6.2l.4.3c-1.4,1.9-2.6,3.5-3.6,4.6-1.7,2-3.3,3.6-4.7,4.7-1.9,1.4-3.6,2.1-5.1,2.1s-1.5-.2-2.1-.7c-.5-.5-.8-1.1-.8-1.9v-.6c-.8.9-1.8,1.7-2.9,2.3s-2.1.9-3.2.9-2.1-.4-2.7-1.3c-.6-.9-.9-1.9-.9-3.2,0-2.6,1.3-5.1,3.8-7.6s5.1-3.7,7.7-3.7,2.9.8,3.6,2.4l1-1.5ZM315,146.2c1.5,0,3.2-1.5,5.1-4.5,1.8-2.9,2.7-5.2,2.7-6.8s-.1-1.3-.4-1.7c-.3-.4-.8-.6-1.5-.6-1.7,0-3.5,1.4-5.3,4.1-1.7,2.6-2.6,4.8-2.6,6.7s.2,1.8.5,2.2.8.6,1.4.6Z"/>
        <path class="cls-3" d="M343.1,134.4c-2.1,1.5-4.1,3.3-5.9,5.7-1.2,1.6-2.7,3.9-4.5,6.9h-4.3c0,.1,8.6-14.3,8.6-14.3l4.8-.2-4.9,6.9c2-2.4,3.7-4.1,5.1-5.1,2.1-1.5,4.3-2.3,6.6-2.3-1.1,1.7-1.6,2.7-1.7,2.9-.3.6-.4,1.3-.4,2,0,1.1.5,1.7,1.6,1.7s1.4-.3,2.2-.8c.4-.3,1-.9,1.7-1.6l.3.3c-.8,1-1.7,1.8-2.8,2.4-1.1.6-2.2.9-3.4.9s-1.9-.3-2.6-.9c-.7-.6-1-1.5-1-2.5s.2-1.3.6-1.9Z"/>
        <path class="cls-3" d="M353.9,139.8c2.5-2.8,4-4.5,4.6-5,2.1-1.9,4.1-2.8,6-2.8s1.4.2,1.9.7c.5.5.8,1.1.8,1.8,0,1.5-.8,2.6-2.4,3.4-.6.3-2,.8-4.3,1.4.4.3.8.6,1.1,1s.4.9.4,1.3-.1,1.3-.4,2.2c-.3,1-.4,1.6-.4,2.1l.6.6c1,0,2.5-.9,4.3-2.6,1.9-1.7,4.1-4.3,6.7-7.6l.5.3c-2.9,3.6-4.8,5.9-5.8,6.9-2.8,2.8-5.3,4.2-7.5,4.2s-1.5-.2-1.9-.7-.7-1.1-.7-1.9.3-2,1.1-3.5c.5-1,.8-1.7,1-2l-2.6.6-.8-.7c0-.3.1-.5.4-.6.3-.1.6-.2,1-.2s.8,0,1.2,0c.4,0,.8,0,1.1.1.8,0,1.6-.4,2.4-1.2.8-.8,1.2-1.7,1.2-2.5s0-.8-.3-1.1c-.2-.3-.5-.5-.9-.5-1.3,0-2.9,1.1-5,3.4-2.1,2.2-4.5,5.6-7.3,10h-4.2c0,.1,17.2-28.3,17.2-28.3l4.7-.3c-1.5,2.4-3,4.8-4.5,7.1-1.3,2-2.8,4.4-4.5,7.1-1.7,2.6-3.2,5-4.7,7.1Z"/>
        <path class="cls-3" d="M366.5,152.2c1.7,0,3.3-.4,4.7-1.3,1.5-1,2.5-2.2,2.8-3.8,0,0-.2.1-.5.1s-.4,0-.7,0c-.5,0-.9-.2-1.2-.5-.3-.4-.5-.8-.5-1.3s.2-1.2.7-1.6c.4-.4,1-.6,1.6-.6s1.4.2,2,.7.8,1.1.8,1.9c0,2-1.1,3.8-3.4,5.1-2,1.2-4.1,1.8-6.3,1.8v-.5Z"/>
        <path class="cls-3" d="M415.4,133.9v-.6h2.1c1.6-3.1,3.5-5.6,5.5-7.5,2.3-2.1,5.1-3.5,8.2-4.3-1.2,0-2.9,0-5.3-.1-2.4,0-4.1-.1-5.3-.1-2.6,0-5.1.2-7.5.5-3.6.5-6.4,1.3-8.4,2.4-2.7,1.4-4,3.2-4,5.5s.7,2.6,2.2,3.4c1.2.7,2.6,1,4.2,1,3.1,0,5.4-.8,7.1-2.3s2.5-3.8,2.5-6.9h.7v1.2c0,2.7-1,5.1-3,7s-4.5,2.9-7.3,2.9-3.4-.5-4.8-1.5c-1.5-1.1-2.2-2.6-2.2-4.3,0-3.1,1.7-5.7,5.2-7.6,2.7-1.5,6.5-2.7,11.2-3.4,3.4-.5,6.8-.8,10.2-.8s4.7,0,7.9.3c3.3.2,5.2.4,5.8.7,0,.2.2.4.3.7.1.3.2.4.2.5,0,.6-.3,1-1,1.3-.7.3-1.6.4-2.7.4s-1.5,0-2.3-.1-1.5-.1-2.1-.2c-2.4,0-4.6,1.4-6.8,4.2-1,1.3-2.4,3.7-4.3,7.3,1.7,0,3-.2,3.8-.6.8-.4,1.4-.9,1.7-1.7.7,0,1.6,0,2.7-.1,1.1,0,1.8-.1,2-.1-2.2,1.6-4,3.1-5.3,4.5-1.8,1.8-3.1,3.7-4,5.7h-.5c.8-2.6,1.9-5,3.4-7.4-1.5.2-2.9.3-4.2.3-1.8,3-3.3,5.2-4.6,6.7-1.8,2.2-3.8,3.8-5.8,5-2.4,1.3-5,1.9-7.9,1.9s-3.9-.4-5.4-1.2c-2-1-2.9-2.5-2.9-4.3s.2-1.5.7-2.1c.5-.6,1.1-.9,1.9-.9s1.1.2,1.5.6c.4.4.6.9.6,1.5s-.1.9-.4,1.2c-.3.3-.6.5-1.1.6,0,1.3.5,2.4,1.6,3.1.9.6,2.1.9,3.5.9,2.2,0,4.2-.7,6.1-2.2,1.5-1.1,2.9-2.8,4.4-5.1.1-.2,1.3-2.1,3.4-5.7h-1.8Z"/>
        <path class="cls-3" d="M448,118.5c-1.5,2.3-3,4.6-4.5,6.9-3.6,5.5-6.1,9.5-7.6,12-2.6,4.5-3.9,7.2-3.9,8.1s.3,1.1.8,1.1c1.4,0,3.4-1.4,6.1-4.2,1.7-1.8,3.4-3.8,5.2-6.2l.5.2c-1.3,1.8-2.4,3.3-3.5,4.5-1.7,1.9-3.2,3.4-4.7,4.5-1.8,1.4-3.5,2.1-5.1,2.1s-1.6-.2-2.1-.6c-.5-.4-.8-1-.8-1.9s1.2-3.9,3.7-8.3c1.7-3.1,4.1-7,7.1-11.7,1.7-2.6,3-4.7,4-6.2l4.7-.3Z"/>
        <path class="cls-3" d="M465.7,136.5c-.9,1.1-1.7,1.8-2.5,2.3-.6.4-1.3.5-1.9.5-1.1,0-2.1-.5-2.9-1.5-.7,2.8-2.2,5.1-4.4,7-2.2,1.9-4.7,2.9-7.5,2.9s-2.7-.4-3.6-1.3c-.9-.9-1.4-2.1-1.4-3.5,0-2.8,1.3-5.4,3.9-7.6,2.5-2.2,5.2-3.2,8.1-3.2s3.9,1.1,4.8,3.3c.8,2.2,1.8,3.3,2.9,3.3s1.2-.2,1.9-.5c.6-.4,1.4-1.1,2.3-2.1l.3.5ZM455,134.7c0-.7-.1-1.2-.4-1.5-.3-.3-.7-.5-1.3-.5-1.8,0-3.7,1.6-5.6,4.9-1.7,3-2.6,5.5-2.6,7.5s.1,1.1.4,1.5c.3.3.7.5,1.3.5,1.8,0,3.7-1.6,5.6-4.9,1.7-3,2.6-5.4,2.6-7.5Z"/>
        <path class="cls-3" d="M473.8,134.4c-2.1,1.5-4.1,3.3-5.9,5.7-1.2,1.6-2.7,3.9-4.5,6.9h-4.3c0,.1,8.6-14.3,8.6-14.3l4.8-.2-4.9,6.9c2-2.4,3.7-4.1,5.1-5.1,2.1-1.5,4.3-2.3,6.6-2.3-1.1,1.7-1.6,2.7-1.7,2.9-.3.6-.4,1.3-.4,2,0,1.1.5,1.7,1.6,1.7s1.4-.3,2.2-.8c.4-.3,1-.9,1.7-1.6l.3.3c-.8,1-1.7,1.8-2.8,2.4-1.1.6-2.2.9-3.4.9s-1.9-.3-2.6-.9c-.7-.6-1-1.5-1-2.5s.2-1.3.6-1.9Z"/>
        <path class="cls-3" d="M489.8,132.6c-2.7,4.2-4.1,6.3-4.2,6.4-2.1,3.4-3.1,5.5-3.1,6.4s0,.7.1.8c0,.2.3.2.5.2,1.3,0,3.3-1.4,6.2-4.3,1.4-1.4,3.2-3.4,5.5-6.1l.5.3c-1,1.3-2.1,2.8-3.5,4.3-1.7,1.9-3.4,3.4-5,4.6-1.9,1.5-3.5,2.2-4.7,2.2s-1.5-.2-2.1-.7c-.5-.5-.8-1.1-.8-2s.9-3.2,2.6-6c0,0,1.3-2.1,3.8-5.9l4.4-.2ZM494.1,125.6c0,.6-.2,1.1-.7,1.6s-1,.7-1.6.7-1.1-.2-1.6-.5c-.4-.3-.7-.8-.7-1.4s.3-1.1.8-1.6,1.1-.7,1.7-.7,1,.2,1.4.6.6.9.6,1.4Z"/>
        <path class="cls-3" d="M501.6,144.4c-.8.9-1.8,1.6-2.9,2.2s-2.2.8-3.3.8-2.1-.4-2.7-1.2c-.6-.8-.9-1.8-.9-3,0-2.7,1.2-5.3,3.7-7.7,2.5-2.4,5.1-3.6,7.9-3.6s3,.8,3.7,2.5l9.5-15.6,4.7-.2c-.5.8-2.3,3.6-5.4,8.3-3.6,5.4-6,9.2-7.3,11.4-2.4,4.1-3.7,6.6-3.7,7.5s0,.4.2.6c.2.2.3.3.5.3,1.5,0,3.6-1.4,6.3-4.3,1.1-1.2,2.9-3.3,5.2-6.3l.6.3c-1.4,1.9-2.6,3.4-3.5,4.5-1.7,2-3.2,3.5-4.7,4.6-1.9,1.4-3.6,2.1-5.1,2.1s-1.6-.2-2.1-.7c-.6-.5-.8-1.1-.8-1.9v-.7ZM505.6,134.9c0-1.5-.7-2.2-2.1-2.2s-3.5,1.4-5.2,4.2c-1.6,2.5-2.4,4.8-2.4,6.7s.2,1.2.5,1.7c.3.5.8.7,1.5.7,1.7,0,3.4-1.4,5.2-4.3,1.7-2.7,2.5-4.9,2.5-6.8Z"/>
        <path class="cls-3" d="M530.5,132.9l4.4-.3c-2.4,3.6-4.2,6.4-5.4,8.4-1.3,2.1-1.9,3.7-1.9,4.6s.3,1,.9,1c1.3,0,3.4-1.4,6.2-4.3,1.9-1.9,3.6-4,5.3-6.2l.4.3c-1.4,1.9-2.6,3.5-3.6,4.6-1.7,2-3.3,3.6-4.7,4.7-1.9,1.4-3.6,2.1-5.1,2.1s-1.5-.2-2.1-.7c-.5-.5-.8-1.1-.8-1.9v-.6c-.8.9-1.8,1.7-2.9,2.3s-2.1.9-3.2.9-2.1-.4-2.7-1.3c-.6-.9-.9-1.9-.9-3.2,0-2.6,1.3-5.1,3.8-7.6,2.5-2.4,5.1-3.7,7.7-3.7s2.9.8,3.6,2.4l1-1.5ZM520.4,146.2c1.5,0,3.2-1.5,5.1-4.5,1.8-2.9,2.7-5.2,2.7-6.8s-.1-1.3-.4-1.7c-.3-.4-.8-.6-1.5-.6-1.7,0-3.5,1.4-5.3,4.1-1.7,2.6-2.6,4.8-2.6,6.7s.2,1.8.5,2.2.8.6,1.4.6Z"/>
      </g>
      <g>
        <g>
          <path class="cls-5" d="M283.8,92.1c-1.3.5-.7,1.6-1,2.5h-4.4c-.4-.5-.9-1.1-1.4-1.8-.6,1.5-1.7,1.6-2.8,1.9-1.1.3-2-.3-3.3,0-.3-.3-.7-.8-1-1.3-.3-.5-.5-1-.7-1.5.3-.8,1.2,0,1.6-.7-1.2-.2-1.7-1.3-2.4-1.8-.8.8-1.5,1.6-2.2,2.3-1.5,0-2.6-.7-3.7-.9-1-.1-2.1-.5-3-.4-.6-.7.2-1,.1-1.6-1.7.1-1.5,1.7-2.2,2.6-.6,0-1.2.2-1.8-.1-.4-1.4.5-2.2,1.6-2.4.9-.1,1.2-.9,1.9-1.1.5,0,.7.2.9.5.4-.3.7-.7,1.1-1h1.6c.4-.4.3-.9.2-1.2-.2-.6-1.2-.8-1-1.7.4-.4.9-.3,1.4-.1.1.3.2.6.3,1,.3-.3.5-.5.9-.9-.5-.2-.9-.4-1.3-.6.6-1.8-.6-3.1-.4-4.3,1.2-1.8,2.1-3.6,4.7-3,0-.9-.8-1.1-1-1.7-.4-.7-.4-1.4-.5-2.2-.1-.8.4-1.3.7-1.8.4-.6,0-1.4.9-1.6-.1-.9-.8-1.1-1.1-1.7.4-.7.9-1.6.5-2.5-.4-.3-.8,0-1.2-.2-.6.9-.8,1.9-1.1,3,.4.3.4.8.3,1.5-.4.4-.9.3-1.6,0,.9-1.3.6-2.7.6-4.1.5-1.2,2.1-1.2,2.6-2.3.5-1.1,1-2.1,1.7-2.6,1.4-.6,2.4.2,3.4.5.6.2,1.2-.3,1.8.3.5.4.7.1,1.7-1.3-1.5,0-2.7-.8-4.2-.7-.7-5.9,1.3-10.7,5.3-15.1.9,1.5-.3,1.7-.6,2.3.2.2.6.4.7.2.5-.7,1.5-.9,2-1.7.3-.5,1.1-1,1.9-.9.8,0,1.6,0,2.4,0,.8-.5,1.7-.7,2.2-1.5h2.7c-.9.8-1.4,1.4-1.3,2.5,0,.6-.6,1.1-.8,1.7-.2.7-1.4,0-1.2,1.1,1,1.1,1.9-.5,2.9-.3,1,.2,2.1,0,3.3,0v-3.3c.8-.4,1.5-.8,2.2-1.1,0-.2-.1-.6.6-.9.6-.2,1.1.2,1.5,1.6-.8.8-1.5,1.5-2.3,2.2.7.7,1.4.3,1.9.5.9-1.2,1.5-2.6,2.8-3.7-1-.7-1.3-1.7-2-2.5-1.2.7-2.6.3-3.9.4-.6.5-1.1,1.1-.7,2h-1.5c-.4-.4-.1-.9-.2-1.3-.3-.4-.8-.2-1.2-.3-.8-1.1-1-2.8-2.8-3.2-.4-.5.2-1.4-.7-1.8.3-.8-1.2-1-.7-1.5,1.2-2.4,3.4-2.2,5-3.2-.3-.3-.5-.5-.8-.8-.4.2-.6.7-1.1.5-.5-.4-.4-.8.4-2,1.4-.5,2.6.3,3.9.5.2.7.9,1.2.7,2,.4,0,.7.1.9-.1,1-1.2,2.6-1.5,3.7-2.4.6-.5,1.3-.9,1.6-1.5.6-1.4,1.8-1.5,3-1.7.4.8.3,1.4-.4,1.9-.6.5-1.3,0-2,.3v1.3c.6.4,1.2.1,1.8.2.8-.4.8-1.5,1.5-2h1.2c.1.6.4,1.1,1.1,1.1.2.4.2.9,0,1.2-.7,1.1-2,1.5-3.1,2,.6.6,1.4,0,2,.4,1.1.6.3,3.3,2.7,2.4.4-1.1-1-1.1-1-2,0-1,1-1.8.5-2.8.5-.9,1.6-.8,2.1-1.7-1.2-.2-1.6-1.7-3-1.3-.3-.7-.2-1.3-.2-1.9,1.4-1.2,3.2-1.6,4.9-2.2,1.2-.4,1.4-1,1.5-2,.5-.4,1.2,0,2-.2.4.5.9,1.1,1.3,1.6h1.2c.6.6,1.1,1.1,1.7,1.7,0,.7.1,1.5,1,1.9.7,0,.9-.6,1.5-1h2.7c1,1.6,3.1,1.9,4.6,3.4,3.8-2.8,7.7-4.9,12.4-2.4.2,1.3-.3,2.4.6,3.2-.1.8-.8.3-1.1.8v1.1c.6.6,1.2,1.1,2,1.8.2,0,.7-.2,1.1.1.4,1-.8,1-.8,1.8.3.4.8,0,1.3,0,.4-.3-.1-1.6,1-.9.3-.8.4-1.4-.3-1.9.3-.3.6-.7.8-.8,1.2-.4,2.5-.8,3.8-1,1.3-.2,2.6.5,3.9.8,2.6.6,4.8,2.2,6.9,3.7,1.1.8,2.3,1.3,3.6,1.9v1.7c1,.3,1.7.9,2.2,1.7,0,.6-.8,1-.5,1.6,0,.8,1,.9,1.1,1.7,0,.7-.7.3-1,.7.3,1.2,1.7,1.2,2.5,2.2.3.5-.5,1.5.5,2.1-1.1,1-2-1-3.2,0,.5,1.1,1.1,2.2,1.6,3.4,0,.6-.6.8-1,1.3v2c-.3.4-.6.6-.9,1-1-.7-2.1-.9-3.4-.4.2,1.2,2,1,1.8,2.5,1.2-.4,2.2.2,3.4-.5.8-.5,2.2-.2,3.1.5.7.5,1.6,1.1,1.3,2.2,1.2,2.1,3.9,2.2,5.2,4.4v1.5c-.5.8-1.2.9-2,.7,0,1.3.9,1.5,1.4,2.1,1,0,1.1-1.2,2.1-1.1.8,0,1,.8,1.6,1,.5-.4,0-1,.3-1.5q1.1.4,1.9,1.7c0,.4-.7.7-.3,1.3.7,1,.7,1.9-.4,2.8h-2.1c-.8.5-.9,1.3-1.3,1.9q1.5.3,2.4,1.8c.4,0,.7-.1.8-.4.5.6,1,1.1,1.4,1.5h1.9c.3.3.5.5.8.8-.5.6-1.4,1.1-1,2.2,1,.6,2.1,1.1,3.2.6.5.7,1.4,1,1.5,1.9-.6.7-1.4,0-2,.4-.4.3,0,.8-.2,1.2-1,.6-1.9,1.1-3.2.3-.6-.4-1.7.3-2.4-.6-.3.2-.4.6-.9.5-.4,0-1,0-1.1.4-.7,2.4-3.3,1.9-4.8,3.1-.3.2-.8.1-1.2.2-1.3,0-2.7-.3-3.9,0-1.4.4-2.4-1.3-3.9-.2-1,.7-2.5.7-3.7,1.2-1.2.5-2.5.5-3.7.5-.5-.4-.9-.9-1.3-1.3v-1.1c-.3-.3-.6-.7-.7-.7-.7.2-.9-.9-1.2-.8-1.5.4-2.4,1.1-3.2,1.8-.7-.3-1.3-.7-2.1-.6,0-.5-.2-1-.2-1.5-1.3.4-.6,2-1.7,2.5h-2.2c-.9-1.4-2.9-.9-3.8-2.2-.9-1.3-2.4-1.9-3.5-3h-3.5c-1.6.8-3,1.5-4.1,2.8-.3.4-.8.6-1.3.7-1.5.4-2.5,1.4-3.5,2.5.3,1.2-.8,2.3-.5,3.6,0,.1.2.3.3.4,1,.4.4,1.6,1.1,2.2.6.4,1.3.8,1.7,1.4.5.7.7,1.7.5,2.7h2.5c1.7.7,2.9,2,4.4,2.9,1,.6,1.2,2.2,2.8,2.4.6-.8,1.7-.8,2.5-.5,1,.4,2.3.2,2.8,1.5,3,.1,6-.4,9,1h-61.8q2.1-.9,5-.9h5.1c1.9-1.5,3.9-2.1,6.2-1.1,1.9-.9,3.8-1.7,5.7-2.3,1.5-1.4,1.6-3.3,2.7-4.9.3-1.4-.5-3,.6-4.5-.4-.6-1-1.3-1-1.9,0-1.3-.9-2-1.7-2.4-1.4-.7-2.7-2-4.5-1.9-1,0-1.2-.9-1.9-1.1-1.8-.6-3.7-.8-5.3-1.9-.4-.3-.8-.1-1.3-.2-1.1,0-2.1,0-3.2,0-1.7,1.4-3.9,2-5.5,3.4,0,.9.7,1.1,1.1,1.6v1.6c-.4.4-.9.9-1.3,1.3-1.5-.1-2.8.5-3.8.8-.6-.3-1-.5-1.4-.8.4,0,.5-.1.6-.4,0,0-.1-.2-.2-.2-.2,0-.4.2-.4.5ZM364,86.4c.6-.4,1.3-.6.9-1.6-.7.4-1,.8-.9,1.6-.3,0-.4,0-.5.3,0,0,.1.2.2.2.2,0,.4-.2.3-.4ZM329.9,77.9c-1-.2-1.9.3-2.5-.5-.8.4-1.6.7-2.1,1.5-.6-.5-.9-1.1-1.4-.8-.4.2-.8.4-1.3.7,1.8,2,.3,4,.3,6,1.1-.2,1.9-.7,2.6-1.3.8-.7.4-1.9,1.2-2.5-.3-.5-.8-.7-.6-1.3.8,0,1.3-.8,1.9-1.3.4.6,0,1.2.7,1.7-.2-1.1.6-1.4,1.1-2.2.4,0,.5.4.8.5.3-.4,1.1-.7.6-1.4-.5,0-1-.3-1.4.2,0,.2,0,.3.2.8ZM313.4,81.8c-.4-.4-.9-.8-1.4-1.3-.9-.1-2.1.3-3-.7-.3.8-1.2.5-1.4,1.1.1.6.9,1.1.5,1.9.9,1.2,2.2,2,3.6,2.7,1,.5,1.6.3,2.1-.3.6-1.3-.6-2.2-.4-3.3ZM358.2,40.9c0-.5,0-.8-.9-.7-.2.2-.4.5-.7.7-.1.7.1,1.2.5,1.8-.7.2-1.5-.2-2.1.3,0,.2,0,.4,0,.6.9.5,2-.3,2.7.6.9-.7,1.8-.4,2.8.5,0-1.6,1.4-.3,1.9-1.4-.8-1.8-3-1.3-4.3-2.4ZM301.3,82c2,.4,3.7,1.8,5.7,1.6.3-1,0-1.9-.8-2-.9,0-1.5-.8-2.5-.6-1-.8-1.8-2.2-3.5-2,0,1.2,1.1,1.8,1.1,3ZM273.9,78.1c-.8-.3-1.6-1.2-2.3-.7-.9.7-1.8.3-2.8.5,0,.7-1.5.8-1.1,2.1,2.3,0,4.6.2,6.2-1.9ZM318.3,28.4c-.6-.6-1-1-1.5-1.4h-2.2c-.3.4-.1.9-.2,1.5,1.4-.4,1.3,1.1,2,1.8.7-.6,1.2-1.2,1.9-1.8ZM341.3,75.5c-1.3-.3-2.3.2-2.9-.7-.2.2-.5.5-.7.7,0,1-.3,2.1,1.3,2.4.7-.7,1.3-1.4,2.4-2.5ZM268.5,81.7c-1.8,0-3.1-1.3-4.3-.6.8.8,1.6,1.6,2.4,2.5.4-.4.9-.9,1.9-1.9ZM331.8,79.7c-.5-.2-.9-.5-1.4-.7-.9.9-1.9,1.6-2.2,2.9.6.3,1.2,0,1.7.1.6-.6,1.2-1.2,1.8-1.8,0,0,0-.2,0-.5ZM325.6,73c.7,0,3.4-.5,4.2-.8.6-.2.5-.5.4-.9-1.4-.5-2.6.6-3.9.6-.3,0-.9.5-.6,1.2ZM296,78.5v1.5c1.2-.5,1.2,1.1,2.1,1.1.5-.3.8-.5.9-.6-.7-.8-1.3-1.4-1.8-2h-1.3ZM343.5,78.7c-.7-.4-1.3-.2-1.4-.2-.7.7-1.1,1.1-1.6,1.6.3.4.8.6,1.9.4.1-.2.5-.7.9-1.1,0-.1,0-.3.2-.6ZM274.2,90.6c.3.3,0,1.2.9,1,.4-.4,1.1-.6.8-1.4q-1.3-.3-2.4-1.2c-.3.4-1.1.7-.6,1.5.4,0,.8,0,1.2.1ZM299.8,63.5c-.3.3-1.3.2-1.6,1,0,.2,0,.5,0,.8.7,0,1.3,0,1.9,0,.2-.4.7-.5.7-1.2-.2-.1-.6-.3-1-.5ZM292.9,82c-1.2.5-2-1-3.1-.3,0,.5-.3,1,.2,1.4,1-.2,2.2.5,2.9-1.1ZM335.6,80.2c.4-.7,1.4-.9,1.5-2-.3-.3-.5-.5-.8-.8-.5.4-1,.9-1.4,1.3.2.5-.1,1,.7,1.5ZM351.9,81.3c.5.8,1.2,1,2,.6.1-.5.3-1,0-1.3-.8-.3-1.4,0-1.9.7ZM303.2,79c.2-1.7.2-1.7-1.4-2.1-.2,1,0,1.8,1.4,2.1ZM365.8,69.6c.8-.3,1.3-.6,1.1-1.2-.2-.4-.3-.7-.5-1-.8.7-1.2,1.3-.6,2.2ZM341.3,83.5c.7.3,1.4.3,2.1,0v-.8c-.6.1-.9-.3-1.4-.6-.2.4-.9.6-.7,1.3ZM359.6,65.6c1.1.4,1.8.2,2.2-.7-.4-.2-.5-.7-1-.7-.4,0-.5.3-.8.6-.2.2-.2.4-.4.8ZM342.8,76.7c2,.1,2.1,0,2-1.4-1,0-1.2.9-2,1.4ZM327.6,29.2c-.7-.2-1.3-.2-2,0,.4.9,1.1,1.1,2,.8v-.8ZM290.1,72.3c1.1-.3,1.7-.6,1.7-1.4-.2-.4-.5-.3-.8-.3-.2.5-.5.9-.9,1.7ZM297.6,30.4c-.5-.4-1.1-.4-1.6,0-.1.4,0,.7.4.9.6,0,.8-.5,1.2-.8ZM299.4,36.9c-.6-.5-.8-1.1-1.4-1-.6.2-.5.6-.2,1h1.6ZM359.4,85.2c.8,0,1.4.3,1.9-.2,0-.3,0-.7-.4-.8-.6,0-.7.5-1.5,1ZM287.3,83.1c-.6,0-1,.4-1.3,1h1.4c.2-.4.2-.7-.2-1ZM370.5,87.3c.8,0,1.4.3,1.9-.2,0-.3,0-.7-.4-.8-.6,0-.7.5-1.5,1ZM342.6,66.4c.4-.4.4-.7,0-1.1-.2,0-.5-.1-.7.2-.2.7,0,.9.7.8ZM293.7,79c-.9-.2-1,.1-.8.8.2-.2.5-.5.8-.8ZM374.9,82.2c-.9-.2-1,.1-.8.8.2-.2.5-.5.8-.8ZM353.4,39.3c.5.3.8.5,1,0-.3-.3-.6-.3-1,0ZM276.2,54.8c.4-.4.4-.7,0-1.1-.4.4-.4.7,0,1.1ZM306.1,76.1c-.5-.3-.8-.5-1,0,.3.3.6.3,1,0ZM371.9,82.4c-.5-.3-.8-.5-1,0,.3.3.6.3,1,0ZM271,90.5c.3-.5.5-.8,0-1-.3.3-.3.6,0,1ZM273.1,93.7c.3-.5.5-.8,0-1-.3.3-.3.6,0,1ZM359,85.3c-.2.2-.2.3,0,.5.2-.2.2-.3,0-.5ZM361.6,40.1c.2-.2.2-.3,0-.5-.2.2-.2.3,0,.5ZM350.5,46.4c.2-.2.2-.3,0-.5-.2.2-.2.3,0,.5ZM356.6,38.3c.2.2.3.2.5,0-.2-.2-.3-.2-.5,0ZM364.8,69.5c-.2.2-.2.3,0,.5.2-.2.2-.3,0-.5ZM330,27c-.2.2-.2.3,0,.5.2-.2.2-.3,0-.5Z"/>
          <path class="cls-4" d="M386.8,83.8c1-.3.9.3.6,1-.2-.3-.4-.7-.6-1Z"/>
        </g>
        <g>
          <path class="cls-2" d="M428.3,79.3c-.3,0-.6,0-.5-.4,0-.1.3-.1.5-.2v.6Z"/>
          <path class="cls-2" d="M405.7,88.7c-1-.3-1.5.5-2.1,1.2h-3.3c-.3-.4-.8-1.1-1.5-1.9v-3.8c-.7,1.2-2.2,1.5-2,3,0,0-.3.1-.5.2-.2,0-.4.1-.6.2v1.8c-.8.8-1.4,2.1-3,1.6-.4-.3-.1-.8-.2-1.2.4,0,.6-.2.6-.6.3,0,.5,0,.6-.4,0,0-.1-.2-.2-.2-.3,0-.4.3-.4.6-.4,0-.6.2-.6.6-2.2,1-4.1.5-5.7-1.6.4-1.2-1-.7-1.3-1.3.4-.3.8-.7.6-1.4-.3-.1-.7-.2-1-.3-.5-1,0-1.7.8-2.3.4.1.5.7,1,.6,0,.6-.2,1.2.4,2,.3-1.4,1.6-.2,2.2-1.2-.3-1.4-.9-.9-1.6-.2-.4-.1-.5-.7-1-.6-.2-.9.3-1.4.9-1.8.5-.4.2-1.3.9-1.5-2.4-1.4-3.5-1.1-6.5,1.4h-2.7c-.5.6-1.1,1.3-1.6,2-1.7-.4-3.3-1-4.9-.7-.3,0-.6.2-.5.6-1.5-.9-.8,1.5-1.9,1.3-.8,1.2-2.2,2.1-1.8,3.8-1,.1-1.2,1.5-2.4,1.3v2.7c-1.2,1.1-2.2,2.1-3.3,3.2,0,1.5.3,2.9,1.3,3.8.9.8,2.5.6,3.4,1.6h11.3c.4,1.7,2.3,1.6,3.3,2.5.3.3,1.2.2,1.7-.6,1.2,3,4.5,2.7,6.9,4-2.6.5-60.8.6-65,.2.9-.9,1.8-1.8,2.9-2.8.6.1,1.3-.3,2-.7.8.5,1.8.7,2.6,1.5,2.2-1.3,4.4-1.8,6.7-1.5,0-.5.2-.7.2-1.2h3.3c.7-.2,0-1.3,1-1.5.8-.2,1.9-.5,2.2-1.3.5-1.1,2,.2,2.2-1.2,1.5,0,1.9-1.1,2.6-2.1,1-1.5,1.8-3.1,2.5-4.6,1-2.1,2.7-2.8,4.9-2.7.7-2.3,3.1-3.3,3.9-5.6.5-1.5.7-2.7,0-4.2-.4-.8-1-.5-1.3-1,.2-.2.4-.4.6-.7-.9-.7-1.4-1.7-2.5-2.2,0-.3,0-.5-.4-.6,0,0-.2.1-.2.2,0,.3.3.4.6.4q.3,1.1,1.3,2.2c-.8.7-1.3,1.6-2.5,1.8-.2.4,0,.8.3,1,.5.4,0,.5-.1.7-.9,2.9-1.1,3.3-4.2,1-.7,1.1-2.2,1.2-3,2.3.2.2.4.5.6.7-1.3,2-1.5,2.1-5.5,2.2,0,1.5-.7,2.5-2.2,3.2-1.3.6-2.5.9-3.7.2-.7-.4-1.7-.5-2-.2-1,.9-1.5-.2-2.2-.3-.5-1,.4-1.7.5-2.3-.6-1.7-1.9-1-2.9-1.3-.9-.8-1.4-1.7-1.6-2.7,1.3-1.1,2.1.6,3.2.3,0,.3,0,.5.4.6,0,0,.2-.1.2-.2,0-.3-.3-.4-.6-.4.2-.9,1.1-1.2,1.6-1.9.4.4.9.8,1.3,1.2.4-.4.4-.7,0-1.1-.8-.8-1.7-1.5-2-2.6-.2.2-.4.4-.7.7-1.6-.5-2.7-1.3-2.8-3.2.7-.3,1.3-.6,1.9-.9-.1-.9.3-2-.2-2.9-.4,0-.6,0-1,.1.3,1.3-.5,2.4-.7,3.7-.2,0-.4,0-.6,0v-1c-1.2-.3-2.4-.7-3.7-1,0-.9-.1-1.8-1.3-2.4,0,1-.6,1.9-.7,2.8,0,.6,0,1.3,0,1.9.4.7,1.4.9,1.2,2-1.1.7-1.6-.2-1.8-.9-.9-2.2-2.3-4.5,0-6.8-.4-.9-1.1-1.8-.7-2.8.3-.7.3-1.9,1.5-1.8,0-1.5,1.6-2.3,1.6-3.7.7.1,1.1-.2,1.6-.6,1.2-1,2.8-1.2,4.3-1.8,1-.4,2.8.4,3.6,1.5.4.5.7,1.1,1.5.9q-.3-1.6.5-3.7c.7,0,1.4,0,2.1-.1.6-1.6-.4-3.5.8-5,.3,0,.5,0,.6-.4,0,0-.1-.2-.2-.2-.3,0-.4.3-.4.6-1-.2-1.2-1.2-1.6-1.9-.3.6-.6,1.2-.9,1.9-.4,0-.6.2-.6.6-1.7.5-3.4,1.1-5,1.6,0,0,0,.2,0,.3-.4,0-.8.2-1.3-.4,1-1.4,1.4-3.2,3.3-4,.6-.2,1-.6,1.1-1.2.2,0,.5-.1.5-.2,0-.4-.2-.4-.5-.4,0-.6.2-1.3-.6-1.4.6-1.1,2.1-1.4,1.9-3,.3,0,.6,0,.9,0,.5.5.4,1.3,1.3,1.8h3.3c.5-.6-.6-.6-.4-1.2.1-.5,0-1,0-1.6.8-.3,1.5-.7,2.5-1.1-.3-2,1.7-2.3,2.6-3.4,1.2-1.5,3.1.2,4.1-1.6.1.6.2.9.3,1.3.5.5,1.1.3,1.8,0v-2.6c1-1.1,2.3-1.5,3.2-2.5,1.5-1.7,3.2-2.3,5.3-1,.8-.4.2-1.2.5-1.7.2-.3.5-.2.8-.2.7.6,0,1.6.4,2.3.7.3,1.7.4,1.8,1.4,0,.6.5.9.9,1.2.4.3,1,.3,1.1-.5,1.2,0,2,.7,2.8,1.1,1.7-.6,2.8-2,4.2-3.1,1-.1,2.2.3,3.2-.2,0-.4,0-.8-.3-1-1.2-.4-1.9.6-2.9,1.1-.5,0-1,0-1.6,0-.8-.8.3-2.1-1.2-2.9.6-.5,1.1-1,1.7-1.4,1.8-1,3.7-1.2,5.3.2,1,.9,1.9,1,3,1,.7.5,0,1.3.5,1.7.4.2,1,.2,1-.2.2-1.3,1.3-1.4,2.2-1.5,1.8-.2,3.6,0,5.4-.6,1.1-.3,2.4-.3,3.8,1.2.3.9,1,2.5.7,4.1.8.5,1.9-.1,2.3.9.3.2.2.2,0,.5-.8,1.7-.8,2.3-.3,3.8,1.1,0,2,.5,2.9,1-.2.3-.4.6-.6.8,0,.8.6.9.9,1.4.6-1,2-.1,2.6-1.2,1.4.8.9,2.1,1,3.4.8.7,1.6,1.5,2.4,2.2v2.8c-.9,1.2-2.5,1.9-3.6,3.2,1,.5,2.3,0,3.5.3.5,1.4,1.1,2.6,2.7,3,.4.9.8,1.8,1.5,2.5,1,.9,1.8,2,1.6,3.4-.2,1.4,2,1.4,1.3,2.8.8,0,1.3.1,1.7.2.3.5.2,1,.1,1.5-.9,1.1-1.5-1.2-2.4,0,.6,1,1.9,1.5,2.1,2.9,1.7,0,3.3-.6,4.5-1.9.3.3.6.6.9.9-.2,1.7-1.6,2.4-2.5,3.5-.9-.2-.4-1.1-.9-1.3-.4,1.4-1.8,1.5-2.8,2.1.3.4.6.8.7,1,1.4.1,1.5-1.5,2.6-1.2.5.3.3.7.4,1.1.4,1.4,1.1,1.7,2.5,1.2.7-.3,1.4-.7,2.2-1.1.4.8.6,1.5-.1,2.2-1.3,1.1-2.4,2.6-4.4,1.2-.6-.4-1.6,0-2.8,0,.6.7,1,1.1,1.4,1.6-.4.4-1.2.2-1.5.9-.2-.5-.4-.9-.6-1.3-1.7,0-1.5,1.4-1.8,2.4-.8,0-1.6.2-2.9.3,2.7.9,4.9,1.8,7,.4.7.4.4,1,.5,1.5-.5.7-1.8.4-1.9,1.6-1.7-.9-3.2.7-4.6,0-1.1-.6-2.4-1.1-3-2.4,0-.5.4-.7.6-1-.2-.5-1.2-.8-.3-1.6.2.2.4.3.7.6.3-.3.6-.5.9-.8,0-.1-.2-.3-.3-.4-.5-.8-1.2-.5-1.9-.6-1.1-.1-1.6-.8-1.5-1.9.3,0,.5,0,.6-.4,0,0-.1-.2-.2-.2-.3,0-.4.3-.4.6-.8,0-.5.7-.8,1.1-.4.4-1,0-1.5.2-.4.6-.5,1.5-1.3,1.8-.8-.6-1.2-1.3-1.3-2.5-.2.4-.5.8-.7,1.2-.4.8,1.1,1,.5,1.9,1,0,1.7,0,2.5.1v5.6ZM389.9,86.2c0,.3,0,.5.4.6,0,0,.2-.1.2-.2,0-.3-.3-.4-.6-.4,0-.3,0-.5-.4-.6,0,0-.2.1-.2.2,0,.3.3.4.6.4ZM393.7,39.2c0,.3,0,.5.4.6,0,0,.2-.1.2-.2,0-.3-.3-.4-.6-.4,0-.3,0-.5-.4-.6,0,0-.2.1-.2.2,0,.3.3.4.6.4ZM331.3,69.9c-.3,0-.5,0-.6.4,0,0,.1.2.2.2.3,0,.4-.3.4-.6.3,0,.5,0,.6-.4,0,0-.1-.2-.2-.2-.3,0-.4.3-.4.6ZM397.1,84.2c-.7.2-1.2-.2-1.5.6.5,0,.9.3,1.3-.5.3,0,.5,0,.6-.4,0,0-.1-.2-.2-.2-.3,0-.4.3-.1.5ZM403.1,66.1c0-.3,0-.5-.4-.6,0,0-.2.1-.2.2,0,.3.3.4,1.8.7-.1-.1-.3-.4-.3-.4-.3.2-1-.4-.8.3.1.5.7.5,0-.3ZM345.8,64c-.1-.1-.3-.4-.3-.4-.3.2-1-.4-.8.3.1.5.7.5,0-.3-.2-.4.2-1-.5-1.2-.2.4-.8.5-.8,1.1.4,0,.8,0,2.4.4ZM414.5,73.7c0-.3,0-.5-.4-.6,0,0-.2.1-.2.2,0,.3.3.4.8.3-.6.2-.2.6-.3.9-.1.3-.7.4-.5.8.4.2.8.2,1.1-.1,0-.5.3-1.2-.6-1.6ZM381.1,69.9c0-.3,0-.5-.4-.6,0,0-.2.1-.2.2,0,.3.3.4,1.5-1.5-.6.4,0,1.2-.4,1.7-.3.4-.9.7-1.2,1.4,1.9.1,1.7-1.5,2.5-2.2-.3-.3-.6-.6-1.8,1ZM399.2,56.3c.9,1.1,2.2,1.9,3.2,2.1,0-2.3,0-2.4-3.2-2.1ZM381.8,73.7c-.1,1.4-1.5,1.7-1.7,2.6-.3,1.3-1.6,1.2-2.2,2-.6.7-.7,1.9-1.9,2,.3.3.6.6.9.9.4-.4.9-.8,1.3-1.2,1.4,0,2.7.1,4.1-.3,0,0,.1.2.2.2,0,0,.2,0,.2,0,.6-.4,1.1-.9,1.7-1.2,1.1-.7,2-1.8,3-2.8.7-.7.9-1.3.3-2.2h-5.9ZM364.8,72.6v3.9c.9,1.3,2.8.6,3.2,2,2.6-.8,3.1-3.1,3.8-5.3-.8-.4-1.8.1-2.3-.8-.6.6-1.3.9-2.1.4-.9-1.3,1-.8,1-1.5-.7-.4-1.4-.1-2.1-.2-.5.5-1,1-1.5,1.4ZM351.4,45.3c-1.6,1.5-3.5,2.4-4.3,4.3.3.3.5.5.8.8,1.4-1.1,2.9-1.8,4.6-1.8.3.5,0,1,.7,1.3,0-1.5,1.4-2.7.6-4.3-.5,0-.7.8-1.2.5-.3-.2-.6-.4-1.1-.8ZM387.7,77c1,.5,1.6.8,2.3,1.1.9-1.2,2.4-.4,3.6-.8-.2-.7.6-1,.6-1.3-.7-2.1-2.3-.2-3.4-.9-.8.5-1.3,1.8-3.1,2ZM375.6,75.2c1.5-.8,2.1-2.1,3-3.1,0,0-.1-.1-.2-.2-.9,0-1-.7-1.3-1.3-.5.2-1,.5-1.5.7v3.8ZM401.3,51.9c1.4.6,2.2,2,3.4,2.9.3-2.2-.4-2.8-3.4-2.9ZM363.4,69.3c-.7,0-1.2-.1-1.3.5-.2.6.7.8.6,1.4-.4.8-.8,1.6-1.4,2.9,2.4-1.2,1.9-2.9,2-4.7ZM365.9,38.8c-2.5-.1-3.6.6-3.4,3,.9-1.8,2.5-1.9,3.4-3ZM392,61.2c.8.9-.1,1.8.8,2.4,0-1.2,1.2-1,1.7-1.7.1-.2.7-.3.2-.7h-2.7ZM390.6,81.5c.7,1.3,1.9,1,3,.9.2-.5.2-.8,0-1-.8-.4-1.1.1-1.5.4-.4-.3-.8-1.1-1.6-.3ZM405.8,75.4c-.2,1.1-.3,2-.8,2.7,0,0,.1.3.2.5.9.4,1.2-.5,1.7-.9-1.1-.4-.3-1.5-1.1-2.3ZM347.5,60.2c.5,1.4,1.3,1.9,2.6,1.4.1-1-1.2,0-1.2-.9,0-.9-.5-.9-1.4-.5ZM396.7,80.6c-.5,1.2-1.7.1-2.9,1.5,1.5-1,1.8.8,2.8.2.4-.4.1-1,0-1.7ZM395.5,69.2c-1,.3-2.1-.3-3.1.6,1.2-.6,1.9,1.1,3.1.7v-1.2ZM389.1,42.2c.3-.5.3-1.1,0-1.7-.6.4-1.1.7-1,1.5.3.4.6.4,1,.2ZM412,77.7c.4-.1.8-.3,1.2-.5-.3-.5-.7-.4-.9-.4-.3,0-.3-.8-.8-.5-.5,1,.5,1.2.6,1.3ZM398.6,73.3c-.8-.1-1.6-.7-2.4.2.9.2,1.6.3,2.4-.2ZM391.8,84.1c.6.4,1.2.4,1.7,0,.2-.4.2-.7-.1-1-.5.3-1.1.6-1.6.9ZM360.2,38.6c-.5,1.2-1.4,1.1-2.2,2.2,1.1-.6,1.6,0,2.2-.6v-1.6ZM404.3,56.9c.7.5,1,1.6,2,.7-.5-.4-.8-1.3-2-.7ZM412.3,66.2c.5-.8.4-1.4,0-2.1-.5.7-.4,1.3,0,2.1ZM347.6,53.4c-.2-.6-.5-.9-1-1.1-.3,1.3.1,1.4,1,1.1ZM403.5,76.8c0,0,.2-.1.2-.2,0-.3,0-.6,0-.8-.2-.2-.6-.3-.8-.2-.6.4,0,.6.2.8.1.2.3.3.4.4ZM395.4,40.7c1.7.7,1.5,0,1.3-.8-.5.3-.9.5-1.3.8ZM357.7,71.5c.6.4,1,.6,1.2-.2-.4-.1-.8-.3-1.2.2ZM383,63.9c.4.5.8.5,1.3,0-.4-.5-.8-.5-1.3,0ZM355.6,73.7c-.5.4-.5.8,0,1.3.5-.4.5-.8,0-1.3ZM340.7,63.3c.6.4,1,.6,1.2-.2-.4-.2-.7-.3-1.2.2ZM389,73.6c-.4.6-.6,1,0,1.2.3-.4.3-.7,0-1.2ZM348,68c-.4.6-.6,1,0,1.2.3-.4.3-.7,0-1.2ZM390.5,79.6c-.4-.5-.8-.5-1.3,0,.4.5.8.5,1.3,0ZM413.5,69.3c-.5.4-.5.8,0,1.3.5-.4.5-.8,0-1.3ZM372.2,67.7c.6.4,1,.6,1.2-.1-.4-.3-.7-.3-1.2.1ZM401.2,69.6c0,0-.2-.2-.2-.2-.1,0-.3.1-.4.2,0,0,.2.2.2.2.1,0,.3-.1.4-.2ZM398.4,64.9c0,0-.2.2-.2.2,0,.1.1.3.2.4,0,0,.2-.2.2-.2,0-.1-.1-.3-.2-.4ZM390.8,39.2c0,0-.2.2-.2.2.1,0,.3.2.4.2,0,0,.1-.1.2-.2-.1,0-.3-.2-.4-.2ZM398.5,49.1c0,0,.2-.2.2-.2-.1,0-.3-.2-.4-.2,0,0-.1.1-.2.2.1,0,.3.2.4.2ZM362.4,49.9c0,0-.2.2-.2.2.1,0,.3.2.4.2,0,0,.1-.1.2-.2-.1,0-.3-.2-.4-.2ZM411.6,74.9c0,0-.2.2-.2.2,0,.1.1.3.2.4,0,0,.2-.2.2-.2,0-.1-.1-.3-.2-.4ZM416.9,79.7c0-.1-.1-.3-.2-.4,0,0-.2.2-.2.2,0,.1.1.3.2.4,0,0,.1-.1.2-.2ZM381.9,62.3c.1,0,.3-.1.4-.2,0,0-.2-.2-.2-.2-.1,0-.3.1-.4.2,0,0,.1.1.2.2ZM350.6,64.2c0,0,.2-.2.2-.2-.1,0-.3-.2-.4-.2,0,0-.1.1-.2.2.1,0,.3.2.4.2ZM405.3,66.8c0,0-.2.2-.2.2,0,.1.1.3.2.4,0,0,.2-.2.2-.2,0-.1-.1-.3-.2-.4ZM384.6,68.6c0,0,.2-.2.2-.2-.1,0-.3-.2-.4-.2,0,0-.1.1-.2.2.1,0,.3.2.4.2ZM376.6,104.6c0,0-.2-.2-.2-.2,0,.1-.2.3-.2.4,0,0,.1.1.2.2,0-.1.2-.3.2-.4Z"/>
          <path class="cls-2" d="M415,89.8c-.5.3-1,.7-1.9,1.4h-2.2c-1.2-.3-1.1-2.4-2.7-2.6-.2-1.1-.3-2.2.8-2.9,1.8.9,2.1,3.4,4.4,3.7.2-.2.5-.4.8-.7.2.3.5.6.8,1.1Z"/>
          <path class="cls-2" d="M362.1,31.6c-.3,1.7-2.1.6-2.5,2-.4,1.3-2.2-.5-2.3,1.2-.9-.2-1.3-.7-1.5-1.3.6-1.3,1.9-1.4,2.9-2.2,1.5-1.1,2.3.7,3.3.3Z"/>
          <path class="cls-2" d="M371.8,37.3c-.3-.9-.3-1.6,0-2.4,1.1-.4,1.4.5,1.8,1-.3.8-.6,1.3-1.7,1.4Z"/>
          <path class="cls-2" d="M423.8,75.1c1.2,0,.2-2,1.8-1.3.3.7.3,1.5,0,2.4-.8.2-1.1-.4-1.8-1Z"/>
          <path class="cls-2" d="M409.2,85.1c-1.1-.3-1.7-.7-1.7-1.7q1.9-.4,1.7,1.7Z"/>
          <path class="cls-2" d="M420.8,82.8c0,1.4-1,.9-1.7.9-.3-.4-.4-.9,0-1,.5-.2,1.2-.4,1.7.2Z"/>
          <path class="cls-2" d="M340.8,54.8c.6,0,.8.6,1.2.9-.4.5-.7,1.2-1.6,1-.5-.4-.2-.8-.3-1.2.4,0,.6-.2.6-.6Z"/>
          <path class="cls-2" d="M411.4,59.2v-2.3c.6.9,1.3,1,1.2,1.9-.2.7-.8.3-1.2.4Z"/>
          <path class="cls-2" d="M332.6,77.4c0,.4,0,.8,0,1.1-.6,0-.8-.5-1.1-.8.2-.7.8-.3,1.2-.4Z"/>
          <path class="cls-2" d="M331,59.8c.4.5.4.8.1,1.2-.7-.2-.5-.6-.1-1.2Z"/>
          <path class="cls-2" d="M360.8,30.1c0,0-.2.2-.2.2,0-.1-.2-.3-.2-.4,0,0,.1-.1.2-.2,0,.1.2.3.2.4Z"/>
          <path class="cls-2" d="M362.2,31c-.3,0-.5,0-.6-.4,0,0,.1-.2.2-.2.3,0,.4.3.4.6Z"/>
          <path class="cls-2" d="M362.2,31.6v-.6c.3,0,.6,0,.5.4,0,.1-.3.1-.5.2Z"/>
          <path class="cls-2" d="M357.4,35.5c.1,0,.3.1.4.2,0,0-.2.2-.2.2-.1,0-.3-.1-.4-.2l.2-.2Z"/>
          <path class="cls-2" d="M369.7,37.3c-.3,0-.5,0-.6-.4,0,0,.1-.2.2-.2.3,0,.4.3.4.6Z"/>
          <path class="cls-2" d="M338.5,44.3c.1,0,.3.1.4.2,0,0-.2.2-.2.2-.1,0-.3-.1-.4-.2,0,0,.1-.1.2-.2Z"/>
          <path class="cls-2" d="M339.5,46.7c-.3,0-.5,0-.6-.4,0,0,.1-.2.2-.2.3,0,.4.3.4.6Z"/>
          <path class="cls-2" d="M338.2,51.7c-.3,0-.6,0-.5-.4,0-.1.3-.1.5-.2v.6Z"/>
          <path class="cls-2" d="M348.7,40.3c-.1,0-.3-.1-.4-.2,0,0,.2-.2.2-.2.1,0,.3.1.4.2,0,0-.1.1-.2.2Z"/>
          <path class="cls-2" d="M335.1,57.4c.3,0,.5,0,.6.4,0,0-.1.2-.2.2-.3,0-.4-.3-.4-.6Z"/>
          <path class="cls-2" d="M380.4,82.8c0,0-.2.2-.2.2,0-.1-.2-.3-.2-.4,0,0,.1-.1.2-.2,0,.1.2.3.2.4Z"/>
          <path class="cls-2" d="M328.8,63.6c-.3,0-.5,0-.6-.4,0,0,.1-.2.2-.2.3,0,.4.3.4.6Z"/>
          <path class="cls-2" d="M372.3,83.7c.3,0,.5,0,.6.4,0,0-.1.2-.2.2-.3,0-.4-.3-.4-.6Z"/>
          <path class="cls-2" d="M382.1,84.4c0,0,.2.2.2.2-.1,0-.3.2-.4.2,0,0-.1-.1-.2-.2.1,0,.3-.2.4-.2Z"/>
          <path class="cls-2" d="M359.4,85c0,0,.2.2.2.2-.1,0-.3.2-.4.2,0,0-.1-.1-.2-.2.1,0,.3-.2.4-.2Z"/>
          <path class="cls-2" d="M371.6,86.8c0-.3,0-.5.4-.6,0,0,.2.1.2.2,0,.3-.3.4-.6.4Z"/>
          <path class="cls-2" d="M371.6,86.8c0,.3,0,.5-.4.6,0,0-.2-.1-.2-.2,0-.3.3-.4.6-.4Z"/>
          <path class="cls-2" d="M398,87.2c0,0-.2.2-.2.2,0-.1-.2-.3-.2-.4,0,0,.1-.1.2-.2,0,.1.2.3.2.4Z"/>
          <path class="cls-2" d="M333.7,89.1c0,0-.2.2-.2.2,0-.1-.2-.3-.2-.4,0,0,.1-.1.2-.2,0,.1.2.3.2.4Z"/>
          <path class="cls-2" d="M368.5,88.7c.3,0,.5,0,.6.4,0,0-.1.2-.2.2-.3,0-.4-.3-.4-.6Z"/>
          <path class="cls-2" d="M371.7,89.1c0-.1.1-.3.2-.4,0,0,.2.2.2.2,0,.1-.1.3-.2.4,0,0-.1-.1-.2-.2Z"/>
          <path class="cls-2" d="M405.7,88.7c.3,0,.5,0,.6.4,0,0-.1.2-.2.2-.3,0-.4-.3-.4-.6Z"/>
          <path class="cls-2" d="M324.1,69.8c-.1,0-.3-.1-.4-.2,0,0,.2-.2.2-.2.1,0,.3.1.4.2,0,0-.1.1-.2.2Z"/>
          <path class="cls-2" d="M407.9,89.3c0,.1.2.3.2.4,0,0-.1.1-.2.2,0-.1-.2-.3-.2-.4,0,0,.1-.1.2-.2Z"/>
          <path class="cls-2" d="M348.9,98.8c-.3,0-.5,0-.6-.4,0,0,.1-.2.2-.2.3,0,.4.3.4.6Z"/>
          <path class="cls-2" d="M345.6,99.5c0,0,.2.2.2.2-.1,0-.3.2-.4.2,0,0-.1-.1-.2-.2.1,0,.3-.2.4-.2Z"/>
          <path class="cls-2" d="M385.4,102.9c0,0-.2.2-.2.2,0-.1-.2-.3-.2-.4,0,0,.1-.1.2-.2,0,.1.2.3.2.4Z"/>
          <path class="cls-2" d="M379.8,77.4c.3,0,.5,0,.6.4,0,0-.1.2-.2.2-.3,0-.4-.3-.4-.6Z"/>
          <path class="cls-2" d="M366.9,74.9c-.5-.4-.5-.8,0-1.3.5.4.5.8,0,1.3Z"/>
          <path class="cls-2" d="M368.7,76.1c0,0-.2-.2-.2-.2.1,0,.3-.2.4-.2,0,0,.1.1.2.2-.1,0-.3.2-.4.2Z"/>
          <path class="cls-2" d="M400.6,57.3c0-.3,0-.5.4-.6,0,0,.2.1.2.2,0,.3-.3.4-.6.4Z"/>
        </g>
      </g>
    </g>
  </g>
</svg>