<?xml version="1.0" encoding="UTF-8"?>
<svg xmlns="http://www.w3.org/2000/svg" version="1.1" xmlns:xlink="http://www.w3.org/1999/xlink" viewBox="0 0 2875.9 466.2">
  <defs>
    <style>
      .cls-1 {
        fill: #00954c;
      }

      .cls-2 {
        fill: #00634c;
        stroke-width: 5px;
      }

      .cls-2, .cls-3, .cls-4, .cls-5, .cls-6 {
        stroke-miterlimit: 10;
      }

      .cls-2, .cls-3, .cls-5, .cls-6 {
        stroke: #000;
      }

      .cls-3 {
        fill: #463b25;
      }

      .cls-3, .cls-6 {
        stroke-width: 4px;
      }

      .cls-4 {
        stroke: #c90;
        stroke-width: 24px;
      }

      .cls-4, .cls-7, .cls-8 {
        display: none;
      }

      .cls-9, .cls-5 {
        fill: none;
      }

      .cls-5 {
        stroke-width: 2px;
      }

      .cls-10, .cls-6 {
        fill: #463b25;
      }

      .cls-8 {
        fill: url(#linear-gradient);
      }

      .cls-11 {
        fill: #c90;
      }
    </style>
    <linearGradient id="linear-gradient" x1="1027.4" y1="186.9" x2="1023.5" y2="939.8" gradientTransform="translate(0 -362.9)" gradientUnits="userSpaceOnUse">
      <stop offset="0" stop-color="#b1dae0"/>
      <stop offset="0" stop-color="#b5cdc0"/>
      <stop offset="0" stop-color="#b9bf9d"/>
      <stop offset="0" stop-color="#beb27e"/>
      <stop offset=".2" stop-color="#c1a966"/>
      <stop offset=".2" stop-color="#c3a153"/>
      <stop offset=".3" stop-color="#c59c46"/>
      <stop offset=".3" stop-color="#c6983e"/>
      <stop offset=".5" stop-color="#c7983c"/>
      <stop offset="1" stop-color="#bf7c26"/>
    </linearGradient>
  </defs>
  <!-- Generator: Adobe Illustrator 28.7.4, SVG Export Plug-In . SVG Version: 1.2.0 Build 166)  -->
  <g>
    <g id="Layer_1">
      <g id="Layer_1-2" data-name="Layer_1" class="cls-7">
        <g>
          <path class="cls-3" d="M173.9,374.4c-94.6,0-155.9-61.8-155.9-155.1S79.3,64.2,173.9,64.2s156,61.8,156,155.1-61.3,155.1-155.9,155.1h0ZM173.9,85.8c-43.2,0-69.6,24.6-69.6,133.5s26.4,133.5,69.6,133.5,69.6-24.6,69.6-133.5-26.4-133.5-69.6-133.5h0Z"/>
          <path class="cls-3" d="M350.2,350.2c20.3-.4,26.4-11.2,35-35l75.6-212.1-10.4-34.6c11.2,1.3,22.9,2.6,34.6,2.6s28.1-1.3,42.3-2.6c1.7,19,59.6,181.9,84.2,250.6,7.8,21.6,11.7,29.4,33.7,31.1v19.9c-11.7-1.7-36.7-2.6-67.8-2.6s-65.7.4-76,2.6v-19.9c24.2,0,35.4-4.8,35.4-14.7s-8.2-25.9-19-57.9h-93.8c-11.2,34.1-19.4,52.7-19.4,57.5,0,11.2,8.2,14.7,25.9,15.1v19.9c-7.8-2.2-22.5-2.6-40.2-2.6s-32.4.4-40.2,2.6v-19.9h0ZM509.6,255.1l-37.6-116.6h-.9c-2.6,9.1-4.8,18.1-10.4,34.1l-28.9,82.5h77.8,0Z"/>
          <path class="cls-3" d="M779.6,320.8c0,24.2,3.9,28.9,37.2,29.4v19.9c-19.4-1.7-44.5-2.6-76-2.6s-57.5.9-76.9,2.6v-19.9c35-.4,38.9-5.2,38.9-29.4V117.8c0-24.2-3.9-28.9-38-29.4v-19.9c18.6,1.7,43.6,2.6,76,2.6s60.9-.9,77.8-2.6v19.9c-35,.4-38.9,5.2-38.9,29.4v97.2l97.2-97.2c9.1-9.1,10.4-13.4,10.4-18.6,0-8.6-7.8-10.8-23.8-10.8v-19.9c16.4,1.3,33.3,2.6,49.7,2.6s44.5-1.3,66.5-2.6v19.9c-39.3,2.2-66.5,24.6-89,47.1l-51.4,51.4,114,130.5c15.1,17.3,27.7,30.2,57.5,32.8v19.9c-18.6-1.7-45.4-2.6-77.8-2.6s-57.5.9-80.8,2.6v-19.9c13,0,21.2-1.7,21.2-9.5s-6.9-12.1-15.5-22.5l-69.1-80.8-9.1,6.9v76.5h0Z"/>
          <path class="cls-3" d="M1246.6,146.3c-6.1-.4-12.5-.9-19-.9s-12.5.4-19,.9c-6.5-34.1-32-60.5-70.8-60.5s-53.6,15.1-53.6,43.6c0,66.1,182.7,28.9,182.7,149s-52.3,95.9-123.1,95.9-87.3-10.8-124.8-27.2l-1.7-65.7c6.5.9,13.4,1.7,19.9,1.7s13-.9,19.4-1.7c11.2,48,38.4,71.3,87.7,71.3s59.6-21.2,59.6-42.8c0-74.7-180.2-35.4-180.2-155.1s60.1-90.7,116.6-90.7,70,8.6,103.2,23.3l3,58.8h0Z"/>
          <path class="cls-3" d="M1555.9,88.4c-24.2,1.3-33.3,6.5-33.3,18.6s2.2,10.4,7.8,25.1l67.4,173.2h.9l63.9-171.1c4.8-13,7.3-21.6,7.3-30.7s-6.5-13-29.4-15.1v-19.9c13.8,1.3,27.2,2.6,41.5,2.6s31.5-1.3,47.5-2.6v19.9c-23.8,4.3-30.2,16-37.2,33.3l-82.5,214.3,11.7,34.1c-11.2-1.7-24.6-2.6-41-2.6s-27.2.9-36.7,2.6l-95.9-243.2c-8.6-22.5-16.4-35.9-38-38.4v-19.9c22.5,1.3,44.9,2.6,67.8,2.6s52.3-1.3,78.2-2.6v19.9h0Z"/>
          <path class="cls-3" d="M1713.1,170.5c34.6-.9,67.8-6.1,100.7-10.4-1.3,23.3-1.7,46.2-1.7,69.6v89c0,27.6,3.5,33.7,31.1,34.1v17.3c-20.7-1.3-41-2.6-78.2-2.6s-36.7,1.3-51.8,2.6v-17.3c30.7-.4,34.1-6.5,34.1-34.1v-96.8c0-27.6-3.5-33.7-34.1-34.1v-17.3h0ZM1818.1,94.9c0,20.7-16.4,38.5-38.4,38.5s-38.4-17.7-38.4-38.4,16.4-38.5,38.4-38.5,38.4,17.7,38.4,38.4Z"/>
          <path class="cls-3" d="M1857,352.8c30.7-.4,34.1-6.5,34.1-34.1V100.1c0-27.7-3.5-33.7-34.1-34.1v-17.3c34.6-.9,67.8-6,100.7-10.4-1.3,23.3-1.7,46.2-1.7,69.6v210.8c0,27.6,3.5,33.7,31.1,34.1v17.3c-20.7-1.3-41-2.6-78.2-2.6s-36.7,1.3-51.8,2.6v-17.3h0Z"/>
          <path class="cls-3" d="M2000.8,352.8c30.7-.4,34.1-6.5,34.1-34.1V100.1c0-27.7-3.5-33.7-34.1-34.1v-17.3c34.6-.9,67.8-6,100.7-10.4-1.3,23.3-1.7,46.2-1.7,69.6v210.8c0,27.6,3.5,33.7,31.1,34.1v17.3c-20.7-1.3-41-2.6-78.2-2.6s-36.7,1.3-51.8,2.6v-17.3h0Z"/>
          <path class="cls-3" d="M2383.6,350.6c-13.8,8.2-38.9,22.9-55.3,22.9s-32.8-18.1-41.9-33.7l-35,27.6c-3,1.3-23.8,6-37.6,6-33.7,0-63.9-11.7-63.9-51s92.4-76.5,136.5-83.4v-11.7c0-36.3-14.3-48.4-35.4-48.4s-35.9,21.6-38.4,51.8c-7.8-.4-16-2.2-23.8-2.2s-16,1.7-23.8,2.2l3-44.9c25.1-19,57-25.9,87.7-25.9,56.6,0,93.8,25.9,93.8,79.5s-.9,63.1-.9,85.1,4.3,16,9.5,16,13.8-3.9,19.9-6l5.6,16h0ZM2286.8,257.3c-31.5,6.9-68.7,19.4-68.7,54.4s11.7,27.2,31.1,27.2,26.8-8.6,36.3-14.3l1.3-67.4h0Z"/>
          <path class="cls-3" d="M2631.6,199c-3.5-.9-7.8-1.7-11.7-1.7s-8.2.9-11.7,1.7c-.4-9.9-5.2-16.4-12.5-16.4s-9.1,3.5-15.6,7.8c10.4,10.8,17.7,24.2,17.7,39.7,0,47.5-44.5,67.8-93.8,67.8s-24.2-1.3-33.3-3c-3.9,5.6-15.6,15.5-15.6,22.9s9.1,7.8,27.2,7.8c101.9,0,135.2,12.1,135.2,60s-27.6,78.6-132.6,78.6-89-28.1-89-46.7,27.2-34.6,40.6-41.9c-13-4.3-28.9-13-28.9-29.8s10.4-24.2,45.8-55.3c-26.8-10.8-44.9-29.8-44.9-60.1,0-50.1,50.1-70.4,92.9-70.4s42.8,3,67,19c15.1-12.1,34.1-21.6,43.6-21.6s13.8,4.3,17.3,9.5l2.2,32h0ZM2454.9,379.6c-6.5,10.8-11.2,19.4-11.2,27.6,0,19,31.1,30.2,65.7,30.2s83.4-15.5,83.4-32.8-6.9-16-31.5-17.7l-106.3-7.3h0ZM2498.5,176.9c-16.4,0-30.2,16.9-30.2,35.4,0,48,17.3,69.1,39.7,69.1s30.2-16.9,30.2-35.4c0-47.9-17.3-69.1-39.7-69.1h0Z"/>
          <path class="cls-6" d="M2714.1,258.2c4.3,47.1,32.4,78.2,73,78.2s47.5-16,62.2-30.2l11.7,10.4c-27.6,34.6-63.9,57-109.3,57s-105.8-36.3-105.8-101.5,50.5-111.9,114.5-111.9,95.5,36.3,96.8,96.3l-143,1.7h0ZM2788.8,238.7c-2.6-45.8-13.4-59.6-35.9-59.6s-35.9,20.7-41.5,58.8l77.3.9h0Z"/>
        </g>
      </g>
      <g id="Layer_2" class="cls-7">
        <g id="Layer_21" class="cls-7">
          <polygon class="cls-5" points="1018 -1292.3 81.7 154.5 1973.7 153.2 1018 -1292.3"/>
        </g>
        <g id="Layer_11" class="cls-7">
          <path class="cls-4" d="M2055.5-611.3c-1.3,522.8-459.9,946.6-1027.2,946.6S1.1-88.5,1.1-611.3s459.9-947.4,1027.2-946.6c567.5.8,1028.5,429.3,1027.2,946.6h0Z"/>
          <path class="cls-8" d="M1028.3,793.5c685.9,0,1243.8-498.8,1274.4-1124.2H-246.3C-217,294.7,342.4,793.5,1028.3,793.5Z"/>
          <g id="Pinapple_House" class="cls-7">
            <g id="House">
              <path class="cls-11" d="M1189.1-970.2c4.7-7.1,17.4-17.8,26.8-21.8-13.7-9.9-16.1-11.3-29.7-21.3-6.4,9.6-12.2,18.1-18.3,27.9,10.2,7.5,11,7.7,21.2,15.2h0Z"/>
              <path class="cls-11" d="M962.8-1038.9c9.9-7.2,12.7-10.2,22.6-17.4-.5-13.7-1.6-25.6-2.5-39.3-22.7,16.5-32.1,23.4-54.8,39.9,5.9,10.1,11,20,16.1,30.6,8.2-6,10.5-7.8,18.7-13.8h0Z"/>
              <path class="cls-11" d="M861.2-963.8c10.7-7.8,10.5-8.7,21.2-16.6-6.2-9.9-13.4-19.1-19.8-28.8-.4.3-14.9,10.6-27.9,20,12.4,5.9,24.8,20.2,26.5,25.4h0Z"/>
              <path class="cls-11" d="M865.5-189.9c-4.7-6.1-9.1,4.6-15.1,8.8-5.2,4.5-9.1,9.3-14.4,13.6s-6.3,3.4-9.3,3.4c-60.1,0-118.4-.3-178.5,0-5.5,0-6.5-1.7-6.4-6.8,0-209.8,0-419.6,0-629.4,0-3.5,1-5.7,3.8-7.7,20.9-15,41.7-30.2,62.4-45.3,40.4-29.4,73.8-52.4,114.2-81.9-14-6.3-28.1-9.9-42.5-13-17.4,12.6-28,19.3-45.4,32-41.2,30-82.4,60.1-123.7,89.9-3.2,2.3-4.1,4.7-4.1,8.5,0,113.7,0,227.5,0,341.2V-134.3c0,3.8.5,5.3,4.9,5.3,79.8-.2,155.4.2,235.3-.3,5.2,0,7.1-2.4,9.1-4.3,7.1-7,11.1-11,17.6-17.3s13.4-11.6,11.3-14.1c-7.3-8.6-12.4-16-19.3-25h0q0,.1,0,.1Z"/>
              <path class="cls-11" d="M1066.4-1099.2c-.9,13.7-2.2,24.9-3,38.5,19.3,14,26.5,18.5,45.8,32.6,2.8-5.8,4.8-10.9,7.9-16.6,2.4-4.5,4.4-8.8,6.8-13.3-23.9-17.4-33.6-23.8-57.5-41.2h0Z"/>
              <path class="cls-11" d="M1449.8-268.1c0-182.6,0-365.3,0-547.9,0-5.2-1.4-8.5-5.7-11.7-36.6-26.3-72.9-52.9-109.4-79.3-22.3-16.2-37.7-26.9-59.9-43.1-14.9,2.5-30.4,5.5-44.8,10.3,13.3,9.7,20.7,14.9,34,24.6,48.5,35.4,97,70.8,145.6,106,3.6,2.6,5.2,5.1,5.2,9.7,0,209.6,0,419.2,0,628.8,0,5.2-1.5,6.3-6.4,6.3-58.7-.1-117.4-.1-176.1.2-7.2,0-12.1-3-16.4-7.6-6.2-6.7-13.3-12.4-19.8-18.7-2.2-2.2-3.6-1.6-5.2.6-6.1,8-12.1,16-18.4,23.8-1.9,2.3-1.3,3.6.5,5.3,9.5,9.3,19,18.5,28.4,27.9,2.6,2.6,5.4,3.6,9.1,3.6,77.6,0,155.3,0,232.9.2,4.9,0,6.4-1.1,6.4-6.2-.2-44.3-.2-88.6-.2-132.9h0q0,.1,0,.1Z"/>
            </g>
            <g id="Pinapple_Body">
              <path class="cls-11" d="M1032.1-698.1c2.3.3,2.9,2,3.8,3.4,15.2,25.1,30.6,50,49.7,72.5,2.2,2.6,1.3,4.5-.3,6.8-18,26.3-36.6,52.2-58,75.9-3.1,3.4-5.1,3.4-8.2.3-20.6-20.6-38.6-43.4-56.6-66.1-2.3-3-2.4-5.3,0-8.3,20.3-26.4,40.3-53,62-78.3,2.2-2.5,4.7-5,7.8-6.1h-.2q0,0,0-.1Z"/>
              <path class="cls-11" d="M929.9-440.1c-3.4-.6-5.4-3.1-7.6-5.3-10.3-10.1-17.7-22.2-25.1-34.4-8.8-14.3-16-29.5-23.4-44.6-2-4.2-2.2-6.8,1.9-10.1,18.3-15,35.3-31.4,50.8-49.3,4-4.7,6-4.1,9.4.5,15.9,21.1,32.1,42.1,51.2,60.5,2.5,2.4,3,4.3,1.3,7.3-14,24.8-28.8,49.1-49.4,69.2-2.6,2.5-5.4,5.1-9.1,6.1h0q0,.1,0,0Z"/>
              <path class="cls-11" d="M1019-485.9c6.9,10.1,13.2,19.5,19.6,28.8,9.4,13.6,19.9,26.3,32.4,37.3,3,2.7,4.6,5,2.6,9.4-7.7,16.8-16.3,33.2-26.8,48.4-4.5,6.6-10.3,12-16.2,17.2-5.5,4.8-11.5,5.6-18.1,1.9-13.5-7.7-23-19.4-32.4-31.2-7.5-9.4-13.7-19.6-20-29.7-1.8-2.9-2.8-5.2.6-8,23.8-19.8,40.4-45.3,56.5-71.3.4-.7.9-1.4,1.9-2.8h0Z"/>
              <path class="cls-11" d="M1105.5-580.4c7.4,15.6,19.6,27.8,30,41.3,6.7,8.8,14.2,17.1,22.9,24.1,2.8,2.3,3.9,4.4,2,8-12.5,23.1-25.9,45.5-44.7,64.2-.4.4-.8.8-1.2,1.2-10.7,9.7-12.7,9.8-22.4-1.3-15.8-18.1-28.1-38.6-39.9-59.4-1.4-2.5-2.7-4.8,0-7.6,20-20.9,35-45.5,51.2-69.2.3-.4.9-.5,2.2-1.3h0Z"/>
              <path class="cls-11" d="M1186.7-479c23.5,18,42.5,39.9,64.5,58.6,1.8,1.5,5.9,2.7,3,6.5-14,18.2-29.1,35.3-52.2,42.1-18,5.3-34.3,0-48.5-11.7-6.4-5.3-11.4-11.9-16.8-18-3.5-3.9-2.5-6.2.2-10.1,14.9-21.1,29.6-42.3,46.8-61.6,1.7-1.9.8-4.4,3-5.7h0q0-.1,0,0Z"/>
              <path class="cls-11" d="M837.8-492.9c3.4.1,3.3,2.7,4.1,4.3,12.2,23.4,24.9,46.5,42.6,66.4,9.7,10.9,9.7,11.1.3,22.3-9,10.7-18.1,21.2-28.2,30.9-4.6,4.4-8,4.5-13.2.9-23-15.7-37.2-38-47.6-63.2-1.5-3.7-2.5-7.6-4.1-11.2-2.4-5.3-1.3-8.4,3.8-11.8,14.3-9.5,25.6-22.5,37.6-34.6,1.6-1.6,3.3-3,4.6-4.2v.2q0,0,.1,0Z"/>
              <path class="cls-11" d="M1107.9-271.4c-3.4-.2-6.4-1.8-9.2-3.8-15.4-10.6-27.4-24.6-39.2-38.9-2.6-3.1-1.8-5.2.2-8.2,12.4-17.7,25-35.2,38.1-52.4,4.9-6.4,8.8-5.7,13.8-1.1,13.8,12.6,27.6,25.2,41.5,37.9,10.2,9.4,10.4,9.4,4.1,22.1-7.3,14.6-16.2,27.9-30,37.2-5.8,3.9-12.1,6.3-19.1,7.3h-.2q0-.1,0-.1Z"/>
              <path class="cls-11" d="M922.2-388.7c2.4.4,2.9,2.1,3.8,3.5,15.1,23.4,31.4,45.8,54.4,62.3,2.6,1.9,2.9,3.7.6,6.2-13.2,14.7-25.6,30.3-42.7,41-4.2,2.6-7.9,4.9-13,.7-19-16.1-35.8-34.1-49.5-54.9-2.2-3.4-2.8-5.4.7-8.5,15-13.1,27.9-28.3,40.1-44.1,1.7-2.2,3.7-4.2,5.5-6.2h.1Z"/>
              <path class="cls-11" d="M1165.4-723.5c-.7,1.2-1.2,2.2-1.9,3.1-15.8,20.1-30.6,41-49.5,58.5-4.2,3.9-6.6,4.6-10.9-.2-15.6-17.7-31.3-35.3-45-54.5-3.1-4.4-3-6.9,1.4-10.4,11.2-8.8,22.3-17.6,34.2-25.4,14.4-9.6,26.1-7.9,41.8,1.3,10.3,6,18.6,14.9,26.6,23.8,1.1,1.2,2.1,2.6,3.2,3.9h0q0,0,0,0Z"/>
              <path class="cls-11" d="M1183.1-551c-1.9-1.4-3.6-2.5-5-3.8-17.8-17.4-32.9-36.9-46.9-57.3-2-2.9-2-5,.2-7.5,10.5-12,21-23.9,31.2-36,3.4-4,5.9-3.4,9.8-.5,19,14.5,39,27.6,59.1,40.4,3.2,2.1,5.5,3.1,2.3,7.5-14,19.8-30.6,37.2-47.4,54.6-.9,1-2.1,1.7-3.3,2.6h0Z"/>
              <path class="cls-11" d="M907.4-732.2c-3.1-11.7,3.6-17.8,12.8-22.2,6.9-3.3,14.2-5.8,21.3-8.7,3.6-1.5,6.6-.3,9.4,2,14.9,12.6,27.1,27.6,38.8,43.1,2.6,3.5,1.1,5.5-1.1,8.1-18,20.3-37.1,39.4-56.1,58.7-5.2,5.3-6.1,0-7.4-3.1-8.2-18.7-12.4-38.4-15.4-58.5-1-6.5-1.5-13-2.3-19.5h0Z"/>
              <path class="cls-11" d="M1259.1-589.8c12.4,44.8,13.9,88.2,6.2,133.4-26.8-17.1-50.3-36.3-68.3-61.7-2.6-3.7,0-5.7,1.9-8,11.6-13.6,25.7-24.7,37.6-38.2,7-8,14.4-15.8,22.6-25.4h0q0,0,0,0Z"/>
              <path class="cls-11" d="M907.1-614.7c-1,1.2-2,2.5-3.1,3.7-16.2,16.9-35,30.6-53.5,44.9-3.1,2.4-4.8,2.1-6.7-1.1-11.8-20.9-19.5-43.5-27.6-65.9-1-2.8.3-3.9,2.7-5.2,14.5-7.9,28.9-15.9,43.2-24,4-2.2,7.7-2.4,10.9.9,12.9,13.3,23.2,28.5,33.1,44.1.4.7.6,1.6,1,2.8v-.2h0Z"/>
              <path class="cls-11" d="M1020.3-305.3c14.7,19.6,28.6,38.4,47.2,52.9,3,2.3,2.1,4.1,0,6.2-10.1,10.4-20.1,21.1-32.9,28.2-10.8,5.9-22.2,4.5-32.9-.3-13-5.8-23.2-15.2-32.1-26.2-1.7-2.1-3.4-3.8-.2-6.1,20.3-14.7,35.2-34.5,50.9-54.7h0Z"/>
              <path class="cls-11" d="M791.7-600.6c10.5,25.5,21.4,48,35.2,69,1.9,2.9,2.1,4.6-.6,7.1-14.3,13.5-28.7,26.7-45.9,39.5,1-39,4.8-76.3,11.4-115.6h-.1Z"/>
              <path class="cls-11" d="M1252.8-361.9c-4.7,26.9-12.9,50.1-29.1,70-2.9,3.5-4.7,3.1-6.9-.7-7.2-13-13.6-26.2-15.3-41.3-.5-4.3.2-6.7,4.9-8.2,15.4-4.8,30.3-11.1,46.4-19.8Z"/>
              <path class="cls-11" d="M1077.1-772.5c-16.4,7.1-29.2,18.3-44.5,25.4-2.3,1.1-4.1,2.7-7,1.1-14.2-8.2-29.4-15-41.4-26.8,19.8-15.1,68.6-14.7,92.8.3h0Z"/>
              <path class="cls-11" d="M838-301.5c3.4.2,5.3,2,7.5,3.3,14.2,8.7,25.2,21.1,37.2,32.3,2.1,1.9,4.1,3.9,6.3,5.7,6.8,5.9,6.4,11.4-1.2,16.6-12.7,8.7-12.6,8.6-24.7-1.7-12.6-10.8-23.6-23-33.6-36.2-1.7-2.2-4.2-4.5-1.8-7.5,3.5-4.2,5.6-9.8,10.2-12.6h0Z"/>
              <path class="cls-11" d="M1197.5-258c-1.5,1.6-2.8,3.1-4.2,4.5-11.7,11.8-25,21.4-39.8,29-6.2,3.2-10,2.4-14.1-3.4-7.2-10-7.5-9.7,2.5-17.3,12.2-9.1,21.4-21.2,31.4-32.4,5.2-5.8,7.9-5.3,11.5,1.3,2.7,5,6.4,9.4,9.7,14,1,1.4,1.9,2.7,3,4.3h0Z"/>
              <path class="cls-11" d="M1244.5-646.7c-19.4-10.5-38.8-21.1-58.3-31.5-2.9-1.5-3-3.9-2.9-6.5.3-8,1.9-15.8,3.3-23.6,1.1-5.6,3.7-5.6,7.7-3.3,5.5,3.1,10.1,7.3,14.4,11.8,14.8,15.3,28.5,31.5,37.3,51.2-.5.6-1,1.2-1.5,1.9h0Z"/>
              <path class="cls-11" d="M817.4-672.2c12.5-29.9,37.4-46.4,62.3-63.3-3.6,11.6-10.2,22.3-11.4,34.2-1,9.4-6,13-13.7,15.6-12.5,4.3-24.8,9-37.2,13.5h0Z"/>
              <path class="cls-11" d="M789.5-380.6c14.1,12,26.6,21.9,38.2,32.6,9,8.3,8.3,15.6-.5,23.9-13.4,12.8-16.1,12.3-23.6-5-6.8-15.7-9.8-32.4-14.1-51.6h0q0,.1,0,.1Z"/>
              <path class="cls-11" d="M1067.8-199.7c10.6-11.2,19.8-20.5,27.6-31,2.5-3.4,5.3-3.2,7.5.2,3.8,6,7.2,12.3,10.8,18.3,2.2,3.7.2,5.5-3,6.1-13.4,2.3-26.6,5.5-42.9,6.4Z"/>
              <path class="cls-11" d="M956.5-201.9c-11.9-3.4-23.8-6.9-35.8-10.1s-6.1-4.1-3.2-9c7.2-12.5,7-12.6,18-3.1,7.7,6.7,15.7,13,21.1,22.2h0Z"/>
            </g>
            <g id="Leaves">
              <path class="cls-1" d="M1026.3-1422.1c8,10.9,7,23.5,9.6,35,5.1,22.7,8.5,45.7,11.7,68.8,4.7,33.3,9.1,66.5,10.5,100,1.5,35.2,3.8,70.4,1.2,105.8-1.6,22.1-2.2,44.3-3.9,66.4-1.3,17.6-3,35.1-6.2,52.4-2.7,14.5-3.6,29.3-7,43.8-2.4,10.1-7.1,14.9-16.4,17.6-13.2,3.8-14.3,3.3-16.5-10.3-3.7-22.2-8-44.2-11.4-66.4-2.4-15.7-4.8-31.6-5.2-47.4-.8-27-3.6-53.9-4.7-80.9-1.4-31.1-.2-62.1,1.3-93,1.8-38,6-76,13.9-113.3,4.8-22.7,9.6-45.6,17.1-67.7,1.3-3.8,3.2-7.2,6.2-10.6l-.2-.2h0Z"/>
              <path class="cls-1" d="M670.1-1219.1c23.9,5,48.8,8.1,72.5,16.7,23,8.4,45.5,17.6,66.6,30.2,32.3,19.4,59.1,44.7,82,74.3,26.4,34.1,46.4,72,62.6,111.8,7,17.1,12.1,34.9,18.2,52.3,1.5,4.2.9,7.8-1.4,11.4-6.2,9.9-12.2,19.9-18.6,29.6-4.8,7.3-6.8,7.3-11.2-.4-10.3-18-19.7-36.5-30.2-54.3-21-35.4-43.1-70-67.3-103.5-22.3-30.9-46.1-60.6-72.9-87.6-30.3-30.5-62.8-58.3-103-75.6-1.5-.6-3.9-.7-3.2-3,.7-2.5,3.3-1.6,5.7-1.9h.2Z"/>
              <path class="cls-1" d="M1392.3-1218.7c-5.9,5.2-11.4,7.4-16.7,9.7-20.4,9-37.8,22.5-55.5,35.8-21.9,16.4-42.1,34.6-60.1,55.1-22,25.1-43.2,50.9-62.8,78-17.3,24-32.6,49.1-47.9,74.2-7.5,12.2-14.4,24.9-21,37.7-6.8,13-13,26.4-20.2,39.2-2.1,3.7-4,3.4-6.1,0-5.4-8.6-10.3-17.7-16.6-25.6-7.6-9.6-7.3-19-3.4-29.9,11.8-33.2,25.1-65.7,41.6-96.8,8.2-15.5,16.4-31.3,27-45.2,37.4-49,82.3-88.9,141.4-110.1,26.8-9.6,54.4-16.6,82.4-21.7,5.2-1,10.7,0,18.1,0l-.2-.3h0Z"/>
              <path class="cls-1" d="M941.1-1095.6c-12.2-17.5-21-34.7-30.8-51.3-8.2-13.9-16.3-27.9-23.9-42.2-6.2-11.6-14.2-21.9-22.4-31.9-18.8-23.1-36.8-46.9-58.9-67.1-5.2-4.8-10.2-9.8-15.4-14.7-1-1-2.5-1.8-2.1-3.4.6-2.1,2.7-2,4.3-1.8,10.3,1.2,19.6,5.5,28.8,9.7,24.9,11.4,48.5,25.2,69.8,42.5,12,9.8,23.3,20.8,34.3,31.7,4.6,4.6,5.4,11.4,5.2,17.7-.8,33.5,5.7,66.2,11.5,99,.4,2.2.6,4.5.7,6.8,0,1-.4,2-1.1,5h0Z"/>
              <path class="cls-1" d="M1107.5-1097.7c0-13,3.3-25.6,5.2-38.2,3.2-21.3,7.5-42.7,6-64.3-1-13.9,5.4-22.9,14.3-31.9,19.7-20,41.6-37.2,65.9-50.9,17.2-9.7,35.1-18.7,54.2-24.3,2.5-.7,6.2-2.3,7.7.6,1.3,2.5-2,4.4-3.7,6-14.2,13.5-27.6,27.8-40.7,42.3-21.9,24.2-42.2,49.5-58.6,77.8-15.6,26.8-29.2,54.7-46.7,80.4-.7,1.1-1,2.7-3.6,2.5h0Z"/>
              <path class="cls-1" d="M1026.3-808.6c-3.2,0-4.8-1.3-6.6-3-11.9-11.4-24.4-22.1-37.6-31.9-10.1-7.4-10.6-10.4-1.9-18.9,14-13.6,27.6-27.6,40.6-42.1,3.2-3.6,6.7-3.9,10.3-.4,16,15.3,30.4,32.2,47.4,46.5,2.7,2.3,3.2,5.5.3,8.2-15.6,14.5-32.6,27.1-49.2,40.4-1,.8-2.6,1-3.2,1.3h0c0,0,0,0,0,0Z"/>
              <path class="cls-1" d="M715.6-959.3c4.5-11.6,14.9-13.8,22.9-18.3,17.8-10,36.8-16.6,58-16,24.8.7,43.2,12.3,58.1,30.7,7.9,9.8,13.8,20.8,18.1,32.6.8,2.1,1.9,4.6.4,6.5-2.1,2.8-4-.4-5.9-1-13.2-3.6-24.2-11.8-37-16.6-31.2-11.7-63.1-18.6-96.5-18-5.7,0-11.3,0-18.2,0h0q0,0,0,0Z"/>
              <path class="cls-1" d="M1171-921.3c2.4-14.1,7.7-24.1,13.8-32.9,8.8-12.7,19-24.8,33.5-31.9,16.5-8,33.7-9.1,51.5-5.4,21.7,4.4,52,20,64.3,34.1-58.4-6.3-111.2,9.1-163.1,36.1h0Z"/>
            </g>
          </g>
          <rect class="cls-9" x="10.5" y="-12.5" width="2382.8" height="501.7"/>
          <g id="BRUCE_CARTA" class="cls-7">
            <path class="cls-2" d="M1713.6,220.7v-101.5c0-24.1-2.9-27.5-22-29.9-6-.7-10.5-9.8-7.9-17.4,1.1-3.3,3.4-2.6,5.4-2.7,9.8,0,19.6,1.1,29.3,1.3,25.8.6,51.7.3,77.5.4,16.9,0,33.8,1,50.4,6.9,11.5,4.1,21.8,11,30.2,22.5,7.7,10.6,11.4,24.1,12.1,38.4.7,15.1,1.7,30.6-3.7,45.2-4.2,11.4-10.1,20.1-17.9,26.7-6.3,5.3-13.2,8.7-20.2,11.9-4.3,1.9-5.3,6.4-2.7,11.5,7,13.8,13.8,27.8,20.8,41.6,9.2,18.3,19.2,35.6,30.6,51.6,7.2,10,15.5,16.4,25.4,19.7,4.4,1.5,6.1,8.1,5.1,17-.7,6.4-4.1,5.1-6.9,4.8-22-2.3-44-.9-66-2.5-6-.4-7.4-7.3-9.9-11.6-7.9-13.6-14.6-28.4-21.9-42.5-12.6-24.1-24.3-49-36.2-73.7-3.2-6.6-8.3-2.7-12.5-2.7s-2.4,5-2.4,8v76.1c0,4.8.6,9.7,1.1,14.5.8,6.6,4,10,8.6,11.7,5,1.9,10.1,1,15.1,2,5.4,1.1,6.7,5.4,5.4,15.9-.9,6.8-4.3,4.7-7.4,4.1-2.6-.5-5.3-.4-7.9-.5-17.1-.5-34.3-1.5-51.4-1.3-11.8,0-23.7,1.8-35.5,2.4-17.3,1-34.6-1.6-51.9-2.2-11.3-.4-22.6-.7-33.9.2-10.5.9-21.1,1-31.6,1.5-2.2.1-3-1.6-3.6-4-2.1-7.8.8-14,6.8-15.6,4.2-1.1,8.7-.6,12.8-2.9,5.8-3.3,7.4-8.9,5.9-17.1-2.7-14.7-7.4-28.4-11.2-42.5-1.5-5.8-3.9-8.4-8.7-8.3-17.7.4-35.5.6-53.2-.1-5.6-.2-8.7,3.1-10.3,8.8-3.9,14.1-7.6,28.3-10.6,42.8-2.4,11.4,1.3,17.2,10.1,18.4,6.9.9,10.4,9.8,7.4,18.4-.9,2.5-2.2,2-3.8,1.9-16.9-1.4-33.8-2.5-50.7-.1-3.2.4-4-.9-4-4.8s-.5-5.1-.7-7.6c-.2-3.5.5-6.1,3.4-6.7,10.6-2.4,16.2-12.2,19.6-24.8,7.2-27.1,13.7-54.6,21.4-81.5,3.2-11.1,6-22.5,9.3-33.6,3-10.4,5.3-21.2,8.2-31.7,3.6-13.1,6.8-26.4,10.1-39.6,2.6-10.3,5.7-20.5,7.8-31.1,1.7-9.1-2-17.5-4-25.8-2.8-11.7-3.1-12.5,5.6-11,14.5,2.6,28.9,0,43.4-.4,4.2,0,6.1,1.9,7.1,7.3,3.4,19.4,8.7,38,13,57.1,7.3,31.7,15.7,62.8,23.5,94.2,6.2,24.9,13.3,49.3,19.6,74.1,1.7,6.5,3.7,12.8,5.2,19.4,5.5,25.2,17.7,28.9,32.7,27.3,3.4-.4,6.8-.6,10-1.9,7.7-3.1,10.6-8.7,10.6-20.7,0-35.1,0-70.2,0-105.3h0,0ZM1770.1,152.8h0v51.5c0,5.5,1.3,7.8,5.5,7.9,6.4.2,12.9.2,19.1-1.9,13.7-4.6,25.4-13.2,32-31.8,5.4-15.3,4.3-31,1.9-46.5-3.1-19.4-13-30.4-26.7-35.6-8.7-3.2-17.5-2.5-26.4-2.9-4.3-.2-5.5,2.2-5.5,7.7.2,17.2,0,34.3,0,51.5h0ZM1556.7,140.6c-4.5,10.6-5.1,20.7-7.6,30-6.8,25.1-13.1,50.5-19.8,75.7-1.6,6-.3,7.7,4.2,7.6,14.7-.2,29.4,0,44.1,0s6.6-1.2,4.5-9.1c-7.3-26.9-13.1-54.4-19.4-81.7-1.6-7-3.7-13.8-6-22.5h0Z"/>
            <path class="cls-2" d="M409.5,285.3c0,12.6.5,25.2-.1,37.7-.7,15.1,6.1,24.1,17.4,24.7,2.4.1,4.9-.1,7.3.2,5.4.6,7.2,4.3,6.5,12.2-.7,7.7-2.5,9.5-8.4,8.2-7.1-1.5-14.3-.4-21.4-.9-22.8-1.6-45.5-.3-68.3.3-4.3.1-8.6.8-12.9,1.2-3.7.4-6.6-.8-6.1-6.9.4-5.2-2.3-12.7,5.1-13.2,3.4-.2,6.7-.8,10.1-1.3,9.6-1.5,14.2-8.5,14.3-22v-63c0-48.4-.1-96.9,0-145.3.1-24.6-6-25.3-19.6-28-2-.4-4.1,0-6.2-.2-2.3,0-3.2-1.7-3.6-4.8-1.6-12.6,0-15.6,9.1-15,36,2.2,72,1,107.9,1.9,16.5.4,33.1,1.9,49,8.5,17.9,7.5,31.7,21.1,36.8,46.8,4.9,24.7,4.2,48.9-7.6,70-6.8,12.2-16.9,19.1-27.6,23.5-11.4,4.7-11.5,4.3-5.1,17.9,13.1,27.9,26.7,55.3,42.5,80.6,8.5,13.6,18.2,24.8,31.6,28.6,5.3,1.5,6.2,5.7,5.1,16.7-.7,6.8-4.6,5.4-7.4,5-17.5-2.5-35-1-52.5-1.5-4.5-.1-8.9-1.1-13.5-.5-4.7.6-7-6.1-8.9-10.5-6.8-15.7-15.5-29.4-22.7-44.6-7.3-15.4-14.9-30.6-22.4-45.9-4.2-8.7-8.5-17.4-12.7-26-2-4-11.6-6.5-14.4-3.8-1.7,1.6-1.3,4.1-1.3,6.3v43.1h0ZM409.5,152.7c0,17.2.2,34.3,0,51.5-.1,6.5,1.6,8.2,6.2,8.3,6.1,0,12.1-.4,18-2.1,13-3.8,24.6-11,31.6-27.9,6.2-15.2,6-31,3.6-47.6-2.5-16.8-9.3-27.8-20.5-34.8-10.4-6.5-21.5-5.9-32.6-6.3-4.6,0-6.3,1.7-6.2,8.2.3,16.9,0,33.8.1,50.7h-.2Z"/>
            <path class="cls-2" d="M261.5,211.7c12.7.3,22.9,5.2,32.6,11.7,16.9,11.3,27.6,28.7,28.8,55.7,1.5,31.1-7.5,53.7-26.7,70.7-12,10.6-24.7,15.7-38.6,15.9-26.4.5-52.8.4-79.2.3-22.6-.1-45.2.9-67.7,3-5.8.5-8-1.8-8.1-9.9,0-6.9,1.1-10.5,6.6-10.7,3.9-.1,7.8-1.2,11.7-2.2,7.3-1.8,11.3-7.8,11.5-17.8.2-9,.1-17.9.1-26.9V120.9c0-25.4-3.9-31.2-22.6-31.7-5.1,0-7.1-2.1-7-9.3.2-10.7,0-11.2,7.7-10.7,43.1,2.9,86.3.8,129.4,2,18.8.5,37.5,4,54.4,16.9,10.5,8,16.6,20.8,18.9,36.3,3,20.3,1.4,39.7-8.6,56.5-8.2,13.7-19.3,20.5-31.4,25-3.6,1.3-7.1,2.4-12,5.8h.2ZM208.6,343c5.1,0,11.9.2,18.6-1.6,12.9-3.5,24.9-9.1,31.4-26.3,6.3-16.7,6.5-34.6,2.7-52.2-1.7-8.1-4.5-16.3-10.1-21.6-6.4-6.1-13.2-10.5-20.8-13.1-12.1-4-24.3-3.6-36.5-3.9-3.9,0-4.6,3.1-4.6,7.5v103.7c0,5.1,1.4,7.6,5.3,7.5,4.1-.2,8.3,0,14.1,0h-.1ZM189.3,147.9h0v46.9c0,4.8,1.2,7,4.9,6.9,7-.3,14,.5,20.9-.4,18-2.4,36.4-12.6,41.8-39.6,6-29.7-8.4-63-30.1-66.4-10.5-1.7-21-1.1-31.6-1.5-4.5-.2-6,2.2-5.9,8.1.2,15.4,0,30.7,0,46.1h0q0-.1,0,0Z"/>
            <path class="cls-2" d="M1051.7,283v53c0,4.6.8,7.2,4.7,7.1,22.4-.7,44.8,1.8,67.1-3,13.7-2.9,24.3-12.2,32.2-27.7,3.2-6.4,5.3-13.4,7.9-20.1,2-5.2,4.4-6.2,8.2-4.6,10.1,4.2,9.8,4,7.9,17.8-2.3,17-4.1,34.2-5.8,51.4-.6,6.2-2.1,11.1-7.1,10-6.7-1.5-13.1.4-19.7.4-53.9,0-107.8.1-161.7.4-4.9,0-9.8.8-14.6,1.2-3.2.3-5.4-1.7-4.9-6.2.6-4.9-2.9-12.1,3.6-13.9,4.4-1.2,9-1,13.4-2.1,7.2-1.8,10.6-7.3,11.2-17.3.2-3.6.2-7.2.2-10.8V114.9c-.3-18.4-4.7-24.6-18.3-25.7-1.9-.2-3.8-.2-5.7,0-3.5.3-4.8-1.9-4.6-6.4,0-1.8,0-3.6,0-5.4-.6-6.4,1.5-8.5,6.1-8.3,20.7.8,41.4,1.5,62.1,1.8,19.8.2,39.6.9,59.4-.4,19.4-1.3,38.8-.6,58.2-1.2,6.8-.2,7.1,1,7.7,10,1.1,16.3.8,32.7,1.2,49.1.2,6.5-1.1,8.8-6.2,9.1-7.4.4-12.2-1.1-14.9-12.4-5-21.6-18.4-28.7-33.6-31.3-16.3-2.8-32.7-1-49.1-1.6-3.5,0-5.1,1.3-5.1,6.5,0,32.3,0,64.6,0,96.8s.9,6.2,4.2,6.1c14.3-.3,28.6.4,42.8-2.4,10-2,17.9-13.1,18.7-27.3.2-3-.5-7.1,2.3-7.9,4-1.1,8.1-2.3,12.2-.4,1.7.8,1.3,3.5,1.3,5.5v86.1c0,5.1-1.4,7-5,6.6-2.1-.2-4.1-.2-6.2-.1-3.1,0-4.2-2-4.6-6-1.8-19.4-6.5-26.4-20.5-30-13.8-3.5-27.8-1.9-41.7-2.2-3.7,0-3.6,3.4-3.6,6.8v53l.3-.3h0Z"/>
            <path class="cls-2" d="M568.7,200.7v-82.8c0-21.5-4.3-27.5-20.3-28.8-8-.6-9-2.6-7.6-13.3.7-5.5,2.6-6.9,6.5-6.6,27.5,2,55,1.9,82.5,1.4,6,0,12-.8,18-1.4,4.8-.5,6,3.2,5.6,8.6-.3,4.7,2.1,11.4-4.8,11.5-4.7,0-9.6.4-13.9,2.4-9.5,4.4-9.3,16.3-9.3,26.9-.2,51.2,0,102.5,0,153.7,0,8,.7,15.8,2,23.6,5.9,34.8,24.3,48.3,48.2,46.5,9.8-.7,19.4-3.4,27.5-12.1,12.3-13.2,16.3-31.8,18.5-51.6,1.4-12.5,1-25,1-37.6v-124.5c0-20.4-4.9-27.7-19.9-27.4-7.2,0-6-5.4-6.3-11.3-.3-6.6,1.2-9.6,6.3-8.7,12.7,2.3,25.6,1.7,38.4,1.5,7,0,13.9-.8,20.9-1.4,6.2-.6,5,5.9,5.6,10.5.7,5.3-.5,8.7-5.1,9.3-19.6,2.6-21.8,6-21.8,32.8,0,51.2.9,102.5-.5,153.7-.9,31.7-8.9,60.7-29.8,79.6-10.5,9.5-22.4,14.2-34.7,16.5-19.6,3.7-39.2,3.2-58.2-4.4-28.3-11.2-43.7-38.4-47.3-77.4-3-31.6-.3-63.4-1.2-89.2h-.2Z"/>
            <path class="cls-2" d="M2116.4,367.5h-24.3c-2.3,0-5.1.3-4.9-4.1.3-4.9-2.5-13.1,2.3-14.2,15.5-3.7,18.9-20.8,23.4-36.6,6.1-21.7,11.3-43.8,17-65.8,7.3-28.3,14.7-56.6,22.2-84.9,4.7-18,9.5-35.9,14.4-53.8,2-7.5-1-14-2.1-20.8-.6-3.7-1.7-7.3-2.8-10.9-1.7-5.7.1-7.6,4.1-7.2,9.9,1,19.9,2.2,29.9,1.4,5.3-.4,10.5-.7,15.7-1.6,4.5-.7,6.7,2.2,7.6,7.6,5.5,31.6,13.6,62.1,21.6,92.6,5.6,21.3,10.7,42.8,16.5,64,8.8,32.5,16.6,65.5,25.7,97.9,2.8,9.8,8.4,14.6,15.7,16.4,5,1.2,8.1,14.3,4.7,19.5-1.2,1.8-2.7,1.5-4.2,1.4-32.2-2.4-64.4-1.8-96.6-.3-2.9.1-4.1-.8-4.7-4.6-1.4-9.2-.7-17.7,8.7-16,1.3.2,2.6,0,3.9-.2,11.3-2.1,14.6-8.2,11.3-23-3.3-14.6-7.6-28.8-11.3-43.3-1.1-4.3-3.5-3.1-5.6-3.2-13.8-.1-27.5-.2-41.3,0-5.4,0-10.8-.9-16.3-.4-5.7.5-7.9,4.7-8.8,10.6-1.9,12.6-6,24.1-9.1,36.1-3.6,14.3-1.3,20.4,9.8,23.4,3.5.9,8.1-.1,7.9,8.5-.3,10.2-.9,11.4-8.4,11.3-7.3-.1-14.7,0-22,0h0v.2h0ZM2176.9,142.4c-.5,0-1,0-1.5-.1-2,8.7-3.9,17.4-6.1,26-6.7,25.9-13.4,51.8-20.2,77.7-1.2,4.7-1.2,7.8,3.5,7.8,15.4-.2,30.9,0,46.3,0s4.6-.6,3.2-6.3c-5.3-20.9-9.9-42.2-14.8-63.3-3.3-14-6.8-27.9-10.3-41.8h-.1,0Z"/>
            <path class="cls-2" d="M1336.6,212.2c.2,16.6-.3,28.6,1.2,40.5,3,24.5,8.6,47.6,21.9,65.6,8.7,11.8,19.9,18.1,32.3,20.1,23.7,3.9,43-7.4,58.9-30.9,4.2-6.2,8.5-12.3,11.8-19.5,3-6.6,6.3-4.1,10.1-1.4,4.1,3,5.3,6.4,2.9,12.3-12.2,29.7-29.2,52.5-52.8,64.4-30.6,15.5-61,13.8-91.1-4.1-18.6-11.1-33-29.1-43.2-52.1-8.8-19.8-14-42-15.3-65.8-1.1-20.1-.7-39.8,2.5-59.4,1.6-9.9,3.9-19.6,7.1-29,11.2-33.4,29.6-57,53.5-73.3,14.6-9.9,30.2-13.6,46.3-15.1,24.4-2.3,46.9,5.8,67.9,22.2,1.3,1,2.8,1.5,4.1,2.4,8.9,6.3,15.2,13.4,13.9,29.9-.9,11.6.4,24,.7,36,0,5.2-1.3,6.9-5.1,5.9-6.2-1.6-12.4-1.7-18.5,0-3.4,1-5.9.3-6.4-5.4-1.1-12.8-3.8-25.2-7.8-36.6-5.5-15.8-14.7-27.6-27.8-30.8-15.5-3.8-30.2-.3-41.7,15.7-10.2,14.2-16.9,31.5-20.3,50.6-3.7,20.4-6.3,41.1-5,57.8h0Z"/>
            <path class="cls-2" d="M879,64.2c28-.5,52.7,12.4,75.8,32.8,5.4,4.8,5.1,12.3,5.4,19.1.6,13,.2,26.1.4,39.2,0,6.3-2.5,6.6-5.8,5.6-6.2-1.8-12.4-1.9-18.5-.3-4.3,1.1-5.3-1.3-6-6-1.8-12.6-3.9-24.9-8.3-36.5-5.4-14.4-13.5-25.6-24.8-29.2-12.5-3.9-25.2-3.3-36.9,7.2-18.9,17-25.4,43.4-29.6,71.3-2.9,19-4.4,38.5-3.4,58,1.3,26.6,3.7,52.5,14.2,76.3,9.5,21.5,22.9,33.4,40.5,36.5,27.3,4.8,48.7-9.7,65.3-38.8,2.1-3.6,4.5-7,6.1-11,2.9-7.1,6.8-5.3,10.5-2.6,4,2.9,5.6,7.6,2.8,13.4-8.4,17.6-17.1,34.6-30,47-16.4,15.7-34.4,23.7-54.3,26.2-12.4,1.6-24.7,1.1-36.4-2.7-20.8-6.7-39.8-18.8-54.3-41.8-8.7-13.7-15.8-28.5-20.5-45.2-6.5-23.2-8.2-47.6-7.2-72.3,1.8-44.3,14.7-81.4,39.8-110,21.7-24.8,47.2-36,75.4-36.3h-.2Z"/>
            <path class="cls-2" d="M2038.3,214.5v109.9c0,15.1,5.1,22.3,16.4,23.2,3.6.3,7.2.4,10.7,1.3,6.5,1.7,3.8,9.1,4.3,14.3.4,5-2.2,5.8-5.2,5.4-23.5-2.9-47.1-1.3-70.6-1.4-12.4,0-24.9-1.1-37.2,1.5-3.7.8-5.9-1-5.5-6.6.2-2.5,0-5.1,0-7.7-.2-4.9,1.6-6.9,5.1-6.9s9,.4,13.5-1c7.8-2.4,10.6-6.9,11.8-20.2.3-3.3.2-6.6.2-10V104.2c0-9.3-1-10.8-7.9-10.5-8.8.4-17.6,1.3-26.1,4.9-13,5.5-18.8,19.4-22.4,35.5-2.2,10.2-9.8,15.8-17.1,11.2-2.2-1.4-2.3-3.8-2.1-6.5,1.9-20.1.4-40.4,1.8-60.5.5-7.3,2-9.8,7.4-9.5,49.9,2.1,99.8,2.3,149.8,1.5,13.4-.2,26.7-1.4,40.1-1.5,4.6,0,6.3,2.3,6.6,8.4,1,17.1,1.1,34.2,1.2,51.4v3.1c.2,4.5,3.5,10.3-.5,13.2-3.9,2.8-8.9.8-13.3.6-1.8,0-2.2-2.6-2.6-4.5-1.4-7.5-3.8-14.4-6.5-21.1-4.8-11.6-11.2-20.9-21.4-23-8.2-1.7-16.4-2.3-24.7-3.3-4.9-.6-5.9,3.3-5.9,9.1,0,37.1,0,74.3,0,111.4h0v.4c0,0,0,0,0,0Z"/>
          </g>
        </g>
      </g>
      <text/>
      <g>
        <path class="cls-10" d="M189.2,346.5c-76.9,0-126.7-60-126.7-150.7S112.3,45,189.2,45s126.7,60,126.7,150.7-49.8,150.7-126.7,150.7ZM189.2,66c-35.1,0-56.5,23.9-56.5,129.7s21.4,129.7,56.5,129.7,56.5-23.9,56.5-129.7-21.4-129.7-56.5-129.7Z"/>
        <path class="cls-10" d="M332.4,323c16.5-.4,21.4-10.9,28.4-34l61.4-206.2-8.4-33.6c9.1,1.3,18.6,2.5,28.1,2.5s22.8-1.3,34.4-2.5c1.4,18.5,48.4,176.8,68.4,243.5,6.3,21,9.5,28.6,27.4,30.2v19.3c-9.5-1.7-29.8-2.5-55.1-2.5s-53.4.4-61.8,2.5v-19.3c19.7,0,28.8-4.6,28.8-14.3s-6.7-25.2-15.4-56.3h-76.2c-9.1,33.2-15.8,51.2-15.8,55.8,0,10.9,6.7,14.3,21.1,14.7v19.3c-6.3-2.1-18.3-2.5-32.6-2.5s-26.3.4-32.6,2.5v-19.3ZM461.9,230.6l-30.5-113.4h-.7c-2.1,8.8-3.9,17.6-8.4,33.2l-23.5,80.2h63.2Z"/>
        <path class="cls-10" d="M681.3,294.4c0,23.5,3.2,28.1,30.2,28.6v19.3c-15.8-1.7-36.2-2.5-61.8-2.5s-46.7.8-62.5,2.5v-19.3c28.4-.4,31.6-5,31.6-28.6V97.1c0-23.5-3.2-28.1-30.9-28.6v-19.3c15.1,1.7,35.5,2.5,61.8,2.5s49.5-.8,63.2-2.5v19.3c-28.4.4-31.6,5-31.6,28.6v94.5l79-94.5c7.4-8.8,8.4-13,8.4-18.1,0-8.4-6.3-10.5-19.3-10.5v-19.3c13.3,1.3,27,2.5,40.4,2.5s36.2-1.3,54.1-2.5v19.3c-31.9,2.1-54.1,23.9-72.3,45.8l-41.8,50,92.7,126.8c12.3,16.8,22.5,29.4,46.7,31.9v19.3c-15.1-1.7-36.9-2.5-63.2-2.5s-46.7.8-65.6,2.5v-19.3c10.5,0,17.2-1.7,17.2-9.2s-5.6-11.8-12.6-21.8l-56.2-78.5-7.4,6.7v74.3Z"/>
        <path class="cls-10" d="M1060.7,124.8c-4.9-.4-10.2-.8-15.4-.8s-10.2.4-15.4.8c-5.3-33.2-26-58.8-57.6-58.8s-43.5,14.7-43.5,42.4c0,64.2,148.5,28.1,148.5,144.9s-42.5,93.2-100,93.2-70.9-10.5-101.4-26.5l-1.4-63.8c5.3.8,10.9,1.7,16.1,1.7s10.5-.8,15.8-1.7c9.1,46.6,31.2,69.3,71.3,69.3s48.4-20.6,48.4-41.6c0-72.6-146.4-34.4-146.4-150.7s48.8-88.2,94.8-88.2,56.9,8.4,83.9,22.7l2.5,57.1Z"/>
        <path class="cls-10" d="M1312,68.5c-19.7,1.3-27,6.3-27,18.1s1.8,10.1,6.3,24.4l54.8,168.4h.7l51.9-166.3c3.9-12.6,6-21,6-29.8s-5.3-12.6-23.9-14.7v-19.3c11.2,1.3,22.1,2.5,33.7,2.5s25.6-1.3,38.6-2.5v19.3c-19.3,4.2-24.6,15.5-30.2,32.3l-67,208.3,9.5,33.2c-9.1-1.7-20-2.5-33.3-2.5s-22.1.8-29.8,2.5l-77.9-236.4c-7-21.8-13.3-34.9-30.9-37.4v-19.3c18.3,1.3,36.5,2.5,55.1,2.5s42.5-1.3,63.5-2.5v19.3Z"/>
        <path class="cls-10" d="M1462.6,323c31.6-.4,34.7-5,34.7-28.6V97.1c0-23.5-3.2-28.1-34-28.6v-19.3c15.4,1.7,38.6,2.5,64.9,2.5s49.5-.8,65.6-2.5v19.3c-30.9.4-34,5-34,28.6v197.3c0,23.5,3.2,28.1,34,28.6v19.3c-16.1-1.7-39.3-2.5-65.6-2.5s-49.5.8-65.6,2.5v-19.3Z"/>
        <path class="cls-10" d="M1821,339.8h-148.5c-29.5,0-43.5,2.5-59.7,2.5h-.7v-19.3c30.5-.4,33.7-5,33.7-28.6V97.1c0-23.5-3.2-28.1-33.7-28.6v-19.3c15.1,1.7,38.3,2.5,64.6,2.5s49.5-.8,66-2.5v19.3c-31.2.4-34.4,5-34.4,28.6v220.9h32.3c40,0,59.7-10.1,72.7-52.1l19.3,2.1-11.6,71.8Z"/>
        <path class="cls-10" d="M2055.1,339.8h-148.5c-29.5,0-43.5,2.5-59.7,2.5h-.7v-19.3c30.5-.4,33.7-5,33.7-28.6V97.1c0-23.5-3.2-28.1-33.7-28.6v-19.3c15.1,1.7,38.3,2.5,64.6,2.5s49.5-.8,66-2.5v19.3c-31.2.4-34.4,5-34.4,28.6v220.9h32.3c40,0,59.7-10.1,72.7-52.1l19.3,2.1-11.6,71.8Z"/>
        <path class="cls-10" d="M2074.7,323c16.5-.4,21.4-10.9,28.4-34l61.4-206.2-8.4-33.6c9.1,1.3,18.6,2.5,28.1,2.5s22.8-1.3,34.4-2.5c1.4,18.5,48.4,176.8,68.4,243.5,6.3,21,9.5,28.6,27.4,30.2v19.3c-9.5-1.7-29.8-2.5-55.1-2.5s-53.4.4-61.8,2.5v-19.3c19.7,0,28.8-4.6,28.8-14.3s-6.7-25.2-15.4-56.3h-76.2c-9.1,33.2-15.8,51.2-15.8,55.8,0,10.9,6.7,14.3,21.1,14.7v19.3c-6.3-2.1-18.3-2.5-32.6-2.5s-26.3.4-32.6,2.5v-19.3ZM2204.2,230.6l-30.5-113.4h-.7c-2.1,8.8-3.9,17.6-8.4,33.2l-23.5,80.2h63.2Z"/>
        <path class="cls-10" d="M2561.2,135.7c-5.3-.4-11.2-1.3-16.5-1.3s-10.2.8-15.1,1.3c-4.2-38.6-21.4-69.7-56.9-69.7s-71.3,47.9-71.3,117.6,18.6,141.9,66.7,141.9,28.4-5.5,39-11.8v-57.5c0-16.4-3.5-24.4-27.7-24.4v-19.3c17.9.8,35.5,1.7,53.4,1.7s37.6-.8,55.8-1.7v19.3c-17.5,0-21.1,8-21.1,24.4v57.9c-30.2,20.6-65.3,32.3-100.7,32.3-79,0-135.5-50-135.5-149.1s56.5-152.4,129.2-152.4,72.7,14.7,99.3,37l1.4,53.7Z"/>
        <path class="cls-10" d="M2838.5,339.8h-169.2c-29.5,0-43.5,2.5-59.7,2.5h-.7v-19.3c29.5-.4,32.6-5,32.6-28.6V97.1c0-23.5-3.2-28.1-32.6-28.6v-19.3c28.4.8,56.9,2.5,84.9,2.5s86-1.7,129.2-2.5l2.8,67.2h-19.3c-9.1-38.2-23.2-45.3-72.7-45.3h-29.8v107.5h31.9c32.3,0,40.7-6.3,42.8-37h16.1v96.2h-16.1c-2.1-31.1-10.5-37.4-42.8-37.4h-31.9v117.6h29.5c68.4,0,78.6-5.5,97.6-55.8l17.5,5.5-10.2,72.2Z"/>
      </g>
    </g>
  </g>
</svg>