<?xml version="1.0" encoding="UTF-8"?>
<svg xmlns="http://www.w3.org/2000/svg" version="1.1" viewBox="0 0 703.8 403">
  <defs>
    <style>
      .cls-1, .cls-2 {
        fill: #bfb18c;
      }

      .cls-2 {
        stroke: #231f20;
        stroke-width: .8px;
      }

      .cls-2, .cls-3 {
        stroke-miterlimit: 10;
      }

      .cls-4 {
        display: none;
      }

      .cls-3 {
        stroke: #fff;
        stroke-width: .2px;
      }

      .cls-3, .cls-5 {
        fill: #473b26;
      }
    </style>
  </defs>
  <!-- Generator: Adobe Illustrator 28.7.5, SVG Export Plug-In . SVG Version: 1.2.0 Build 176)  -->
  <g>
    <g id="Layer_1">
      <g class="cls-4">
        <path class="cls-1" d="M30.2-36.6c-1.3.5-.7,1.6-1,2.5h-4.4c-.4-.5-.9-1.1-1.4-1.8-.6,1.5-1.7,1.6-2.8,1.9-1.1.3-2-.3-3.3,0-.3-.3-.7-.8-1-1.3-.3-.5-.5-1-.7-1.5.3-.8,1.2,0,1.6-.7-1.2-.2-1.7-1.3-2.4-1.8-.8.8-1.5,1.6-2.2,2.3-1.5,0-2.6-.7-3.7-.9-1-.1-2.1-.5-3-.4-.6-.7.2-1,.1-1.6-1.7.1-1.5,1.7-2.2,2.6-.6,0-1.2.2-1.8-.1-.4-1.4.5-2.2,1.6-2.4.9-.1,1.2-.9,1.9-1.1.5,0,.7.2.9.5.4-.3.7-.7,1.1-1h1.6c.4-.4.3-.9.2-1.2-.2-.6-1.2-.8-1-1.7.4-.4.9-.3,1.4-.1.1.3.2.6.3,1,.3-.3.5-.5.9-.9-.5-.2-.9-.4-1.3-.6.6-1.8-.6-3.1-.4-4.3,1.2-1.8,2.1-3.6,4.7-3,0-.9-.8-1.1-1-1.7-.4-.7-.4-1.4-.5-2.2-.1-.8.4-1.3.7-1.8.4-.6,0-1.4.9-1.6-.1-.9-.8-1.1-1.1-1.7.4-.7.9-1.6.5-2.5-.4-.3-.8,0-1.2-.2-.6.9-.8,1.9-1.1,3,.4.3.4.8.3,1.5-.4.4-.9.3-1.6,0,.9-1.3.6-2.7.6-4.1.5-1.2,2.1-1.2,2.6-2.3.5-1.1,1-2.1,1.7-2.6,1.4-.6,2.4.2,3.4.5.6.2,1.2-.3,1.8.3.5.4.7.1,1.7-1.3-1.5,0-2.7-.8-4.2-.7-.7-5.9,1.3-10.7,5.3-15.1.9,1.5-.3,1.7-.6,2.3.2.2.6.4.7.2.5-.7,1.5-.9,2-1.7.3-.5,1.1-1,1.9-.9.8,0,1.6,0,2.4,0,.8-.5,1.7-.7,2.2-1.5h2.7c-.9.8-1.4,1.4-1.3,2.5,0,.6-.6,1.1-.8,1.7-.2.7-1.4,0-1.2,1.1,1,1.1,1.9-.5,2.9-.3,1,.2,2.1,0,3.3,0v-3.3c.8-.4,1.5-.8,2.2-1.1,0-.2-.1-.6.6-.9.6-.2,1.1.2,1.5,1.6-.8.8-1.5,1.5-2.3,2.2.7.7,1.4.3,1.9.5.9-1.2,1.5-2.6,2.8-3.7-1-.7-1.3-1.7-2-2.5-1.2.7-2.6.3-3.9.4-.6.5-1.1,1.1-.7,2h-1.5c-.4-.4-.1-.9-.2-1.3-.3-.4-.8-.2-1.2-.3-.8-1.1-1-2.8-2.8-3.2-.4-.5.2-1.4-.7-1.8.3-.8-1.2-1-.7-1.5,1.2-2.4,3.4-2.2,5-3.2-.3-.3-.5-.5-.8-.8-.4.2-.6.7-1.1.5-.5-.4-.4-.8.4-2,1.4-.5,2.6.3,3.9.5.2.7.9,1.2.7,2,.4,0,.7.1.9-.1,1-1.2,2.6-1.5,3.7-2.4.6-.5,1.3-.9,1.6-1.5.6-1.4,1.8-1.5,3-1.7.4.8.3,1.4-.4,1.9-.6.5-1.3,0-2,.3v1.3c.6.4,1.2.1,1.8.2.8-.4.8-1.5,1.5-2h1.2c.1.6.4,1.1,1.1,1.1.2.4.2.9,0,1.2-.7,1.1-2,1.5-3.1,2,.6.6,1.4,0,2,.4,1.1.6.3,3.3,2.7,2.4.4-1.1-1-1.1-1-2,0-1,1-1.8.5-2.8.5-.9,1.6-.8,2.1-1.7-1.2-.2-1.6-1.7-3-1.3-.3-.7-.2-1.3-.2-1.9,1.4-1.2,3.2-1.6,4.9-2.2,1.2-.4,1.4-1,1.5-2,.5-.4,1.2,0,2-.2.4.5.9,1.1,1.3,1.6h1.2c.6.6,1.1,1.1,1.7,1.7,0,.7.1,1.5,1,1.9.7,0,.9-.6,1.5-1h2.7c1,1.6,3.1,1.9,4.6,3.4,3.8-2.8,7.7-4.9,12.4-2.4.2,1.3-.3,2.4.6,3.2-.1.8-.8.3-1.1.8v1.1c.6.6,1.2,1.1,2,1.8.2,0,.7-.2,1.1.1.4,1-.8,1-.8,1.8.3.4.8,0,1.3,0,.4-.3-.1-1.6,1-.9.3-.8.4-1.4-.3-1.9.3-.3.6-.7.8-.8,1.2-.4,2.5-.8,3.8-1,1.3-.2,2.6.5,3.9.8,2.6.6,4.8,2.2,6.9,3.7,1.1.8,2.3,1.3,3.6,1.9v1.7c1,.3,1.7.9,2.2,1.7,0,.6-.8,1-.5,1.6,0,.8,1,.9,1.1,1.7,0,.7-.7.3-1,.7.3,1.2,1.7,1.2,2.5,2.2.3.5-.5,1.5.5,2.1-1.1,1-2-1-3.2,0,.5,1.1,1.1,2.2,1.6,3.4,0,.6-.6.8-1,1.3v2c-.3.4-.6.6-.9,1-1-.7-2.1-.9-3.4-.4.2,1.2,2,1,1.8,2.5,1.2-.4,2.2.2,3.4-.5.8-.5,2.2-.2,3.1.5.7.5,1.6,1.1,1.3,2.2,1.2,2.1,3.9,2.2,5.2,4.4v1.5c-.5.8-1.2.9-2,.7,0,1.3.9,1.5,1.4,2.1,1,0,1.1-1.2,2.1-1.1.8,0,1,.8,1.6,1,.5-.4,0-1,.3-1.5q1.1.4,1.9,1.7c0,.4-.7.7-.3,1.3.7,1,.7,1.9-.4,2.8h-2.1c-.8.5-.9,1.3-1.3,1.9q1.5.3,2.4,1.8c.4,0,.7-.1.8-.4.5.6,1,1.1,1.4,1.5h1.9c.3.3.5.5.8.8-.5.6-1.4,1.1-1,2.2,1,.6,2.1,1.1,3.2.6.5.7,1.4,1,1.5,1.9-.6.7-1.4,0-2,.4-.4.3,0,.8-.2,1.2-1,.6-1.9,1.1-3.2.3-.6-.4-1.7.3-2.4-.6-.3.2-.4.6-.9.5-.4,0-1,0-1.1.4-.7,2.4-3.3,1.9-4.8,3.1-.3.2-.8.1-1.2.2-1.3,0-2.7-.3-3.9,0-1.4.4-2.4-1.3-3.9-.2-1,.7-2.5.7-3.7,1.2-1.2.5-2.5.5-3.7.5-.5-.4-.9-.9-1.3-1.3v-1.1c-.3-.3-.6-.7-.7-.7-.7.2-.9-.9-1.2-.8-1.5.4-2.4,1.1-3.2,1.8-.7-.3-1.3-.7-2.1-.6,0-.5-.2-1-.2-1.5-1.3.4-.6,2-1.7,2.5h-2.2c-.9-1.4-2.9-.9-3.8-2.2-.9-1.3-2.4-1.9-3.5-3h-3.5c-1.6.8-3,1.5-4.1,2.8-.3.4-.8.6-1.3.7-1.5.4-2.5,1.4-3.5,2.5.3,1.2-.8,2.3-.5,3.6,0,.1.2.3.3.4,1,.4.4,1.6,1.1,2.2.6.4,1.3.8,1.7,1.4.5.7.7,1.7.5,2.7h2.5c1.7.7,2.9,2,4.4,2.9,1,.6,1.2,2.2,2.8,2.4.6-.8,1.7-.8,2.5-.5,1,.4,2.3.2,2.8,1.5,3,.1,6-.4,9,1h-61.8q2.1-.9,5-.9h5.1c1.9-1.5,3.9-2.1,6.2-1.1,1.9-.9,3.8-1.7,5.7-2.3,1.5-1.4,1.6-3.3,2.7-4.9.3-1.4-.5-3,.6-4.5-.4-.6-1-1.3-1-1.9,0-1.3-.9-2-1.7-2.4-1.4-.7-2.7-2-4.5-1.9-1,0-1.2-.9-1.9-1.1-1.8-.6-3.7-.8-5.3-1.9-.4-.3-.8-.1-1.3-.2-1.1,0-2.1,0-3.2,0-1.7,1.4-3.9,2-5.5,3.4,0,.9.7,1.1,1.1,1.6v1.6c-.4.4-.9.9-1.3,1.3-1.5-.1-2.8.5-3.8.8-.6-.3-1-.5-1.4-.8.4,0,.5-.1.6-.4,0,0-.1-.2-.2-.2-.2,0-.4.2-.4.5ZM110.4-42.3c.6-.4,1.3-.6.9-1.6-.7.4-1,.8-.9,1.6-.3,0-.4,0-.5.3,0,0,.1.2.2.2.2,0,.4-.2.3-.4ZM76.4-50.8c-1-.2-1.9.3-2.5-.5-.8.4-1.6.7-2.1,1.5-.6-.5-.9-1.1-1.4-.8-.4.2-.8.4-1.3.7,1.8,2,.3,4,.3,6,1.1-.2,1.9-.7,2.6-1.3.8-.7.4-1.9,1.2-2.5-.3-.5-.8-.7-.6-1.3.8,0,1.3-.8,1.9-1.3.4.6,0,1.2.7,1.7-.2-1.1.6-1.4,1.1-2.2.4,0,.5.4.8.5.3-.4,1.1-.7.6-1.4-.5,0-1-.3-1.4.2,0,.2,0,.3.2.8ZM59.8-46.9c-.4-.4-.9-.8-1.4-1.3-.9-.1-2.1.3-3-.7-.3.8-1.2.5-1.4,1.1.1.6.9,1.1.5,1.9.9,1.2,2.2,2,3.6,2.7,1,.5,1.6.3,2.1-.3.6-1.3-.6-2.2-.4-3.3ZM104.6-87.8c0-.5,0-.8-.9-.7-.2.2-.4.5-.7.7-.1.7.1,1.2.5,1.8-.7.2-1.5-.2-2.1.3,0,.2,0,.4,0,.6.9.5,2-.3,2.7.6.9-.7,1.8-.4,2.8.5,0-1.6,1.4-.3,1.9-1.4-.8-1.8-3-1.3-4.3-2.4ZM47.7-46.7c2,.4,3.7,1.8,5.7,1.6.3-1,0-1.9-.8-2-.9,0-1.5-.8-2.5-.6-1-.8-1.8-2.2-3.5-2,0,1.2,1.1,1.8,1.1,3ZM20.3-50.6c-.8-.3-1.6-1.2-2.3-.7-.9.7-1.8.3-2.8.5,0,.7-1.5.8-1.1,2.1,2.3,0,4.6.2,6.2-1.9ZM64.8-100.3c-.6-.6-1-1-1.5-1.4h-2.2c-.3.4-.1.9-.2,1.5,1.4-.4,1.3,1.1,2,1.8.7-.6,1.2-1.2,1.9-1.8ZM87.7-53.2c-1.3-.3-2.3.2-2.9-.7-.2.2-.5.5-.7.7,0,1-.3,2.1,1.3,2.4.7-.7,1.3-1.4,2.4-2.5ZM15-47c-1.8,0-3.1-1.3-4.3-.6.8.8,1.6,1.6,2.4,2.5.4-.4.9-.9,1.9-1.9ZM78.3-49c-.5-.2-.9-.5-1.4-.7-.9.9-1.9,1.6-2.2,2.9.6.3,1.2,0,1.7.1.6-.6,1.2-1.2,1.8-1.8,0,0,0-.2,0-.5ZM72-55.7c.7,0,3.4-.5,4.2-.8.6-.2.5-.5.4-.9-1.4-.5-2.6.6-3.9.6-.3,0-.9.5-.6,1.2ZM42.4-50.2v1.5c1.2-.5,1.2,1.1,2.1,1.1.5-.3.8-.5.9-.6-.7-.8-1.3-1.4-1.8-2h-1.3ZM89.9-50c-.7-.4-1.3-.2-1.4-.2-.7.7-1.1,1.1-1.6,1.6.3.4.8.6,1.9.4.1-.2.5-.7.9-1.1,0-.1,0-.3.2-.6ZM20.6-38.1c.3.3,0,1.2.9,1,.4-.4,1.1-.6.8-1.4q-1.3-.3-2.4-1.2c-.3.4-1.1.7-.6,1.5.4,0,.8,0,1.2.1ZM46.2-65.2c-.3.3-1.3.2-1.6,1,0,.2,0,.5,0,.8.7,0,1.3,0,1.9,0,.2-.4.7-.5.7-1.2-.2-.1-.6-.3-1-.5ZM39.3-46.7c-1.2.5-2-1-3.1-.3,0,.5-.3,1,.2,1.4,1-.2,2.2.5,2.9-1.1ZM82.1-48.5c.4-.7,1.4-.9,1.5-2-.3-.3-.5-.5-.8-.8-.5.4-1,.9-1.4,1.3.2.5-.1,1,.7,1.5ZM98.3-47.4c.5.8,1.2,1,2,.6.1-.5.3-1,0-1.3-.8-.3-1.4,0-1.9.7ZM49.6-49.7c.2-1.7.2-1.7-1.4-2.1-.2,1,0,1.8,1.4,2.1ZM112.3-59.1c.8-.3,1.3-.6,1.1-1.2-.2-.4-.3-.7-.5-1-.8.7-1.2,1.3-.6,2.2ZM87.8-45.2c.7.3,1.4.3,2.1,0v-.8c-.6.1-.9-.3-1.4-.6-.2.4-.9.6-.7,1.3ZM106-63.1c1.1.4,1.8.2,2.2-.7-.4-.2-.5-.7-1-.7-.4,0-.5.3-.8.6-.2.2-.2.4-.4.8ZM89.2-52c2,.1,2.1,0,2-1.4-1,0-1.2.9-2,1.4ZM74-99.5c-.7-.2-1.3-.2-2,0,.4.9,1.1,1.1,2,.8v-.8ZM36.6-56.4c1.1-.3,1.7-.6,1.7-1.4-.2-.4-.5-.3-.8-.3-.2.5-.5.9-.9,1.7ZM44-98.3c-.5-.4-1.1-.4-1.6,0-.1.4,0,.7.4.9.6,0,.8-.5,1.2-.8ZM45.9-91.8c-.6-.5-.8-1.1-1.4-1-.6.2-.5.6-.2,1h1.6ZM105.9-43.5c.8,0,1.4.3,1.9-.2,0-.3,0-.7-.4-.8-.6,0-.7.5-1.5,1ZM33.7-45.6c-.6,0-1,.4-1.3,1h1.4c.2-.4.2-.7-.2-1ZM116.9-41.4c.8,0,1.4.3,1.9-.2,0-.3,0-.7-.4-.8-.6,0-.7.5-1.5,1ZM89.1-62.3c.4-.4.4-.7,0-1.1-.2,0-.5-.1-.7.2-.2.7,0,.9.7.8ZM40.2-49.7c-.9-.2-1,.1-.8.8.2-.2.5-.5.8-.8ZM121.3-46.5c-.9-.2-1,.1-.8.8.2-.2.5-.5.8-.8ZM99.8-89.4c.5.3.8.5,1,0-.3-.3-.6-.3-1,0ZM22.7-73.9c.4-.4.4-.7,0-1.1-.4.4-.4.7,0,1.1ZM52.5-52.6c-.5-.3-.8-.5-1,0,.3.3.6.3,1,0ZM118.4-46.3c-.5-.3-.8-.5-1,0,.3.3.6.3,1,0ZM17.4-38.2c.3-.5.5-.8,0-1-.3.3-.3.6,0,1ZM19.5-35c.3-.5.5-.8,0-1-.3.3-.3.6,0,1ZM105.4-43.4c-.2.2-.2.3,0,.5.2-.2.2-.3,0-.5ZM108-88.6c.2-.2.2-.3,0-.5-.2.2-.2.3,0,.5ZM97-82.3c.2-.2.2-.3,0-.5-.2.2-.2.3,0,.5ZM103-90.4c.2.2.3.2.5,0-.2-.2-.3-.2-.5,0ZM111.2-59.2c-.2.2-.2.3,0,.5.2-.2.2-.3,0-.5ZM76.4-101.7c-.2.2-.2.3,0,.5.2-.2.2-.3,0-.5Z"/>
        <path class="cls-4" d="M133.2-44.9c1-.3.9.3.6,1-.2-.3-.4-.7-.6-1Z"/>
      </g>
      <g class="cls-4">
        <g>
          <path class="cls-5" d="M174.8-49.4c-.3,0-.6,0-.5-.4,0-.1.3-.1.5-.2v.6Z"/>
          <path class="cls-5" d="M152.1-40c-1-.3-1.5.5-2.1,1.2h-3.3c-.3-.4-.8-1.1-1.5-1.9v-3.8c-.7,1.2-2.2,1.5-2,3,0,0-.3.1-.5.2-.2,0-.4.1-.6.2v1.8c-.8.8-1.4,2.1-3,1.6-.4-.3-.1-.8-.2-1.2.4,0,.6-.2.6-.6.3,0,.5,0,.6-.4,0,0-.1-.2-.2-.2-.3,0-.4.3-.4.6-.4,0-.6.2-.6.6-2.2,1-4.1.5-5.7-1.6.4-1.2-1-.7-1.3-1.3.4-.3.8-.7.6-1.4-.3-.1-.7-.2-1-.3-.5-1,0-1.7.8-2.3.4.1.5.7,1,.6,0,.6-.2,1.2.4,2,.3-1.4,1.6-.2,2.2-1.2-.3-1.4-.9-.9-1.6-.2-.4-.1-.5-.7-1-.6-.2-.9.3-1.4.9-1.8.5-.4.2-1.3.9-1.5-2.4-1.4-3.5-1.1-6.5,1.4h-2.7c-.5.6-1.1,1.3-1.6,2-1.7-.4-3.3-1-4.9-.7-.3,0-.6.2-.5.6-1.5-.9-.8,1.5-1.9,1.3-.8,1.2-2.2,2.1-1.8,3.8-1,.1-1.2,1.5-2.4,1.3v2.7c-1.2,1.1-2.2,2.1-3.3,3.2,0,1.5.3,2.9,1.3,3.8.9.8,2.5.6,3.4,1.6h11.3c.4,1.7,2.3,1.6,3.3,2.5.3.3,1.2.2,1.7-.6,1.2,3,4.5,2.7,6.9,4-2.6.5-60.8.6-65,.2.9-.9,1.8-1.8,2.9-2.8.6.1,1.3-.3,2-.7.8.5,1.8.7,2.6,1.5,2.2-1.3,4.4-1.8,6.7-1.5,0-.5.2-.7.2-1.2h3.3c.7-.2,0-1.3,1-1.5.8-.2,1.9-.5,2.2-1.3.5-1.1,2,.2,2.2-1.2,1.5,0,1.9-1.1,2.6-2.1,1-1.5,1.8-3.1,2.5-4.6,1-2.1,2.7-2.8,4.9-2.7.7-2.3,3.1-3.3,3.9-5.6.5-1.5.7-2.7,0-4.2-.4-.8-1-.5-1.3-1,.2-.2.4-.4.6-.7-.9-.7-1.4-1.7-2.5-2.2,0-.3,0-.5-.4-.6,0,0-.2.1-.2.2,0,.3.3.4.6.4q.3,1.1,1.3,2.2c-.8.7-1.3,1.6-2.5,1.8-.2.4,0,.8.3,1,.5.4,0,.5-.1.7-.9,2.9-1.1,3.3-4.2,1-.7,1.1-2.2,1.2-3,2.3.2.2.4.5.6.7-1.3,2-1.5,2.1-5.5,2.2,0,1.5-.7,2.5-2.2,3.2-1.3.6-2.5.9-3.7.2-.7-.4-1.7-.5-2-.2-1,.9-1.5-.2-2.2-.3-.5-1,.4-1.7.5-2.3-.6-1.7-1.9-1-2.9-1.3-.9-.8-1.4-1.7-1.6-2.7,1.3-1.1,2.1.6,3.2.3,0,.3,0,.5.4.6,0,0,.2-.1.2-.2,0-.3-.3-.4-.6-.4.2-.9,1.1-1.2,1.6-1.9.4.4.9.8,1.3,1.2.4-.4.4-.7,0-1.1-.8-.8-1.7-1.5-2-2.6-.2.2-.4.4-.7.7-1.6-.5-2.7-1.3-2.8-3.2.7-.3,1.3-.6,1.9-.9-.1-.9.3-2-.2-2.9-.4,0-.6,0-1,.1.3,1.3-.5,2.4-.7,3.7-.2,0-.4,0-.6,0v-1c-1.2-.3-2.4-.7-3.7-1,0-.9-.1-1.8-1.3-2.4,0,1-.6,1.9-.7,2.8,0,.6,0,1.3,0,1.9.4.7,1.4.9,1.2,2-1.1.7-1.6-.2-1.8-.9-.9-2.2-2.3-4.5,0-6.8-.4-.9-1.1-1.8-.7-2.8.3-.7.3-1.9,1.5-1.8,0-1.5,1.6-2.3,1.6-3.7.7.1,1.1-.2,1.6-.6,1.2-1,2.8-1.2,4.3-1.8,1-.4,2.8.4,3.6,1.5.4.5.7,1.1,1.5.9q-.3-1.6.5-3.7c.7,0,1.4,0,2.1-.1.6-1.6-.4-3.5.8-5,.3,0,.5,0,.6-.4,0,0-.1-.2-.2-.2-.3,0-.4.3-.4.6-1-.2-1.2-1.2-1.6-1.9-.3.6-.6,1.2-.9,1.9-.4,0-.6.2-.6.6-1.7.5-3.4,1.1-5,1.6,0,0,0,.2,0,.3-.4,0-.8.2-1.3-.4,1-1.4,1.4-3.2,3.3-4,.6-.2,1-.6,1.1-1.2.2,0,.5-.1.5-.2,0-.4-.2-.4-.5-.4,0-.6.2-1.3-.6-1.4.6-1.1,2.1-1.4,1.9-3,.3,0,.6,0,.9,0,.5.5.4,1.3,1.3,1.8h3.3c.5-.6-.6-.6-.4-1.2.1-.5,0-1,0-1.6.8-.3,1.5-.7,2.5-1.1-.3-2,1.7-2.3,2.6-3.4,1.2-1.5,3.1.2,4.1-1.6.1.6.2.9.3,1.3.5.5,1.1.3,1.8,0v-2.6c1-1.1,2.3-1.5,3.2-2.5,1.5-1.7,3.2-2.3,5.3-1,.8-.4.2-1.2.5-1.7.2-.3.5-.2.8-.2.7.6,0,1.6.4,2.3.7.3,1.7.4,1.8,1.4,0,.6.5.9.9,1.2.4.3,1,.3,1.1-.5,1.2,0,2,.7,2.8,1.1,1.7-.6,2.8-2,4.2-3.1,1-.1,2.2.3,3.2-.2,0-.4,0-.8-.3-1-1.2-.4-1.9.6-2.9,1.1-.5,0-1,0-1.6,0-.8-.8.3-2.1-1.2-2.9.6-.5,1.1-1,1.7-1.4,1.8-1,3.7-1.2,5.3.2,1,.9,1.9,1,3,1,.7.5,0,1.3.5,1.7.4.2,1,.2,1-.2.2-1.3,1.3-1.4,2.2-1.5,1.8-.2,3.6,0,5.4-.6,1.1-.3,2.4-.3,3.8,1.2.3.9,1,2.5.7,4.1.8.5,1.9-.1,2.3.9.3.2.2.2,0,.5-.8,1.7-.8,2.3-.3,3.8,1.1,0,2,.5,2.9,1-.2.3-.4.6-.6.8,0,.8.6.9.9,1.4.6-1,2-.1,2.6-1.2,1.4.8.9,2.1,1,3.4.8.7,1.6,1.5,2.4,2.2v2.8c-.9,1.2-2.5,1.9-3.6,3.2,1,.5,2.3,0,3.5.3.5,1.4,1.1,2.6,2.7,3,.4.9.8,1.8,1.5,2.5,1,.9,1.8,2,1.6,3.4-.2,1.4,2,1.4,1.3,2.8.8,0,1.3.1,1.7.2.3.5.2,1,.1,1.5-.9,1.1-1.5-1.2-2.4,0,.6,1,1.9,1.5,2.1,2.9,1.7,0,3.3-.6,4.5-1.9.3.3.6.6.9.9-.2,1.7-1.6,2.4-2.5,3.5-.9-.2-.4-1.1-.9-1.3-.4,1.4-1.8,1.5-2.8,2.1.3.4.6.8.7,1,1.4.1,1.5-1.5,2.6-1.2.5.3.3.7.4,1.1.4,1.4,1.1,1.7,2.5,1.2.7-.3,1.4-.7,2.2-1.1.4.8.6,1.5-.1,2.2-1.3,1.1-2.4,2.6-4.4,1.2-.6-.4-1.6,0-2.8,0,.6.7,1,1.1,1.4,1.6-.4.4-1.2.2-1.5.9-.2-.5-.4-.9-.6-1.3-1.7,0-1.5,1.4-1.8,2.4-.8,0-1.6.2-2.9.3,2.7.9,4.9,1.8,7,.4.7.4.4,1,.5,1.5-.5.7-1.8.4-1.9,1.6-1.7-.9-3.2.7-4.6,0-1.1-.6-2.4-1.1-3-2.4,0-.5.4-.7.6-1-.2-.5-1.2-.8-.3-1.6.2.2.4.3.7.6.3-.3.6-.5.9-.8,0-.1-.2-.3-.3-.4-.5-.8-1.2-.5-1.9-.6-1.1-.1-1.6-.8-1.5-1.9.3,0,.5,0,.6-.4,0,0-.1-.2-.2-.2-.3,0-.4.3-.4.6-.8,0-.5.7-.8,1.1-.4.4-1,0-1.5.2-.4.6-.5,1.5-1.3,1.8-.8-.6-1.2-1.3-1.3-2.5-.2.4-.5.8-.7,1.2-.4.8,1.1,1,.5,1.9,1,0,1.7,0,2.5.1v5.6ZM136.3-42.5c0,.3,0,.5.4.6,0,0,.2-.1.2-.2,0-.3-.3-.4-.6-.4,0-.3,0-.5-.4-.6,0,0-.2.1-.2.2,0,.3.3.4.6.4ZM140.1-89.5c0,.3,0,.5.4.6,0,0,.2-.1.2-.2,0-.3-.3-.4-.6-.4,0-.3,0-.5-.4-.6,0,0-.2.1-.2.2,0,.3.3.4.6.4ZM77.7-58.8c-.3,0-.5,0-.6.4,0,0,.1.2.2.2.3,0,.4-.3.4-.6.3,0,.5,0,.6-.4,0,0-.1-.2-.2-.2-.3,0-.4.3-.4.6ZM143.5-44.5c-.7.2-1.2-.2-1.5.6.5,0,.9.3,1.3-.5.3,0,.5,0,.6-.4,0,0-.1-.2-.2-.2-.3,0-.4.3-.1.5ZM149.6-62.6c0-.3,0-.5-.4-.6,0,0-.2.1-.2.2,0,.3.3.4,1.8.7-.1-.1-.3-.4-.3-.4-.3.2-1-.4-.8.3.1.5.7.5,0-.3ZM92.2-64.7c-.1-.1-.3-.4-.3-.4-.3.2-1-.4-.8.3.1.5.7.5,0-.3-.2-.4.2-1-.5-1.2-.2.4-.8.5-.8,1.1.4,0,.8,0,2.4.4ZM160.9-55c0-.3,0-.5-.4-.6,0,0-.2.1-.2.2,0,.3.3.4.8.3-.6.2-.2.6-.3.9-.1.3-.7.4-.5.8.4.2.8.2,1.1-.1,0-.5.3-1.2-.6-1.6ZM127.5-58.8c0-.3,0-.5-.4-.6,0,0-.2.1-.2.2,0,.3.3.4,1.5-1.5-.6.4,0,1.2-.4,1.7-.3.4-.9.7-1.2,1.4,1.9.1,1.7-1.5,2.5-2.2-.3-.3-.6-.6-1.8,1ZM145.6-72.4c.9,1.1,2.2,1.9,3.2,2.1,0-2.3,0-2.4-3.2-2.1ZM128.3-55c-.1,1.4-1.5,1.7-1.7,2.6-.3,1.3-1.6,1.2-2.2,2-.6.7-.7,1.9-1.9,2,.3.3.6.6.9.9.4-.4.9-.8,1.3-1.2,1.4,0,2.7.1,4.1-.3,0,0,.1.2.2.2,0,0,.2,0,.2,0,.6-.4,1.1-.9,1.7-1.2,1.1-.7,2-1.8,3-2.8.7-.7.9-1.3.3-2.2h-5.9ZM111.2-56.1v3.9c.9,1.3,2.8.6,3.2,2,2.6-.8,3.1-3.1,3.8-5.3-.8-.4-1.8.1-2.3-.8-.6.6-1.3.9-2.1.4-.9-1.3,1-.8,1-1.5-.7-.4-1.4-.1-2.1-.2-.5.5-1,1-1.5,1.4ZM97.9-83.4c-1.6,1.5-3.5,2.4-4.3,4.3.3.3.5.5.8.8,1.4-1.1,2.9-1.8,4.6-1.8.3.5,0,1,.7,1.3,0-1.5,1.4-2.7.6-4.3-.5,0-.7.8-1.2.5-.3-.2-.6-.4-1.1-.8ZM134.1-51.7c1,.5,1.6.8,2.3,1.1.9-1.2,2.4-.4,3.6-.8-.2-.7.6-1,.6-1.3-.7-2.1-2.3-.2-3.4-.9-.8.5-1.3,1.8-3.1,2ZM122-53.5c1.5-.8,2.1-2.1,3-3.1,0,0-.1-.1-.2-.2-.9,0-1-.7-1.3-1.3-.5.2-1,.5-1.5.7v3.8ZM147.8-76.8c1.4.6,2.2,2,3.4,2.9.3-2.2-.4-2.8-3.4-2.9ZM109.9-59.4c-.7,0-1.2-.1-1.3.5-.2.6.7.8.6,1.4-.4.8-.8,1.6-1.4,2.9,2.4-1.2,1.9-2.9,2-4.7ZM112.4-89.9c-2.5-.1-3.6.6-3.4,3,.9-1.8,2.5-1.9,3.4-3ZM138.4-67.5c.8.9-.1,1.8.8,2.4,0-1.2,1.2-1,1.7-1.7.1-.2.7-.3.2-.7h-2.7ZM137-47.2c.7,1.3,1.9,1,3,.9.2-.5.2-.8,0-1-.8-.4-1.1.1-1.5.4-.4-.3-.8-1.1-1.6-.3ZM152.3-53.3c-.2,1.1-.3,2-.8,2.7,0,0,.1.3.2.5.9.4,1.2-.5,1.7-.9-1.1-.4-.3-1.5-1.1-2.3ZM94-68.5c.5,1.4,1.3,1.9,2.6,1.4.1-1-1.2,0-1.2-.9,0-.9-.5-.9-1.4-.5ZM143.1-48.1c-.5,1.2-1.7.1-2.9,1.5,1.5-1,1.8.8,2.8.2.4-.4.1-1,0-1.7ZM141.9-59.5c-1,.3-2.1-.3-3.1.6,1.2-.6,1.9,1.1,3.1.7v-1.2ZM135.5-86.5c.3-.5.3-1.1,0-1.7-.6.4-1.1.7-1,1.5.3.4.6.4,1,.2ZM158.4-51c.4-.1.8-.3,1.2-.5-.3-.5-.7-.4-.9-.4-.3,0-.3-.8-.8-.5-.5,1,.5,1.2.6,1.3ZM145-55.4c-.8-.1-1.6-.7-2.4.2.9.2,1.6.3,2.4-.2ZM138.2-44.6c.6.4,1.2.4,1.7,0,.2-.4.2-.7-.1-1-.5.3-1.1.6-1.6.9ZM106.7-90.1c-.5,1.2-1.4,1.1-2.2,2.2,1.1-.6,1.6,0,2.2-.6v-1.6ZM150.7-71.8c.7.5,1,1.6,2,.7-.5-.4-.8-1.3-2-.7ZM158.7-62.5c.5-.8.4-1.4,0-2.1-.5.7-.4,1.3,0,2.1ZM94-75.3c-.2-.6-.5-.9-1-1.1-.3,1.3.1,1.4,1,1.1ZM149.9-51.9c0,0,.2-.1.2-.2,0-.3,0-.6,0-.8-.2-.2-.6-.3-.8-.2-.6.4,0,.6.2.8.1.2.3.3.4.4ZM141.8-88c1.7.7,1.5,0,1.3-.8-.5.3-.9.5-1.3.8ZM104.2-57.2c.6.4,1,.6,1.2-.2-.4-.1-.8-.3-1.2.2ZM129.4-64.8c.4.5.8.5,1.3,0-.4-.5-.8-.5-1.3,0ZM102-55c-.5.4-.5.8,0,1.3.5-.4.5-.8,0-1.3ZM87.2-65.4c.6.4,1,.6,1.2-.2-.4-.2-.7-.3-1.2.2ZM135.4-55.1c-.4.6-.6,1,0,1.2.3-.4.3-.7,0-1.2ZM94.4-60.7c-.4.6-.6,1,0,1.2.3-.4.3-.7,0-1.2ZM137-49.1c-.4-.5-.8-.5-1.3,0,.4.5.8.5,1.3,0ZM160-59.4c-.5.4-.5.8,0,1.3.5-.4.5-.8,0-1.3ZM118.6-61c.6.4,1,.6,1.2-.1-.4-.3-.7-.3-1.2.1ZM147.7-59.1c0,0-.2-.2-.2-.2-.1,0-.3.1-.4.2,0,0,.2.2.2.2.1,0,.3-.1.4-.2ZM144.8-63.8c0,0-.2.2-.2.2,0,.1.1.3.2.4,0,0,.2-.2.2-.2,0-.1-.1-.3-.2-.4ZM137.2-89.5c0,0-.2.2-.2.2.1,0,.3.2.4.2,0,0,.1-.1.2-.2-.1,0-.3-.2-.4-.2ZM144.9-79.6c0,0,.2-.2.2-.2-.1,0-.3-.2-.4-.2,0,0-.1.1-.2.2.1,0,.3.2.4.2ZM108.8-78.8c0,0-.2.2-.2.2.1,0,.3.2.4.2,0,0,.1-.1.2-.2-.1,0-.3-.2-.4-.2ZM158.1-53.8c0,0-.2.2-.2.2,0,.1.1.3.2.4,0,0,.2-.2.2-.2,0-.1-.1-.3-.2-.4ZM163.3-49c0-.1-.1-.3-.2-.4,0,0-.2.2-.2.2,0,.1.1.3.2.4,0,0,.1-.1.2-.2ZM128.4-66.4c.1,0,.3-.1.4-.2,0,0-.2-.2-.2-.2-.1,0-.3.1-.4.2,0,0,.1.1.2.2ZM97-64.5c0,0,.2-.2.2-.2-.1,0-.3-.2-.4-.2,0,0-.1.1-.2.2.1,0,.3.2.4.2ZM151.8-61.9c0,0-.2.2-.2.2,0,.1.1.3.2.4,0,0,.2-.2.2-.2,0-.1-.1-.3-.2-.4ZM131.1-60.2c0,0,.2-.2.2-.2-.1,0-.3-.2-.4-.2,0,0-.1.1-.2.2.1,0,.3.2.4.2ZM123-24.1c0,0-.2-.2-.2-.2,0,.1-.2.3-.2.4,0,0,.1.1.2.2,0-.1.2-.3.2-.4Z"/>
          <path class="cls-5" d="M161.5-38.9c-.5.3-1,.7-1.9,1.4h-2.2c-1.2-.3-1.1-2.4-2.7-2.6-.2-1.1-.3-2.2.8-2.9,1.8.9,2.1,3.4,4.4,3.7.2-.2.5-.4.8-.7.2.3.5.6.8,1.1Z"/>
          <path class="cls-5" d="M108.6-97.1c-.3,1.7-2.1.6-2.5,2-.4,1.3-2.2-.5-2.3,1.2-.9-.2-1.3-.7-1.5-1.3.6-1.3,1.9-1.4,2.9-2.2,1.5-1.1,2.3.7,3.3.3Z"/>
          <path class="cls-5" d="M118.3-91.4c-.3-.9-.3-1.6,0-2.4,1.1-.4,1.4.5,1.8,1-.3.8-.6,1.3-1.7,1.4Z"/>
          <path class="cls-5" d="M170.2-53.6c1.2,0,.2-2,1.8-1.3.3.7.3,1.5,0,2.4-.8.2-1.1-.4-1.8-1Z"/>
          <path class="cls-5" d="M155.7-43.6c-1.1-.3-1.7-.7-1.7-1.7q1.9-.4,1.7,1.7Z"/>
          <path class="cls-5" d="M167.2-45.9c0,1.4-1,.9-1.7.9-.3-.4-.4-.9,0-1,.5-.2,1.2-.4,1.7.2Z"/>
          <path class="cls-5" d="M87.2-73.9c.6,0,.8.6,1.2.9-.4.5-.7,1.2-1.6,1-.5-.4-.2-.8-.3-1.2.4,0,.6-.2.6-.6Z"/>
          <path class="cls-5" d="M157.8-69.5v-2.3c.6.9,1.3,1,1.2,1.9-.2.7-.8.3-1.2.4Z"/>
          <path class="cls-5" d="M79-51.3c0,.4,0,.8,0,1.1-.6,0-.8-.5-1.1-.8.2-.7.8-.3,1.2-.4Z"/>
          <path class="cls-5" d="M77.4-68.9c.4.5.4.8.1,1.2-.7-.2-.5-.6-.1-1.2Z"/>
          <path class="cls-5" d="M107.3-98.6c0,0-.2.2-.2.2,0-.1-.2-.3-.2-.4,0,0,.1-.1.2-.2,0,.1.2.3.2.4Z"/>
          <path class="cls-5" d="M108.6-97.7c-.3,0-.5,0-.6-.4,0,0,.1-.2.2-.2.3,0,.4.3.4.6Z"/>
          <path class="cls-5" d="M108.6-97.1v-.6c.3,0,.6,0,.5.4,0,.1-.3.1-.5.2Z"/>
          <path class="cls-5" d="M103.8-93.2c.1,0,.3.1.4.2,0,0-.2.2-.2.2-.1,0-.3-.1-.4-.2l.2-.2Z"/>
          <path class="cls-5" d="M116.2-91.4c-.3,0-.5,0-.6-.4,0,0,.1-.2.2-.2.3,0,.4.3.4.6Z"/>
          <path class="cls-5" d="M84.9-84.4c.1,0,.3.1.4.2,0,0-.2.2-.2.2-.1,0-.3-.1-.4-.2,0,0,.1-.1.2-.2Z"/>
          <path class="cls-5" d="M85.9-82c-.3,0-.5,0-.6-.4,0,0,.1-.2.2-.2.3,0,.4.3.4.6Z"/>
          <path class="cls-5" d="M84.7-77c-.3,0-.6,0-.5-.4,0-.1.3-.1.5-.2v.6Z"/>
          <path class="cls-5" d="M95.2-88.4c-.1,0-.3-.1-.4-.2,0,0,.2-.2.2-.2.1,0,.3.1.4.2,0,0-.1.1-.2.2Z"/>
          <path class="cls-5" d="M81.5-71.4c.3,0,.5,0,.6.4,0,0-.1.2-.2.2-.3,0-.4-.3-.4-.6Z"/>
          <path class="cls-5" d="M126.8-45.9c0,0-.2.2-.2.2,0-.1-.2-.3-.2-.4,0,0,.1-.1.2-.2,0,.1.2.3.2.4Z"/>
          <path class="cls-5" d="M75.2-65.1c-.3,0-.5,0-.6-.4,0,0,.1-.2.2-.2.3,0,.4.3.4.6Z"/>
          <path class="cls-5" d="M118.7-45c.3,0,.5,0,.6.4,0,0-.1.2-.2.2-.3,0-.4-.3-.4-.6Z"/>
          <path class="cls-5" d="M128.5-44.3c0,0,.2.2.2.2-.1,0-.3.2-.4.2,0,0-.1-.1-.2-.2.1,0,.3-.2.4-.2Z"/>
          <path class="cls-5" d="M105.9-43.7c0,0,.2.2.2.2-.1,0-.3.2-.4.2,0,0-.1-.1-.2-.2.1,0,.3-.2.4-.2Z"/>
          <path class="cls-5" d="M118.1-41.9c0-.3,0-.5.4-.6,0,0,.2.1.2.2,0,.3-.3.4-.6.4Z"/>
          <path class="cls-5" d="M118.1-41.9c0,.3,0,.5-.4.6,0,0-.2-.1-.2-.2,0-.3.3-.4.6-.4Z"/>
          <path class="cls-5" d="M144.4-41.5c0,0-.2.2-.2.2,0-.1-.2-.3-.2-.4,0,0,.1-.1.2-.2,0,.1.2.3.2.4Z"/>
          <path class="cls-5" d="M80.2-39.6c0,0-.2.2-.2.2,0-.1-.2-.3-.2-.4,0,0,.1-.1.2-.2,0,.1.2.3.2.4Z"/>
          <path class="cls-5" d="M114.9-40c.3,0,.5,0,.6.4,0,0-.1.2-.2.2-.3,0-.4-.3-.4-.6Z"/>
          <path class="cls-5" d="M118.2-39.6c0-.1.1-.3.2-.4,0,0,.2.2.2.2,0,.1-.1.3-.2.4,0,0-.1-.1-.2-.2Z"/>
          <path class="cls-5" d="M152.1-40c.3,0,.5,0,.6.4,0,0-.1.2-.2.2-.3,0-.4-.3-.4-.6Z"/>
          <path class="cls-5" d="M70.6-58.9c-.1,0-.3-.1-.4-.2,0,0,.2-.2.2-.2.1,0,.3.1.4.2,0,0-.1.1-.2.2Z"/>
          <path class="cls-5" d="M154.3-39.4c0,.1.2.3.2.4,0,0-.1.1-.2.2,0-.1-.2-.3-.2-.4,0,0,.1-.1.2-.2Z"/>
          <path class="cls-5" d="M95.4-29.9c-.3,0-.5,0-.6-.4,0,0,.1-.2.2-.2.3,0,.4.3.4.6Z"/>
          <path class="cls-5" d="M92-29.2c0,0,.2.2.2.2-.1,0-.3.2-.4.2,0,0-.1-.1-.2-.2.1,0,.3-.2.4-.2Z"/>
          <path class="cls-5" d="M131.8-25.8c0,0-.2.2-.2.2,0-.1-.2-.3-.2-.4,0,0,.1-.1.2-.2,0,.1.2.3.2.4Z"/>
          <path class="cls-5" d="M126.3-51.3c.3,0,.5,0,.6.4,0,0-.1.2-.2.2-.3,0-.4-.3-.4-.6Z"/>
          <path class="cls-5" d="M113.3-53.8c-.5-.4-.5-.8,0-1.3.5.4.5.8,0,1.3Z"/>
          <path class="cls-5" d="M115.1-52.6c0,0-.2-.2-.2-.2.1,0,.3-.2.4-.2,0,0,.1.1.2.2-.1,0-.3.2-.4.2Z"/>
          <path class="cls-5" d="M147-71.4c0-.3,0-.5.4-.6,0,0,.2.1.2.2,0,.3-.3.4-.6.4Z"/>
        </g>
      </g>
      <g id="Trees">
        <g>
          <path class="cls-2" d="M117,332.2c-5.6,2.2-3,7.6-4.2,11.7h-18.1c-1.6-2.2-3.6-5-5.9-8.2-2.5,7-6.9,7.5-11.6,8.8-4.5,1.3-8.3-1.3-13.8,0-1.1-1.5-2.8-3.6-4.1-6-1.2-2.2-1.9-4.8-2.7-7.1,1.2-3.9,4.9-.2,6.7-3.3-4.8-.8-6.8-6.1-10-8.2-3.3,3.8-6.2,7.2-9.2,10.6-6.2,0-10.6-3.4-15.4-4-4.2-.5-8.6-2.2-12.4-1.8-2.4-3.4.9-4.6.6-7.5-6.8.6-6.3,8-9,12.1-2.4.2-4.9.8-7.4-.5-1.6-6.5,2.2-10.3,6.5-11.1,3.8-.7,5-4.2,7.7-5.2,2-.4,2.7,1.2,3.9,2.3,1.5-1.6,3-3.2,4.6-4.8h6.4c1.7-1.6,1.3-4,.9-5.7-.7-2.9-4.8-3.8-4.2-7.8,1.8-2.1,3.9-1.2,5.9-.6.4,1.4.9,2.8,1.4,4.5,1.2-1.3,2.2-2.3,3.9-4.1-2-1.1-3.9-2.1-5.4-2.9,2.5-8.5-2.4-14.5-1.5-20.2,4.9-8.2,8.8-16.8,19.3-14.2.1-4.1-3.1-5.2-4.3-7.8-1.6-3.5-1.5-6.7-1.9-10.1-.5-3.6,1.7-6.2,3-8.3,1.6-2.6.4-6.7,3.8-7.2-.6-4-3.5-5-4.7-8,1.6-3.5,3.6-7.3,2-11.8-1.5-1.6-3.4-.4-5.1-.8-2.5,4.1-3.5,9-4.5,14.1,1.5,1.2,1.5,3.9,1.1,6.8-1.8,1.8-3.8,1.2-6.7,0,3.6-5.9,2.3-12.6,2.6-19.3,2-5.5,8.7-5.6,10.6-10.6,2-5.1,4-9.8,7-12.3,5.9-2.8,9.8,1.1,14,2.4,2.4.7,4.9-1.2,7.6,1.3,2,1.9,3,.6,6.8-6.2-6.1,0-11.2-3.8-17.5-3.3-2.8-27.3,5.2-49.6,21.8-70.2,3.5,6.8-1.4,7.7-2.5,10.6.7,1.1,2.3,1.7,2.7,1.1,2.1-3.4,6.1-4.1,8.3-7.8,1.4-2.4,4.4-4.6,7.8-4.4,3.3.2,6.5,0,9.8,0,3.1-2.3,7.1-3.4,9-7h11.2c-3.8,3.6-5.8,6.7-5.6,11.6.1,2.6-2.6,5.2-3.3,8.1-.8,3.2-5.6.3-5.1,5.3,4.1,5.2,7.7-2.4,12-1.2,4.1,1.2,8.6.2,13.5.2v-15.4c3.3-1.9,6.3-3.6,9.2-5.2.3-1.1-.5-2.6,2.6-4.1,2.6-1.1,4.6.7,6,7.4-3.2,3.6-6.3,7-9.4,10.4,2.9,3.3,5.6,1.5,7.9,2.1,3.6-5.6,6-11.9,11.6-17.1-4.1-3.2-5.3-7.9-8.1-11.6-5.1,3.2-10.7,1.3-16,2-2.7,2.3-4.5,5.1-2.8,9.4h-6.1c-1.6-1.8-.5-4-.9-5.9-1.3-2-3.3-.8-5.2-1.2-3.3-5.3-4.2-13.1-11.5-14.9-1.8-2.3.7-6.7-2.9-8.3,1.4-3.6-5.1-4.7-3.1-6.9,4.8-11.1,14.2-10.1,20.5-15-1.1-1.2-2.1-2.4-3.1-3.5-1.5.8-2.3,3.2-4.5,2.3-1.9-2.1-1.6-3.9,1.6-9.2,5.7-2.5,10.8,1.5,16.1,2.3.7,3.4,3.5,5.6,3.1,9.1,1.8.1,2.9.6,3.7-.5,4.1-5.4,10.6-7,15.5-11.3,2.5-2.2,5.4-4,6.6-7.1,2.5-6.4,7.2-7.2,12.2-7.8,1.8,3.9,1.1,6.6-1.5,8.9-2.4,2.2-5.6,0-8.3,1.3v6.1c2.5,1.6,5,.6,7.4.8,3.4-2,3.1-7.1,6.4-9.5h4.9c.6,3,1.8,5,4.6,5.3.9,1.9,1,4.2.1,5.7-3,5-8.2,6.9-12.8,9.5,2.4,2.8,5.7.1,8.2,1.8,4.5,2.7,1.3,15.4,11.2,11,1.6-4.9-4.1-5.3-4-9.1-.4-4.8,4-8.5,2-13,2.1-4.3,6.7-3.9,8.8-7.9-4.8-.8-6.7-7.9-12.3-5.9-1.3-3.2-.7-6-.6-9,5.6-5.7,13.2-7.5,20.1-10.1,5-1.9,6-4.5,6.1-9.2,2.2-2,4.8-.5,8.1-1.1,1.7,2.4,3.7,5.2,5.5,7.7h4.9c2.4,2.7,4.7,5.3,7.2,8,.1,3.4.5,6.9,4,8.9,2.9.4,3.8-2.9,6-4.7h11.2c4.1,7.4,12.9,8.6,18.9,15.6,15.8-13,32-22.6,51.2-11.2,1,5.8-1,11.4,2.7,14.8-.5,3.6-3.5,1.5-4.4,3.7v5c2.4,2.6,5.1,5.3,8.1,8.5,1,.3,2.9-1,4.5.7,1.7,4.4-3.1,4.7-3.5,8.3,1.1,1.9,3.3.3,5.2.3,1.6-1.5-.5-7.3,4.3-4.4,1.4-3.7,1.5-6.6-1.4-8.6,1.4-1.5,2.3-3.2,3.5-3.6,5.1-1.9,10.3-3.9,15.6-4.8,5.5-.9,10.6,2.3,16,3.7,10.9,2.8,19.7,10.2,28.3,17.4,4.5,3.7,9.4,5.9,14.7,8.7v7.8c4.2,1.5,7,4.2,9,8,.2,3-3.3,4.5-2.2,7.6,0,3.7,4.3,4.2,4.4,7.8.1,3.3-2.7,1.6-3.9,3.1,1.4,5.4,6.9,5.7,10.5,10.4,1.3,2.1-1.9,7.1,2.1,9.6-4.4,4.7-8.3-4.6-13.3.1,2.2,5,4.5,10.3,6.8,15.6-.3,2.7-2.6,3.7-4.2,6.1v9.4c-1.4,1.7-2.4,2.9-3.7,4.5-4.2-3.2-8.8-4-14.1-2,.9,5.4,8.3,4.8,7.3,11.7,4.8-1.7,9.1.9,13.9-2.4,3.5-2.4,9.1-1,12.9,2.2,3,2.5,6.7,5.3,5.5,10.3,4.9,9.7,16,10.4,21.4,20.3v7.1c-1.9,3.7-5.1,4-8.5,3.5-.1,5.9,3.8,7.2,5.6,9.8,4.2.4,4.5-5.3,8.6-5,3.4.3,4.3,3.7,6.7,4.9,1.9-1.9,0-4.8,1.3-6.8q4.7,1.7,7.9,7.8c-.1,2-3,3.2-1.3,5.8,2.8,4.5,2.9,8.7-1.6,12.9h-8.5c-3.1,2.5-3.6,6.1-5.3,8.9q6.3,1.6,9.9,8.1c1.7.3,2.7-.6,3.5-2,2.1,2.6,4.2,5.2,5.6,6.9h7.9c1,1.2,2.1,2.3,3.2,3.6-2.2,2.9-5.8,5.1-4,10.1,4.1,2.6,8.5,4.9,13.4,2.9,2.2,3.2,5.7,4.7,6,8.7-2.4,3.2-5.6.4-8.2,2-1.5,1.6-.3,3.8-.7,5.7-4.1,2.8-8,5.2-13.1,1.5-2.6-1.9-7.1,1.5-9.8-2.6-1.1,1-1.8,2.7-3.5,2.4-1.8-.3-4-.2-4.6,2-3,11-13.5,8.9-19.6,14.4-1.2,1-3.4.7-5.1.7-5.4,0-11.2-1.2-16.2.4-5.7,1.8-9.9-6.1-16-1-4.1,3.4-10.3,3.3-15.2,5.7-5.1,2.5-10.2,2.3-15.3,2.2-1.9-2.1-3.7-4.1-5.5-6v-4.9c-1-1.2-2.3-3.5-3.1-3.3-3,.8-3.8-4.2-4.8-3.7-6.4,1.9-9.9,5-13.3,8.4-2.8-1.4-5.5-3.2-8.8-3-.3-2.4-.7-4.6-1-6.8-5.2,2-2.4,9.1-7.1,11.8h-9c-3.7-6.3-11.8-4.3-15.7-10.3-3.8-5.9-10-8.7-14.6-13.7h-14.3c-6.6,3.7-12.5,6.9-16.8,12.9-1.2,1.6-3.3,2.8-5.2,3.4-6,1.9-10.3,6.3-14.6,11.8,1.2,5.6-3.4,10.6-2.2,16.7.4.5.7,1.4,1.2,1.7,4.1,1.9,1.6,7.6,4.6,10.1,2.4,2.1,5.3,3.7,7,6.3,2.2,3.4,3,7.7,2.1,12.5h10.2c6.9,3.2,11.8,9.5,18,13.5,4.3,2.7,5.2,10,11.6,11.2,2.6-3.7,7.1-3.8,10.3-2.2,3.9,1.9,9.5.8,11.6,6.9,12.2.7,24.6-1.7,37.4,4.5h-255.3q8.9-4.4,20.6-4.4h21.2c8-7.1,16-9.8,25.5-5,7.7-4,15.7-7.8,23.6-10.5,6-6.4,6.6-15.5,11.1-22.6,1-6.5-1.9-14,2.4-20.7-1.5-2.8-4.3-5.8-4.2-8.7,0-6.1-3.6-9.4-6.9-11.3-5.9-3.4-11.1-9.4-18.4-8.8-4,.4-4.8-4.1-7.9-5.3-7.3-2.8-15.2-3.9-21.8-8.7-1.8-1.3-3.5-.6-5.2-.7-4.3-.2-8.7,0-13,0-7,6.7-16.3,9.3-22.9,15.8,0,4.2,3,5.1,4.4,7.4v7.3c-1.8,2-3.6,4-5.5,6.1-6.2-.5-11.7,2.6-15.5,3.8-2.4-1.4-4-2.3-5.6-3.7,1.6,0,2.2-.5,2.5-1.6,0-.2-.5-.8-.6-.7-1,.3-1.5,1-1.8,2.3ZM448.3,305.5c2.4-1.8,5.3-2.9,3.8-7.6-2.8,1.6-4.3,3.7-3.8,7.2-1-.2-1.7.3-1.9,1.4,0,.2.5.8.6.7,1-.3,1.5-1,1.4-1.8ZM307.6,266.3c-4.1-.8-8,1.5-10.5-2.2-3.2,1.9-6.7,3.5-8.7,6.9-2.5-2.1-3.5-5.3-5.8-3.9-1.6.9-3.2,1.9-5.4,3.2,7.5,9.2,1.3,18.4,1.3,28,4.7-1,7.7-3.2,10.6-6,3.5-3.4,1.8-9,5.1-11.8-1.4-2.3-3.4-3.3-2.5-5.9,3.4-.4,5.3-3.8,7.7-6.1,1.8,2.8-.3,5.7,3,8-1-4.9,2.5-6.4,4.5-10.3,1.8-.4,2.1,1.8,3.4,2.3,1.2-2,4.7-3,2.5-6.7-2-.4-4.1-1.4-5.9.8,0,.8,0,1.6.8,3.8ZM239.4,284.4c-1.8-1.8-3.6-3.7-5.8-6-3.8-.6-8.7,1.4-12.2-3.3-1.4,3.5-5,2.1-6,5.1.4,3,3.6,5.1,2.2,8.7,3.8,5.8,9.1,9.2,14.7,12.4,4.2,2.4,6.5,1.2,8.6-1.4,2.5-5.9-2.3-10.1-1.5-15.5ZM424.3,94c.3-2.3-.2-3.9-3.7-3.4-.7.8-1.8,2.3-2.8,3.4-.5,3.2.5,5.6,2.1,8.3-2.9,1.1-6-.8-8.6,1.4,0,1,0,2.1.1,3,3.6,2.4,8.2-1.5,11.2,2.7,3.8-3.2,7.4-2,11.6,2.2.3-7.3,5.9-1.5,7.7-6.3-3.3-8.6-12.4-6.2-17.7-11.3ZM189.5,285.2c8.4,2.1,15.2,8.2,23.4,7.6,1.1-4.8,0-8.9-3.4-9.3-3.5-.4-6.2-3.8-10.2-2.7-4.1-3.9-7.4-10.1-14.4-9.5.1,5.6,4.5,8.4,4.6,13.9ZM76.2,267.2c-3.2-1.4-6.7-5.5-9.4-3.2-3.8,3.2-7.5,1.5-11.7,2.3-.3,3.4-6.3,3.5-4.5,9.6,9.4.1,18.8,1,25.6-8.7ZM259.7,36.3c-2.5-2.6-4.3-4.5-6.3-6.5h-8.9c-1.3,2.1-.6,4.1-.6,6.9,5.8-2,5.4,5.1,8.1,8.2,2.7-3,4.9-5.4,7.8-8.6ZM354.6,254.7c-5.5-1.5-9.5.9-11.9-3.1-1,1.2-2,2.3-3.1,3.4-.1,4.6-1.2,9.8,5.2,11.3,2.7-3.2,5.5-6.6,9.7-11.6ZM54.1,284c-7.6-.5-12.8-5.9-17.7-3,3.1,3.6,6.5,7.6,10,11.6,1.7-1.9,3.8-4.3,7.7-8.7ZM315.5,274.6c-1.9-1-3.8-2.1-5.8-3.2-3.6,4.1-7.7,7.6-9,13.5,2.3,1.4,4.8.4,7.2.7,2.5-2.8,5-5.6,7.5-8.5.2-.2,0-.8,0-2.5ZM289.6,243.2c3,.3,14.2-2.5,17.4-3.8,2.5-1,2.2-2.4,1.5-4.4-5.8-2.4-10.6,2.8-16.2,2.6-1.2,0-3.8,2.5-2.7,5.6ZM167.6,268.8v7c4.8-2.2,5.1,5.3,8.8,5.1,1.9-1.4,3.2-2.4,3.9-2.9-2.9-3.6-5.2-6.6-7.2-9.2h-5.4ZM363.6,269.7c-2.8-1.9-5.3-.8-5.6-.8-2.8,3.1-4.6,5.2-6.4,7.4,1.1,1.8,3.3,2.6,7.8,1.7.6-.9,2.2-3,3.7-5.3.4-.6.3-1.5.6-3ZM77.5,325c1.4,1.5.2,5.4,3.8,4.6,1.7-1.7,4.4-2.7,3.4-6.3q-5.3-1.5-9.7-5.7c-1.2,2.1-4.7,3.1-2.4,6.9,1.6.2,3.3.4,4.9.6ZM183.1,199.2c-1.1,1.5-5.3.8-6.6,4.5-.3.9,0,2.2,0,3.6,2.8,0,5.2,0,7.7,0,.9-1.6,3.1-2.3,3-5.6-1-.6-2.6-1.6-4-2.4ZM154.7,285.3c-4.9,2.1-8.1-4.4-12.9-1.3-.3,2.2-1.2,4.5.8,6.6,3.9-.9,9.1,2.3,12.1-5.3ZM331.2,276.7c1.6-3.2,5.8-4.1,6.3-9.2-1.2-1.3-2.2-2.4-3.2-3.5-2,2-4,4-5.9,5.9.7,2.4-.5,4.7,2.9,6.8ZM398.3,282c2.3,3.5,4.8,4.8,8.2,2.9.4-2.2,1.2-4.5-.3-6.2-3.3-1.3-5.6.2-7.9,3.3ZM197.2,271.4c.6-7.9.7-7.9-5.6-9.9-.6,4.8,0,8.3,5.6,9.9ZM455.9,227.5c3.3-1.3,5.5-2.7,4.6-5.6-.7-1.7-1.4-3.3-2.1-4.9-3.5,3.1-4.8,5.9-2.5,10.4ZM354.8,292.1c2.8,1.4,5.7,1.3,8.6,0v-3.5c-2.3.6-3.7-1.6-5.9-2.7-.9,1.9-3.5,2.8-2.7,6.2ZM430.2,209c4.6,1.9,7.3,1.1,9.1-3.1-1.5-1-2-3.5-4.2-3.3-1.6-.2-2.2,1.6-3.1,2.6-.6.7-.9,1.9-1.7,3.8ZM360.6,260.3c8.3.7,8.7.2,8.3-6.4-4.2-.3-5.1,4.1-8.3,6.4ZM297.9,39.9c-2.8-1.1-5.5-1-8.3,0,1.8,4.4,4.6,5.1,8.3,3.7v-3.6ZM143.3,240c4.7-1.3,7.2-2.7,6.9-6.5-1-2-2.2-1.3-3.2-1.5-1,2.2-2,4.3-3.7,8ZM174.2,45.3c-2.2-1.9-4.4-1.9-6.4-.2-.4,1.8-.4,3.3,1.5,4,2.5.4,3.2-2.4,4.9-3.7ZM181.7,75.6c-2.6-2.3-3.4-5-5.9-4.7-2.6.9-2,2.7-.9,4.7h6.8ZM429.5,300c3.5-.3,5.6,1.6,7.8-.9.1-1.6.3-3.2-1.8-3.8-2.4-.4-3.1,2.5-6,4.7ZM131.6,290.5c-2.6,0-4,1.6-5.3,4.5h5.9c.9-2,.7-3.3-.6-4.5ZM475.2,309.8c3.5-.3,5.6,1.6,7.8-.9.1-1.6.3-3.2-1.8-3.8-2.4-.4-3.1,2.5-6,4.7ZM360.2,212.5c1.5-1.6,1.6-3.3,0-4.9-1,.2-2.2-.5-2.9,1-.9,3,.2,4.2,3,3.9ZM158.1,271.3c-3.7-1.1-4.3.6-3.3,3.5,1-1.1,2.1-2.3,3.3-3.5ZM493.2,286c-3.7-1.1-4.3.6-3.3,3.5,1-1.1,2.1-2.3,3.3-3.5ZM404.6,86.8c2,1.6,3.4,2.3,4.3-.4-1.3-1.3-2.5-1.2-4.3.4ZM86,158.8c1.6-1.7,1.6-3.3,0-4.9-1.6,1.7-1.6,3.3,0,4.9ZM209.1,257.5c-2-1.5-3.4-2.2-4.2.4,1.4,1.2,2.6,1.3,4.2-.4ZM481.1,286.9c-2-1.6-3.4-2.3-4.3.4,1.3,1.3,2.5,1.2,4.3-.4ZM64.3,324.8c1.3-2.3,2-3.8-.4-4.7-1.1,1.5-1.2,2.9.4,4.7ZM73,339.5c1.3-2.3,2-3.8-.4-4.7-1.1,1.5-1.2,2.9.4,4.7ZM427.6,300.3c-1,.8-1,1.6,0,2.4,1-.8,1-1.6,0-2.4ZM438.5,90.5c1-.8,1-1.6,0-2.4-1,.8-1,1.6,0,2.4ZM392.8,119.7c1-.8,1-1.6,0-2.4-1,.8-1,1.6,0,2.4ZM417.8,81.9c.7,1.1,1.4,1.1,2.2,0-.7-1.1-1.4-1.1-2.2,0ZM451.5,227.1c-1,.8-1,1.6,0,2.4,1-.8,1-1.6,0-2.4ZM307.9,29.5c-1,.8-1,1.6,0,2.4,1-.8,1-1.6,0-2.4Z"/>
          <path class="cls-4" d="M542.5,293.4c4.1-1.3,3.7,1.2,2.3,4.8-.8-1.6-1.5-3.2-2.3-4.8Z"/>
        </g>
        <g>
          <path class="cls-3" d="M620.3,316.3c-4.3-1.3-6.1,2.5-8.7,5.5h-13.8c-1.3-1.9-3.4-4.9-6.2-8.9v-17.5c-2.9,5.7-9.1,6.9-8.2,14,0,.2-1.4.7-2.1,1-.7.3-1.5.7-2.4,1.1v8.5c-3.5,3.9-5.8,9.9-12.3,7.4-1.7-1.5-.5-3.6-.9-5.4,1.8,0,2.7-.9,2.6-2.9,1.3.2,2-.4,2.3-1.7,0-.2-.6-.9-.8-.9-1.2.3-1.8,1.2-1.5,2.6-1.8,0-2.7.9-2.6,2.9-9.2,4.8-16.9,2.4-23.4-7.3,1.5-5.5-4.1-3.2-5.2-5.9,1.5-1.6,3.4-3,2.3-6.3-1.2-.5-2.7-1.1-4.2-1.6-2.2-4.8,0-8,3.1-10.8,1.5.6,1.9,3.2,4,2.8.3,2.7-.8,5.7,1.5,9.2,1.1-6.5,6.7-1,9.2-5.4-1.3-6.3-3.9-4.2-6.6-1-1.5-.6-2-3.2-4.1-2.8-.9-4,1.2-6.4,3.7-8.4,2.2-1.8.7-5.9,3.6-7.1-9.9-6.4-14.5-5.3-26.8,6.7h-11.3c-2,2.7-4.4,6.1-6.8,9.4-7.1-2-13.4-4.9-20.3-3.4-1.4.3-2.3,1.1-2.1,2.9-6.3-4.2-3.4,7.1-8,5.8-3.4,5.4-8.9,9.6-7.6,17.5-4,.5-4.8,6.9-9.9,6.1v12.3c-4.8,5.2-9.1,9.9-13.5,14.6-.2,6.9,1.3,13.5,5.4,17.7,3.7,3.8,10.2,2.7,14,7.5h46.7c1.8,8,9.3,7.5,13.8,11.5,1.4,1.3,5.1,1.1,7-2.8,5.1,13.9,18.4,12.7,28.7,19-50.8,1.8-168.7,0-268.2,0,3.6-4,7.4-7.8,11.8-12.6,2.4.6,5.2-1.5,8.1-3.4,3.4,2.5,7.6,3.2,10.5,7.1,8.9-6.2,18.1-8.3,27.9-6.8.4-2.1.6-3.4,1-5.4h13.6c3-1.1.2-5.9,4.1-6.8,3.3-.7,7.8-2.1,9.3-5.9,2-5.1,8.3.8,9.1-5.5,6.3.3,7.7-5.2,10.6-9.9,4.2-6.8,7.3-14.2,10.5-21.4,4.3-9.8,11.1-12.8,20.3-12.7,2.9-10.7,12.8-15.5,16.1-26.2,2.1-7,3.1-12.6.1-19.7-1.5-3.6-4.2-2.3-5.4-4.7.8-1,1.5-2,2.5-3.2-3.7-3-5.9-8.1-10.4-10.1.2-1.4-.4-2.3-1.5-2.6-.2,0-.8.6-.8.9.3,1.3,1.1,2,2.3,1.7q1.2,5.2,5.2,10.3c-3.2,3.1-5.4,7.4-10.1,8.4-.7,2-.2,3.7,1,4.7,2.2,1.9-.2,2.3-.4,3.3-3.5,13.4-4.6,15.2-17.2,4.8-2.9,5.1-9,5.7-12.2,10.8.9,1.1,1.7,2.1,2.5,3.1-5.2,9.4-6.3,9.9-22.8,10-.4,6.8-2.9,11.6-9,14.8-5.4,2.9-10.2,4-15.2.8-3-1.9-7.1-2.1-8.4-.8-4.2,4-6.3-.9-9.3-1.3-2.1-4.6,1.8-7.7,2.2-10.7-2.3-7.9-8-4.8-12-6-3.5-3.7-5.8-7.9-6.4-12.7,5.2-5.1,8.7,3,13.2,1.4-.2,1.4.4,2.3,1.5,2.6.2,0,.8-.6.8-.9-.3-1.3-1.1-2-2.3-1.7.7-4.2,4.6-5.5,6.4-8.7,1.8,1.9,3.6,3.8,5.4,5.7,1.5-1.7,1.8-3.5.4-5.1-3.1-3.7-7-6.9-8.3-12.2-.9.9-1.9,1.9-3,3-6.6-2.1-11.3-6.2-11.6-14.6,2.7-1.5,5.2-2.8,8-4.4-.4-4.4,1.1-9.1-1-13.3-1.5.2-2.3.3-4.2.5,1.3,6-1.9,11.2-2.7,17.2-.7-.1-1.6-.1-2.4-.1v-4.8c-4.9-1.6-10-3.2-15.2-4.8-.4-4-.5-8.4-5.3-11.1.2,4.8-2.3,8.7-2.9,13.1-.4,2.8,0,5.8,0,8.7,1.5,3.2,5.9,4.4,5.1,9.3-4.5,3.2-6.5-.8-7.6-4-3.7-10.4-9.6-21,.3-31.8-1.5-4.2-4.7-8.5-2.8-13,1.3-3.1,1.1-8.7,6.4-8.5-.2-6.9,6.6-10.5,6.4-17.4,2.7.5,4.6-.9,6.8-2.8,5.1-4.6,11.7-5.6,17.6-8.3,4.3-2,11.5,2,15,6.9,1.5,2.1,3,4.9,6.2,4.2q-1.4-7.4,2.2-17.2c2.7-.1,5.7-.3,8.8-.5,2.5-7.5-1.7-16.2,3.4-23.1,1.3.2,2-.4,2.3-1.7,0-.2-.6-.9-.8-.9-1.2.3-1.8,1.2-1.5,2.6-4.3-.8-4.8-5.4-6.7-8.6-1.3,3-2.5,5.8-3.7,8.6-1.8,0-2.7.9-2.6,2.9-6.9,2.5-13.9,4.9-20.8,7.4-.1,0,0,.9,0,1.3-1.6-.3-3.4.8-5.4-1.8,4-6.5,5.8-15,13.7-18.6,2.3-1.1,4.3-2.7,4.7-5.8.7-.3,2-.5,2.1-1,.4-1.7-.8-2-2.1-1.9,0-2.7.9-6-2.6-6.7,2.4-5.1,8.8-6.7,7.8-13.7,1.3,0,2.6,0,3.9,0,2,2.3,1.8,6.3,5.2,8.4h13.5c2-2.6-2.4-2.9-1.8-5.4.5-2.3.1-4.8.1-7.6,3.1-1.6,6.4-3.3,10.2-5.2-1.2-9.2,6.9-10.6,10.9-15.9,5.1-6.8,12.9.9,17.1-7.5.5,3,.8,4.3,1.1,5.9,1.9,2.2,4.4,1.2,7.3.4v-12c4.1-5,9.5-6.9,13.2-11.7,6-7.7,13.4-10.5,21.7-4.6,3.4-1.9,1-5.4,2.2-7.9.7-1.4,2.1-.9,3.4-1,3.1,3,.2,7.3,1.8,10.7,2.8,1.5,6.8,1.8,7.3,6.4.3,2.9,2,4.3,3.6,5.5,1.8,1.4,4.1,1.5,4.3-2.2,4.8-.4,8.1,3.3,11.5,5.3,7.1-2.8,11.4-9.5,17.2-14.3,4.3-.5,8.9,1.6,13.1-.7-.1-2.1.3-3.6-1.1-4.5-4.8-1.9-8,2.7-12,5.2-2.2.3-4.3.3-6.6.3-3.3-3.5,1.2-9.8-4.8-13.6,2.6-2.3,4.7-4.8,7.2-6.4,7.3-4.7,15.4-5.6,21.7.8,4.1,4.1,8,4.6,12.3,4.6,2.8,2.3,0,5.9,2.1,8.1,1.7,1.1,4,1.1,4.3-.8.9-6,5.5-6.6,8.9-7,7.4-.9,14.9-.2,22.3-2.8,4.5-1.6,10.1-1.6,15.6,5.7,1.1,4.3,3.9,11.4,2.7,19.1,3.5,2.1,7.9-.5,9.5,4.4,1.3.7.6,1.1.2,2.1-3.2,7.9-3.3,10.8-1.2,17.5,4.4-.3,8.2,2.3,12.2,4.5-.9,1.4-1.8,2.8-2.4,3.8-.1,3.6,2.5,4.4,3.6,6.4,2.4-4.5,8.3-.7,10.6-5.4,5.8,3.7,3.6,10,4,16,3.2,3.3,6.7,6.8,10.1,10.3v13c-3.6,5.8-10.3,9-14.9,15,4.3,2.5,9.6-.3,14.4,1.4,2,6.5,4.5,12.3,11.2,14,1.9,4.1,3.2,8.4,6.4,11.6,4.1,4.2,7.3,9.3,6.5,15.8-.8,6.5,8.1,6.5,5.3,13,3.2.4,5.2.6,7.1.9,1.4,2.5.7,4.8.6,7.1-3.6,5.3-6.2-5.8-10-.5,2.6,4.4,7.7,7,8.6,13.4,7.2-.2,13.5-2.6,18.6-8.7,1.2,1.4,2.4,2.7,3.9,4.3-.9,7.8-6.8,11.3-10.4,16.2-3.8-1.1-1.7-4.9-3.9-6-1.7,6.5-7.5,7-11.4,9.8,1.2,1.8,2.4,3.6,3.1,4.6,5.6.7,6.1-6.9,10.7-5.7,1.9,1.2,1.1,3.3,1.6,5,1.8,6.7,4.6,8.1,10.1,5.4,2.9-1.5,5.7-3.2,9.3-5.3,1.7,3.9,2.6,7.1-.6,10.1-5.2,4.9-9.7,11.9-18.1,5.4-2.3-1.8-6.7-.3-11.7-.3,2.3,3.1,3.9,5.3,5.6,7.5-1.8,2-5.1,1-6.4,4.3-.9-2.1-1.7-4.1-2.5-6.1-6.9.3-6.1,6.5-7.3,11.3-3.2.3-6.5.7-11.9,1.3,11.2,4,20.1,8.5,29,1.7,2.9,1.9,1.6,4.6,2,7-2.2,3.2-7.6,2.1-7.9,7.5-6.9-4-13,3.3-18.9.1-4.7-2.6-9.9-4.9-12.2-11.1-.4-2.4,1.5-3.2,2.5-4.7-1-2.2-4.9-3.6-1.3-7.2.9.8,1.7,1.6,2.8,2.6,1.1-1.2,2.3-2.4,3.6-3.8-.4-.7-.7-1.4-1-2-1.9-3.6-5.2-2.5-8-2.9-4.4-.6-6.7-3.5-6.2-8.7,1.3.2,2-.4,2.3-1.7,0-.2-.6-.9-.8-.9-1.2.3-1.8,1.2-1.5,2.6-3.5-.3-2,3.3-3.1,5-1.8,1.8-4,.4-6,.9-1.8,2.8-1.9,7-5.4,8.4-3.4-2.6-5-6.2-5.4-11.8-1,1.9-1.9,3.8-2.9,5.7-1.8,3.7,4.7,4.4,1.9,9,4.1.2,7,.4,10.5.6v25.9ZM555.3,304.7c-.2,1.4.4,2.3,1.5,2.6.2,0,.8-.6.8-.9-.3-1.3-1.1-2-2.3-1.8.2-1.4-.4-2.3-1.5-2.6-.2,0-.8.6-.8.9.3,1.3,1.1,2,2.3,1.8ZM313.3,228.9c-1.2-.2-2,.4-2.3,1.7,0,.2.6.9.8.9,1.2-.3,1.8-1.2,1.6-2.6,1.2.2,2-.4,2.3-1.7,0-.2-.6-.9-.8-.9-1.2.3-1.8,1.2-1.6,2.6ZM585,295.6c-2.7.9-5-1-6.3,2.8,2,.4,3.7,1.4,5.2-2.4,1.2.2,2-.4,2.3-1.7,0-.2-.6-.9-.8-.9-1.2.3-1.8,1.2-.5,2.2ZM373,201.4c-.5-.6-1.2-1.7-1.4-1.6-1.1.8-4-1.8-3.5,1.2.4,2.4,3,2.2.1-1.2-1-1.9.9-4.6-1.9-5.7-1,1.7-3.1,2.4-3.1,5.3,1.6.1,3.1.3,9.7,2ZM518.8,228.9c.2-1.4-.4-2.3-1.5-2.6-.2,0-.8.6-.8.9.3,1.3,1.1,2,6.2-7-2.6,2-.2,5.5-1.8,7.7-1.4,2.1-3.7,3.5-4.9,6.7,8,.6,7.2-7,10.4-10.3-1.3-1.4-2.5-2.8-7.6,4.6ZM593.5,165.8c3.8,5.1,9.1,8.9,13.2,9.9,0-10.9-.1-11-13.2-9.9ZM522,246.4c-.5,6.3-6.2,8.1-7.1,12.1-1.3,6-6.4,5.7-9,9.3-2.3,3.3-2.9,8.7-7.9,9.2,1.3,1.4,2.5,2.8,3.8,4.2,1.8-1.9,3.7-3.9,5.4-5.7,5.7,0,11.3.5,16.7-1.5.2,0,.6.7.9.9.2.1.7.1.9,0,2.3-1.9,4.4-4,7-5.6,4.7-3,8.1-8.6,12.2-12.9,2.9-3.1,3.7-6.2,1.2-10h-24.3ZM451.6,241.5v18.2c3.7,6,11.6,2.7,13.2,9.4,10.9-3.8,12.8-14.2,15.6-24.8-3.3-1.8-7.5.5-9.5-3.6-2.6,2.6-5.4,4-8.7,1.9-3.5-6,3.9-3.8,4.1-7.1-2.9-1.6-5.9-.6-8.7-.7-2.2,2.4-4.3,4.8-6,6.7ZM396.4,114.5c-6.8,6.8-14.2,11.3-17.7,20.1,1.3,1.5,2.2,2.5,3.2,3.5,5.7-5,12-8.3,19-8.3,1.2,2.5.3,4.8,2.9,5.9-.1-6.9,5.6-12.5,2.4-19.9-2.1-.3-2.7,3.5-5.2,2.3-1.3-1-2.7-2.1-4.7-3.6ZM546.2,261.9c4.2,2.2,6.7,3.6,9.5,5.1,3.9-5.6,10-1.7,14.9-3.9-.9-3.3,2.3-4.5,2.3-6.1-3-9.7-9.3-1.1-14.1-4.2-3.5,2.3-5.5,8.3-12.7,9.1ZM496.1,253.5c6.1-3.8,8.7-9.6,12.2-14.3,0,0-.5-.7-.7-1-3.9.4-4-3.5-5.3-5.9-2.1,1.1-4.2,2.2-6.2,3.3v17.9ZM602.5,145.3c6,2.6,9.1,9.2,14,13.5,1.2-10.3-1.5-13.1-14-13.5ZM446,226c-3-.2-4.9-.6-5.2,2.2-.9,3,2.7,3.6,2.6,6.3-1.6,3.6-3.2,7.4-5.7,13.3,9.9-5.5,8-13.6,8.3-21.8ZM456.4,84.6c-10.4-.7-14.9,2.6-13.9,14,3.8-8.3,10.3-8.8,13.9-14ZM563.9,188.3c3.4,4.3-.5,8.5,3.4,11.1-.3-5.6,5.1-4.8,7-7.9.5-.8,2.7-1.3.7-3.2h-11ZM558,282.6c3.1,6,7.7,4.9,12.3,4,1-2.2.8-3.8.2-4.5-3.5-2-4.5.6-6,2.1-1.8-1.6-3.2-4.9-6.4-1.6ZM621.1,254.3c-.8,5.3-1.1,9.3-3.3,12.6-.2.4.5,1.5.8,2.4,3.8,1.8,4.8-2.2,6.9-4.1-4.6-1.7-1.2-7-4.5-10.9ZM380.3,183.6c2.2,6.3,5.2,8.8,10.6,6.6.5-4.5-5.1,0-4.8-4.3.3-4.4-1.9-4.4-5.8-2.3ZM583.2,278.7c-2.1,5.4-7.2.7-11.9,7.1,6.4-4.6,7.3,3.6,11.7.9,1.7-2,.4-4.5.2-8ZM551.8,100.1c1.4-2.5,1.3-5.1,0-8.1-2.3,1.8-4.6,3.4-4.2,7.1,1.2,1.7,2.6,1.9,4.3,1ZM591.2,244.8c-3.2-.6-6.6-3.4-9.8.9,3.6,1,6.8,1.2,9.8-.9ZM563.2,294.7c2.6,1.8,4.9,1.6,7.2.3.9-1.8.8-3.5-.6-4.7-2.2,1.5-4.4,2.9-6.7,4.4ZM432.8,83.3c-2.2,5.6-5.8,4.9-9.1,10.1,4.3-2.6,6.6-.4,9.1-2.8v-7.3ZM614.7,168.7c2.8,2.3,4.1,7.3,8.3,3.4-2.2-1.8-3.2-5.9-8.3-3.4ZM647.6,211.8c2-3.7,1.6-6.3.1-9.5-1.9,3.4-1.7,6-.1,9.5ZM380.6,152.3c-.8-2.6-2.1-4-4.2-5.1-1.4,6.1.6,6.6,4.2,5.1ZM611.3,260.8c.3-.3.8-.6.8-1,0-1.3.3-3-.2-3.7-.6-.8-2.6-1.4-3.2-.9-2.4,1.8.2,2.7.9,3.8.4.7,1.1,1.2,1.7,1.8ZM577.9,93.2c6.9,3.3,6.1-.2,5.5-3.9-1.9,1.3-3.5,2.5-5.5,3.9ZM422.5,236.3c2.3,1.7,4,2.6,5.1-1-1.7-.6-3.2-1.4-5.1,1ZM526.6,201.2c1.8,2.1,3.5,2.1,5.3,0-1.8-2.1-3.5-2.1-5.3,0ZM413.5,246.3c-1.9,2-1.9,3.9,0,5.9,1.9-2,1.9-3.9,0-5.9ZM352.2,198.3c2.3,1.8,3.9,2.7,5.1-.8-1.6-.8-3.1-1.4-5.1.8ZM551.4,246.1c-1.7,2.6-2.4,4.5.4,5.7,1.4-1.7,1.3-3.3-.4-5.7ZM382.3,219.9c-1.7,2.6-2.4,4.5.4,5.7,1.4-1.7,1.3-3.3-.4-5.7ZM557.9,274.1c-1.8-2.1-3.5-2.1-5.3,0,1.8,2.1,3.5,2.1,5.3,0ZM652.9,225.9c-1.9,2-1.9,3.9,0,5.9,1.9-2,1.9-3.9,0-5.9ZM482.3,218.7c2.4,1.8,4.1,2.7,5.1-.5-1.6-1.4-3.1-1.5-5.1.5ZM666.8,274.5c-.3-.6-.6-1.2-.9-1.9-.3.3-.9.7-.8,1,.1.7.5,1.3.8,2,.3-.3.6-.6.9-1ZM533.5,222.6c.3-.4.6-.7.9-1-.6-.3-1.1-.8-1.7-.9-.2,0-.6.6-.9.9.6.3,1.1.7,1.7,1Z"/>
          <path class="cls-5" d="M659.1,321.2c-1.9,1.6-4.2,3.5-8,6.5h-8.9c-5-1.4-4.4-11-11-12.2-1-5.3-1.2-10.2,3.2-13.5,7.3,4.2,8.7,15.8,18.1,17.3,1-1,1.9-1.9,3.1-3.1,1,1.4,2,2.9,3.5,4.9Z"/>
          <path class="cls-5" d="M440.6,51.1c-1.1,7.7-8.7,3-10.3,9.1-1.5,6.2-9.3-2.2-9.3,5.7-3.7-1.1-5.3-3.1-6.3-6.1,2.4-5.9,8-6.7,12.1-10,6.2-4.9,9.4,3,13.8,1.3Z"/>
          <path class="cls-5" d="M480.6,77.3c-1.3-4.1-1.1-7.6-.2-11.2,4.6-1.7,5.7,2.2,7.4,4.8-1,3.8-2.6,6.2-7.2,6.4Z"/>
          <path class="cls-5" d="M695.2,253.2c4.7-.4.9-9.3,7.6-6.2,1.2,3.3,1.3,7.2-.2,10.9-3.5.9-4.7-2.1-7.4-4.7Z"/>
          <path class="cls-5" d="M635.1,299.4c-4.3-1.6-7-3.3-7-7.8q7.7-1.6,7,7.8Z"/>
          <path class="cls-5" d="M682.8,288.7c.1,6.7-4,4-6.9,4-1.3-1.7-1.7-4,0-4.8,2.1-1,4.8-1.8,6.9.8Z"/>
          <path class="cls-5" d="M352.3,158.9c2.6-.1,3.2,2.9,5,4.1-1.8,2.4-3,5.8-6.5,4.5-1.9-1.7-.8-3.8-1.1-5.6,1.8,0,2.7-.9,2.6-2.9Z"/>
          <path class="cls-5" d="M644.1,179.2v-10.6c2.3,4.2,5.3,4.8,4.9,8.7-1,3.2-3.4,1.5-4.9,1.9Z"/>
          <path class="cls-5" d="M318.6,263.8c-.1,1.8-.2,3.5-.3,5.3-2.6,0-3.3-2.4-4.7-3.5,1-3.1,3.3-1.2,5.1-1.8Z"/>
          <path class="cls-5" d="M472,77.3c-1.2.2-2-.4-2.3-1.7,0-.2.6-.9.8-.9,1.2.3,1.8,1.2,1.5,2.6Z"/>
          <path class="cls-5" d="M341.9,144.3c-1.3.1-2.4-.2-2.1-1.9,0-.5,1.3-.7,2.1-1v2.9Z"/>
          <path class="cls-5" d="M620.3,316.3c1.2-.2,2,.4,2.3,1.7,0,.2-.6.9-.8.9-1.2-.3-1.8-1.2-1.5-2.6Z"/>
        </g>
      </g>
    </g>
  </g>
</svg>