<?xml version="1.0" encoding="UTF-8"?>
<svg id="Layer_1" xmlns="http://www.w3.org/2000/svg" version="1.1" xmlns:xlink="http://www.w3.org/1999/xlink" viewBox="0 0 562.9 563.1">
  <!-- Generator: Adobe Illustrator 29.7.1, SVG Export Plug-In . SVG Version: 2.1.1 Build 8)  -->
  <defs>
    <style>
      .st0 {
        fill: url(#linear-gradient1);
      }

      .st0, .st1, .st2, .st3, .st4, .st5, .st6, .st7, .st8, .st9, .st10, .st11, .st12 {
        stroke: #fff;
        stroke-width: 3px;
      }

      .st0, .st2, .st4, .st5, .st6, .st8, .st9, .st10, .st11, .st12 {
        stroke-miterlimit: 10;
      }

      .st1 {
        fill: url(#linear-gradient8);
      }

      .st1, .st3, .st7 {
        stroke-linecap: round;
        stroke-linejoin: round;
      }

      .st2 {
        fill: #3d7121;
      }

      .st3 {
        fill: url(#linear-gradient7);
      }

      .st4 {
        fill: url(#radial-gradient);
      }

      .st5 {
        fill: url(#linear-gradient);
      }

      .st6 {
        fill: url(#linear-gradient4);
      }

      .st7 {
        fill: url(#linear-gradient9);
      }

      .st8 {
        fill: url(#linear-gradient5);
      }

      .st13 {
        display: none;
      }

      .st9 {
        fill: url(#linear-gradient2);
      }

      .st10 {
        fill: url(#linear-gradient3);
      }

      .st11 {
        fill: url(#linear-gradient6);
      }

      .st12 {
        fill: url(#radial-gradient1);
      }
    </style>
    <radialGradient id="radial-gradient" cx="87.5" cy="726" fx="87.5" fy="726" r="322.7" gradientTransform="translate(1.2 -565) scale(1 1.1)" gradientUnits="userSpaceOnUse">
      <stop offset="0" stop-color="#f3e313"/>
      <stop offset="1" stop-color="#d76a04"/>
    </radialGradient>
    <linearGradient id="linear-gradient" x1="155.8" y1="-287.9" x2="192.6" y2="-306.2" gradientTransform="translate(14 52) scale(1 -1)" gradientUnits="userSpaceOnUse">
      <stop offset="0" stop-color="#3d4a5d"/>
      <stop offset="1" stop-color="#36a0ae"/>
    </linearGradient>
    <linearGradient id="linear-gradient1" x1="207.8" y1="-268.4" x2="289.1" y2="-268.4" gradientTransform="translate(14 52) scale(1 -1)" gradientUnits="userSpaceOnUse">
      <stop offset="0" stop-color="#3d4a5d"/>
      <stop offset="1" stop-color="#36a0ae"/>
    </linearGradient>
    <linearGradient id="linear-gradient2" x1="169" y1="-233.4" x2="205.8" y2="-222" gradientTransform="translate(14 52) scale(1 -1)" gradientUnits="userSpaceOnUse">
      <stop offset="0" stop-color="#3c495c"/>
      <stop offset="1" stop-color="#36a0ae"/>
    </linearGradient>
    <linearGradient id="linear-gradient3" x1="216.1" y1="-168.3" x2="273.6" y2="-135.1" gradientTransform="translate(14 52) scale(1 -1)" gradientUnits="userSpaceOnUse">
      <stop offset="0" stop-color="#3c495c"/>
      <stop offset="1" stop-color="#36a0ae"/>
    </linearGradient>
    <linearGradient id="linear-gradient4" x1="185.3" y1="-128.4" x2="153.6" y2="-158.5" gradientTransform="translate(14 52) scale(1 -1)" gradientUnits="userSpaceOnUse">
      <stop offset="0" stop-color="#3ba2b0"/>
      <stop offset="1" stop-color="#3c495c"/>
    </linearGradient>
    <linearGradient id="linear-gradient5" x1="155.1" y1="-72.5" x2="133.5" y2="-130.6" gradientTransform="translate(14 52) scale(1 -1)" gradientUnits="userSpaceOnUse">
      <stop offset="0" stop-color="#36a0ae"/>
      <stop offset="1" stop-color="#30384c"/>
    </linearGradient>
    <linearGradient id="linear-gradient6" x1="94.3" y1="-85.7" x2="78.1" y2="-147.3" gradientTransform="translate(14 52) scale(1 -1)" gradientUnits="userSpaceOnUse">
      <stop offset="0" stop-color="#38a0ae"/>
      <stop offset="1" stop-color="#3b4255"/>
    </linearGradient>
    <linearGradient id="linear-gradient7" x1="44.7" y1="-123.8" x2="43.1" y2="-78.1" gradientTransform="translate(14 52) scale(1 -1)" gradientUnits="userSpaceOnUse">
      <stop offset="0" stop-color="#3d4356"/>
      <stop offset="1" stop-color="#36a0ae"/>
    </linearGradient>
    <linearGradient id="linear-gradient8" x1="16.9" y1="-152" x2="4.9" y2="-125.7" gradientTransform="translate(14 52) scale(1 -1)" gradientUnits="userSpaceOnUse">
      <stop offset="0" stop-color="#3b4255"/>
      <stop offset="1" stop-color="#39a0ae"/>
    </linearGradient>
    <linearGradient id="linear-gradient9" x1="-14.1" y1="-159.6" x2="-2.1" y2="-181" gradientTransform="translate(14 52) scale(1 -1)" gradientUnits="userSpaceOnUse">
      <stop offset="0" stop-color="#37a0ae"/>
      <stop offset="1" stop-color="#3b4255"/>
    </linearGradient>
    <radialGradient id="radial-gradient1" cx="76.6" cy="832.8" fx="76.6" fy="832.8" r="112.7" gradientTransform="translate(-10.7 -564.4) rotate(-2.1)" gradientUnits="userSpaceOnUse">
      <stop offset="0" stop-color="#36a0ae"/>
      <stop offset=".4" stop-color="#236b83"/>
      <stop offset="1" stop-color="#071f45"/>
    </radialGradient>
  </defs>
  <g id="BlueSun">
    <rect class="st13" x="-38.2" y="-41.7" width="640" height="640"/>
    <path id="Sky" class="st4" d="M561.4,280.6c0,28.9-4.5,57.8-13.3,85.3-8.3,26-20.5,50.8-35.9,73.3-15.1,22-33.3,41.9-54,58.8-20.9,17.1-44.4,31.3-69.3,41.8-26.1,11-53.9,17.9-82.1,20.5-29.1,2.7-58.5.9-87-5.6-26.9-6.1-51.4-15.6-76.8-29.5-23.5-12.8-44.1-31-62.6-50.3-18.5-19.4-34.7-40.8-47-64.5-12.8-24.6-21.9-51.1-27-78.2-5.5-28.8-6.4-58.4-2.6-87.3,3.6-27.8,11.2-54.6,22.9-80.1,11.2-24.4,26.2-47.5,43.8-67.7,17.6-20.1,38.1-37.7,60.8-52.1,23.1-14.6,48.3-25.9,74.6-33.2,27.9-7.8,57.1-11.2,86-10.1,28.7,1.1,57.3,6.5,84.3,16.2,25.6,9.2,49.9,22.2,71.7,38.3,21.5,15.9,40.7,34.9,56.9,56.2,16.3,21.6,29.6,45.6,39.1,71.1,9.9,26.7,16,56,17.4,84.1v13h0Z"/>
    <path id="Grass" class="st2" d="M441.8,510.4c22-15.3,42-34.7,58.7-55.5,17.2-21.3,31-45.4,41-70.7,3.6-9.1,5.5-14.3,7.6-21.6H13.7c3.2,11.2,3.5,11,5.5,16.1,8.6,22.6,17.7,40.2,30.3,58.6,3.3,4.8,8.1,11.3,13,17.4,6.9,8.6,13.3,15.5,16.4,18.7,9.2,9.4,15.8,15.8,24.6,23.3,21.2,18.2,35.1,28.8,70.3,43.1,17.4,7,36.7,16.2,82.7,20.5,38.2,3.6,72.3-1.7,100.7-9.6,6.4-1.8,7.7-2.3,12-3.7,5.6-1.8,10.9-3.8,16.7-6.2,5.2-2.1,12.8-5.4,21.1-9.6,12.4-6.3,24.6-13.9,34.8-21v.2Z"/>
    <g id="Sun">
      <g id="Rays">
        <path id="Ray10" class="st5" d="M250.2,362.6s-59.2-.1-66.4,0c-3.3-.3-7-2-10.1-3.4-2.8-1.2-5.5-2.8-7.6-5.1-1.9-2-3.5-4.3-4-7.1-.5-2.8.7-5.4,2.8-7.2,4.2-3.6,10.4-3.6,15.6-2.6,3.5.7,6.8,2,10.1,3.2,3.5,1.3,7,2.6,10.5,3.8,7.1,2.6,14.2,5.2,21.3,7.8,9.3,3.5,26.8,10.1,27.7,10.4h0v.2Z"/>
        <path id="Ray9" class="st0" d="M314.1,309.6c7.5.2,15,.3,22.5.5s14.9.5,22.2,1.8c3.4.6,6.9,1.3,10.2,2.4s6,2.1,8.4,4.1c2.3,1.9,3.3,4.6,1.2,7-2,2.2-5.2,3.6-8,4.5-6.6,2.2-13.7,3-20.5,3.3-7.5.4-15,.2-22.4,0-15.1-.3-30.2-.8-45.3-1.2-15.1-.4-30.2-.7-45.3-1.1-7.5-.2-15-.2-22.5-.8-6.6-.5-13.5-1.5-19.9-3.7-2.3-.8-4.5-1.8-6.5-3.1-1.6-1.1-3.5-2.5-3.8-4.6-.5-4.7,6.4-6.8,9.7-7.9,10.3-3.5,21.3-3.5,32.1-3.4-1,0,57.6,1.5,87.8,2.2h0Z"/>
        <path id="Ray8" class="st9" d="M236.7,267.8c1.5,2.5,1.8,5.8.9,8.5-1.9,5.3-7.3,8-12.5,9.5-3.5,1-7,1.6-10.6,2.4-3.6.9-7.3,1.8-10.9,2.7-3.6.9-7.2,1.8-10.8,2.7-3.3.9-6.7,1.9-10.1,2.1-5.2.4-10.8-1.7-12.9-6.8-2.3-5.5,1.3-11.5,6.1-14.2,2.9-1.6,6.2-2.4,9.4-3.2,3.6-.9,7.2-1.7,10.8-2.6,7.1-1.7,14.2-3.5,21.3-5.3,3.2-.8,6.6-1.5,9.9-1.2,3.1.3,7.7,2.7,9.3,5.2v.2Z"/>
        <path id="Ray7" class="st10" d="M323.5,168.5c1,3.1-1,6.3-2.7,8.8-3.7,5.2-8.8,9.2-14.2,12.6-6.1,3.9-12.6,7.4-18.9,10.9-6.5,3.6-13.1,7.4-19.6,11-13.1,7.4-26.3,14.8-39.4,22.2-6.1,3.5-12.2,6.9-18.8,9.3-5.2,1.9-13.3,4.8-18.1.4-5.1-4.6,1.8-12.3,5.2-15.7s10.4-8.4,16.1-11.8c12.7-7.5,25.8-14.4,38.6-21.6,11-6.2,22-12.4,33-18.7,5.2-3,10.5-5.9,16.1-8.1,5.1-2.1,10.6-3.7,16.1-3.3,2.7.2,5.8,1.4,6.6,4h0Z"/>
        <path id="Ray6" class="st6" d="M216.6,172.7c-2.1,5.9-5.8,11-10.1,15.4-10.6,10.6-21.2,21.2-31.7,31.9-5.2,5.2-10.3,10.5-15.6,15.7-4.3,4.3-8.9,8.7-14.9,10.6-2.9.9-6.5,1.7-9.3,0-2.4-1.4-3.4-4.1-3.3-6.8,0-6.4,3.9-12.1,8-16.8,4.7-5.4,9.9-10.3,14.9-15.4,5.3-5.3,10.6-10.6,16-15.9,5.2-5.2,10.3-10.4,15.4-15.6,4.5-4.6,9.1-9.4,14.8-12.5,2.2-1.2,4.5-2.3,7-2.6,9.5-1,10.9,5.9,8.7,12h.1Z"/>
        <path id="Ray5" class="st8" d="M212.2,45.3c4.5,1.9,3.2,8.1,2.6,12-1.1,6.9-3.5,13.6-6.6,19.9-3.1,6.5-6.7,12.7-10.1,18.9-3.6,6.6-7.2,13.1-10.8,19.7-7.2,13.2-14.4,26.4-21.6,39.6-3.6,6.6-7.2,13.1-10.8,19.7-3.3,6.1-6.7,12.2-10.8,17.8-3.6,5-7.8,10.1-13.5,13-2,1-4.8,1.9-6.8.1-2.2-2-2.1-5.5-1.9-8.2.4-7,2.8-13.7,5.6-20.1,2.9-6.5,6.5-12.7,9.9-19,14.4-26.4,28.9-52.8,43.3-79.2,4.1-7.6,8.3-15.2,13.6-22,2.5-3.2,5.2-6.3,8.4-8.9,1.6-1.3,3.1-2.4,5.3-3.2,1.5-.6,2.7-.8,4.1-.2h.1Z"/>
        <path id="Ray4" class="st11" d="M126.4,110.6c-1.3,6.9-3.3,13.7-5,20.6-1.8,7.3-3.5,14.6-5.3,21.9-3.5,14.5-7.4,28.9-10.6,43.5-1.3,5.9-2.2,12.3-5.7,17.5-2.7,4-8.8,9.2-13.9,5.9-4.7-3.2-5.8-9.6-5.5-14.9.4-7.1,2.6-13.9,4.3-20.8,3.6-14.5,7-29.1,10.5-43.6,1.4-5.8,2.8-11.6,4.2-17.4,1.4-5.8,2.5-11.7,4.2-17.3,1.3-4.6,2.9-9.7,6.2-13.4,1.6-1.8,4.1-3.5,6.6-3.5,4.5,0,5.4,1.1,6.8,2.3,0,0,1.7,1.6,2.8,4.8,1.4,4.2,1,10.5.3,14.4-1.3,6.9.7-3.9,0,0-1.3,6.9.7-3.9,0,0h0Z"/>
        <path id="Ray3" class="st3" d="M53.6,203.5c1.7,3.2,5.2,8.1,9.4,5.3,2.8-1.9,4.1-5.9,5-9,3.4-12,2.5-24.8,2-37.2-1-20.7-1.7-40.8-2.5-61.9-12.6,16.2-13.5,17.2-22.2,30.2,0,3.5.3,6.3.2,4.1,0-1.7.2,3.4.2,5.1,0,3.3.3,6.6.4,9.9.3,6.5.5,13.1.9,19.6.4,8.3,1.3,16.6,3.4,24.7,0-.3,1.8,6.1,3.3,9.2,1.2,2.3-1.6-3.1,0,0h-.1Z"/>
        <path id="Ray2" class="st1" d="M33.7,227c2.9,0,5.5-1.9,6.9-4.3,3.2-5.2,1.9-11.7.4-17.2-1-3.5-2.2-6.8-3.3-10.2-1.2-3.5-9.9-32.4-10-32.7-4.7,10.4-10.7,25.1-13.8,35.6,3,9.5,3.5,9.9,4.5,12.6,1.9,4.8,3.9,8.8,7.6,12.8,1,1,4.5,3.4,7.6,3.4h0Z"/>
        <path id="Ray1" class="st7" d="M14.6,226.3c-.3-4.7-2.3-9.1-4.8-13-1.9,7.8-3.6,15.8-4.7,23.7,2.6.3,4.8-.4,6.1-1.2,3-1.8,3.7-6.1,3.5-9.5h-.1Z"/>
      </g>
      <path id="Body" class="st12" d="M139.5,267.5c-6.8-10.7-16-19.9-26.6-26.8-11.2-7.2-24.1-11.6-37.2-13.3-13.8-1.8-28.1.1-41.1,5.1-6.4,2.5-12.5,5.7-18.1,9.6-2.8,2-13.5,10.9-13.5,10.9-.6,7.6-1.1,15.8-1.3,24.1-.2,7.3-.1,14.8.5,22.1,1.2,14.6,2.9,29,6.3,43.3,1.5,6.1,2.9,12.5,5.3,20h124.5c.6-.7,1.6-2.5,1.8-2.9,1.9-2.9,3.7-6,5.2-9.2,5.9-12.5,8.5-26.5,7.9-40.4-.4-8.2-1.9-16.4-4.6-24.1-2.7-7.7-6.7-14.9-11-21.7,1.4,2.2,2.8,4.4,4.2,6.7-1.3-2.2-2.8-4.3-4.1-6.5,1.4,2.2,2.7,4.4,4.1,6.5-1.4-2.2-2.8-4.3-4.1-6.5,1.4,2.2,2.7,4.4,4.1,6.5-.8-1.2-1.5-2.3-2.2-3.6-6.8-10.7,7.5,11.9,0,0v.2Z"/>
    </g>
  </g>
</svg>