<?xml version="1.0" encoding="UTF-8"?>
<svg id="Layer_1" xmlns="http://www.w3.org/2000/svg" version="1.1" viewBox="0 0 703.8 405.89">
  <!-- Generator: Adobe Illustrator 29.6.1, SVG Export Plug-In . SVG Version: 2.1.1 Build 9)  -->
  <defs>
    <style>
      .st0 {
        fill: #463a27;
      }

      .st1 {
        fill: #beb08d;
      }
    </style>
  </defs>
  <g id="Trees1">
    <g id="Tree-Light">
      <path class="st1" d="M117.32,336.35c-5.39,2.35-2.9,7.52-4.14,11.74h-18.24c-1.66-2.35-3.73-5.17-5.81-8.46-2.49,7.05-7.04,7.52-11.61,8.92-4.56,1.41-8.29-1.41-13.68,0-1.24-1.41-2.9-3.76-4.14-6.11s-2.08-4.7-2.9-7.05c1.24-3.76,4.98,0,6.63-3.29-4.98-.94-7.04-6.11-9.95-8.46-3.32,3.76-6.22,7.52-9.12,10.8-6.22,0-10.78-3.29-15.34-4.23-4.14-.47-8.71-2.35-12.44-1.88-2.49-3.29.83-4.7.41-7.52-7.04.47-6.22,7.99-9.12,12.21-2.49,0-4.98.94-7.46-.47-1.66-6.58,2.08-10.33,6.63-11.27,3.73-.47,4.98-4.23,7.88-5.17,2.08,0,2.9.94,3.73,2.35,1.66-1.41,2.9-3.29,4.56-4.7h6.63c1.66-1.88,1.24-4.23.83-5.64-.83-2.82-4.98-3.76-4.14-7.99,1.66-1.88,3.73-1.41,5.81-.47.41,1.41.83,2.82,1.24,4.7,1.24-1.41,2.08-2.35,3.73-4.23-2.08-.94-3.73-1.88-5.39-2.82,2.49-8.46-2.49-14.56-1.66-20.2,4.98-8.46,8.71-16.91,19.48-14.09,0-4.23-3.32-5.17-4.14-7.99-1.66-3.29-1.66-6.58-2.08-10.33-.41-3.76,1.66-6.11,2.9-8.46,1.66-2.82,0-6.58,3.73-7.52-.41-4.23-3.32-5.17-4.56-7.99,1.66-3.29,3.73-7.52,2.08-11.74-1.66-1.41-3.32,0-4.98-.94-2.49,4.23-3.32,8.92-4.56,14.09,1.66,1.41,1.66,3.76,1.24,7.05-1.66,1.88-3.73,1.41-6.63,0,3.73-6.11,2.49-12.68,2.49-19.26,2.08-5.64,8.71-5.64,10.78-10.8,2.08-5.17,4.14-9.86,7.04-12.21,5.81-2.82,9.95.94,14.1,2.35,2.49.94,4.98-1.41,7.46,1.41,2.08,1.88,2.9.47,7.04-6.11-6.22,0-11.2-3.76-17.42-3.29-2.9-27.71,5.39-50.25,21.97-70.92,3.73,7.05-1.24,7.99-2.49,10.8.83.94,2.49,1.88,2.9.94,2.08-3.29,6.22-4.23,8.29-7.99,1.24-2.35,4.56-4.7,7.88-4.23h9.95c3.32-2.35,7.04-3.29,9.12-7.05h11.2c-3.73,3.76-5.81,6.58-5.39,11.74,0,2.82-2.49,5.17-3.32,7.99-.83,3.29-5.81,0-4.98,5.17,4.14,5.17,7.88-2.35,12.02-1.41,4.14.94,8.71,0,13.68,0v-15.5c3.32-1.88,6.22-3.76,9.12-5.17,0-.94-.41-2.82,2.49-4.23,2.49-.94,4.56.94,6.22,7.52-3.32,3.76-6.22,7.05-9.53,10.33,2.9,3.29,5.81,1.41,7.88,2.35,3.73-5.64,6.22-12.21,11.61-17.38-4.14-3.29-5.39-7.99-8.29-11.74-4.98,3.29-10.78,1.41-16.17,1.88-2.49,2.35-4.56,5.17-2.9,9.39h-6.22c-1.66-1.88-.41-4.23-.83-6.11-1.24-1.88-3.32-.94-4.98-1.41-3.32-5.17-4.14-13.15-11.61-15.03-1.66-2.35.83-6.58-2.9-8.46,1.24-3.76-4.98-4.7-2.9-7.05,4.98-11.27,14.1-10.33,20.73-15.03-1.24-1.41-2.08-2.35-3.32-3.76-1.66.94-2.49,3.29-4.56,2.35-2.08-1.88-1.66-3.76,1.66-9.39,5.81-2.35,10.78,1.41,16.17,2.35.83,3.29,3.73,5.64,2.9,9.39,1.66,0,2.9.47,3.73-.47,4.14-5.64,10.78-7.05,15.34-11.27,2.49-2.35,5.39-4.23,6.63-7.05,2.49-6.58,7.46-7.05,12.44-7.99,1.66,3.76,1.24,6.58-1.66,8.92-2.49,2.35-5.39,0-8.29,1.41v6.11c2.49,1.88,4.98.47,7.46.94,3.32-1.88,3.32-7.05,6.22-9.39h4.98c.41,2.82,1.66,5.17,4.56,5.17.83,1.88.83,4.23,0,5.64-2.9,5.17-8.29,7.05-12.85,9.39,2.49,2.82,5.81,0,8.29,1.88,4.56,2.82,1.24,15.5,11.2,11.27,1.66-5.17-4.14-5.17-4.14-9.39,0-4.7,4.14-8.46,2.08-13.15,2.08-4.23,6.63-3.76,8.71-7.99-4.98-.94-6.63-7.99-12.44-6.11-1.24-3.29-.83-6.11-.83-8.92,5.81-5.64,13.26-7.52,20.32-10.33,4.98-1.88,5.81-4.7,6.22-9.39,2.08-1.88,4.98,0,8.29-.94,1.66,2.35,3.73,5.17,5.39,7.52h4.98c2.49,2.82,4.56,5.17,7.04,7.99,0,3.29.41,7.05,4.14,8.92,2.9,0,3.73-2.82,6.22-4.7h11.2c4.14,7.52,12.85,8.92,19.07,15.97,15.75-13.15,31.92-23.02,51.41-11.27.83,6.11-1.24,11.27,2.49,15.03-.41,3.76-3.32,1.41-4.56,3.76v5.17c2.49,2.82,4.98,5.17,8.29,8.46.83,0,2.9-.94,4.56.47,1.66,4.7-3.32,4.7-3.32,8.46,1.24,1.88,3.32,0,5.39,0,1.66-1.41-.41-7.52,4.14-4.23,1.24-3.76,1.66-6.58-1.24-8.92,1.24-1.41,2.49-3.29,3.32-3.76,4.98-1.88,10.36-3.76,15.75-4.7,5.39-.94,10.78,2.35,16.17,3.76,10.78,2.82,19.89,10.33,28.6,17.38,4.56,3.76,9.53,6.11,14.93,8.92v7.99c4.14,1.41,7.04,4.23,9.12,7.99,0,2.82-3.32,4.7-2.08,7.52,0,3.76,4.14,4.23,4.56,7.99,0,3.29-2.9,1.41-4.14,3.29,1.24,5.64,7.04,5.64,10.36,10.33,1.24,2.35-2.08,7.05,2.08,9.86-4.56,4.7-8.29-4.7-13.26,0,2.08,5.17,4.56,10.33,6.63,15.97,0,2.82-2.49,3.76-4.14,6.11v9.39c-1.24,1.88-2.49,2.82-3.73,4.7-4.14-3.29-8.71-4.23-14.1-1.88.83,5.64,8.29,4.7,7.46,11.74,4.98-1.88,9.12.94,14.1-2.35,3.32-2.35,9.12-.94,12.85,2.35,2.9,2.35,6.63,5.17,5.39,10.33,4.98,9.86,16.17,10.33,21.56,20.67v7.05c-2.08,3.76-4.98,4.23-8.29,3.29,0,6.11,3.73,7.05,5.81,9.86,4.14,0,4.56-5.64,8.71-5.17,3.32,0,4.14,3.76,6.63,4.7,2.08-1.88,0-4.7,1.24-7.05,3.04,1.25,5.67,3.91,7.88,7.99,0,1.88-2.9,3.29-1.24,6.11,2.9,4.7,2.9,8.92-1.66,13.15h-8.71c-3.32,2.35-3.73,6.11-5.39,8.92,4.14.94,7.46,3.76,9.95,8.46,1.66,0,2.9-.47,3.32-1.88,2.08,2.82,4.14,5.17,5.81,7.05h7.88c1.24,1.41,2.08,2.35,3.32,3.76-2.08,2.82-5.81,5.17-4.14,10.33,4.14,2.82,8.71,5.17,13.26,2.82,2.08,3.29,5.81,4.7,6.22,8.92-2.49,3.29-5.81,0-8.29,1.88-1.66,1.41,0,3.76-.83,5.64-4.14,2.82-7.88,5.17-13.26,1.41-2.49-1.88-7.04,1.41-9.95-2.82-1.24.94-1.66,2.82-3.73,2.35-1.66,0-4.14,0-4.56,1.88-2.9,11.27-13.68,8.92-19.89,14.56-1.24.94-3.32.47-4.98.94-5.39,0-11.2-1.41-16.17,0-5.81,1.88-9.95-6.11-16.17-.94-4.14,3.29-10.36,3.29-15.34,5.64-4.98,2.35-10.36,2.35-15.34,2.35-2.08-1.88-3.73-4.23-5.39-6.11v-5.17c-1.24-1.41-2.49-3.29-2.9-3.29-2.9.94-3.73-4.23-4.98-3.76-6.22,1.88-9.95,5.17-13.26,8.46-2.9-1.41-5.39-3.29-8.71-2.82,0-2.35-.83-4.7-.83-7.05-5.39,1.88-2.49,9.39-7.04,11.74h-9.12c-3.73-6.58-12.02-4.23-15.75-10.33-3.73-6.11-9.95-8.92-14.51-14.09h-14.51c-6.63,3.76-12.44,7.05-17,13.15-1.24,1.88-3.32,2.82-5.39,3.29-6.22,1.88-10.36,6.58-14.51,11.74,1.24,5.64-3.32,10.8-2.08,16.91,0,.47.83,1.41,1.24,1.88,4.14,1.88,1.66,7.52,4.56,10.33,2.49,1.88,5.39,3.76,7.04,6.58,2.08,3.29,2.9,7.99,2.08,12.68h10.36c7.04,3.29,12.02,9.39,18.24,13.62,4.14,2.82,4.98,10.33,11.61,11.27,2.49-3.76,7.04-3.76,10.36-2.35,4.14,1.88,9.53.94,11.61,7.05,12.44.47,24.87-1.88,37.31,4.7H136.83c5.81-2.82,12.71-4.23,20.73-4.23h21.14c7.88-7.05,16.17-9.86,25.7-5.17,7.88-4.23,15.75-7.99,23.63-10.8,6.22-6.58,6.63-15.5,11.2-23.02,1.24-6.58-2.08-14.09,2.49-21.14-1.66-2.82-4.14-6.11-4.14-8.92,0-6.11-3.73-9.39-7.04-11.27-5.81-3.29-11.2-9.39-18.65-8.92-4.14,0-4.98-4.23-7.88-5.17-7.46-2.82-15.34-3.76-21.97-8.92-1.66-1.41-3.32-.47-5.39-.94h-13.26c-7.04,6.58-16.17,9.39-22.8,15.97,0,4.23,2.9,5.17,4.56,7.52v7.52c-1.66,1.88-3.73,4.23-5.39,6.11-6.22-.47-11.61,2.35-15.75,3.76-2.49-1.41-4.14-2.35-5.81-3.76,1.66,0,2.08-.47,2.49-1.88,0,0-.41-.94-.83-.94-.83,0-1.66.94-1.66,2.35l-.83,2.35-.04.04ZM449.8,309.58c2.49-1.88,5.39-2.82,3.73-7.52-2.9,1.88-4.14,3.76-3.73,7.52-1.24,0-1.66,0-2.08,1.41,0,0,.41.94.83.94.83,0,1.66-.94,1.24-1.88v-.47h0ZM308.43,269.66c-4.14-.94-7.88,1.41-10.36-2.35-3.32,1.88-6.63,3.29-8.71,7.05-2.49-2.35-3.73-5.17-5.81-3.76-1.66.94-3.32,1.88-5.39,3.29,7.46,9.39,1.24,18.79,1.24,28.18,4.56-.94,7.88-3.29,10.78-6.11,3.32-3.29,1.66-8.92,4.98-11.74-1.24-2.35-3.32-3.29-2.49-6.11,3.32,0,5.39-3.76,7.88-6.11,1.66,2.82,0,5.64,2.9,7.99-.83-5.17,2.49-6.58,4.56-10.33,1.66,0,2.08,1.88,3.32,2.35,1.24-1.88,4.56-3.29,2.49-6.58-2.08,0-4.14-1.41-5.81.94,0,.94,0,1.41.83,3.76l-.41-.47h0ZM240.03,287.97c-1.66-1.88-3.73-3.76-5.81-6.11-3.73-.47-8.71,1.41-12.44-3.29-1.24,3.76-4.98,2.35-5.81,5.17.41,2.82,3.73,5.17,2.08,8.92,3.73,5.64,9.12,9.39,14.93,12.68,4.14,2.35,6.63,1.41,8.71-1.41,2.49-6.11-2.49-10.33-1.66-15.5v-.47h0ZM425.75,95.88c0-2.35,0-3.76-3.73-3.29-.83.94-1.66,2.35-2.9,3.29-.41,3.29.41,5.64,2.08,8.46-2.9.94-6.22-.94-8.71,1.41v2.82c3.73,2.35,8.29-1.41,11.2,2.82,3.73-3.29,7.46-1.88,11.61,2.35,0-7.52,5.81-1.41,7.88-6.58-3.32-8.46-12.44-6.11-17.83-11.27h.41,0ZM189.87,288.91c8.29,1.88,15.34,8.46,23.63,7.52,1.24-4.7,0-8.92-3.32-9.39-3.73,0-6.22-3.76-10.36-2.82-4.14-3.76-7.46-10.33-14.51-9.39,0,5.64,4.56,8.46,4.56,14.09h0ZM76.28,270.6c-3.32-1.41-6.63-5.64-9.53-3.29-3.73,3.29-7.46,1.41-11.61,2.35,0,3.29-6.22,3.76-4.56,9.86,9.53,0,19.07.94,25.7-8.92h0ZM260.35,37.17c-2.49-2.82-4.14-4.7-6.22-6.58h-9.12c-1.24,1.88-.41,4.23-.83,7.05,5.81-1.88,5.39,5.17,8.29,8.46,2.9-2.82,4.98-5.64,7.88-8.46v-.47h.01ZM355.7,258.38c-5.39-1.41-9.53.94-12.02-3.29-.83.94-2.08,2.35-2.9,3.29,0,4.7-1.24,9.86,5.39,11.27,2.9-3.29,5.39-6.58,9.95-11.74l-.41.47h-.01ZM53.88,287.5c-7.46,0-12.85-6.11-17.83-2.82,3.32,3.76,6.63,7.52,9.95,11.74,1.66-1.88,3.73-4.23,7.88-8.92h0ZM316.31,278.11c-2.08-.94-3.73-2.35-5.81-3.29-3.73,4.23-7.88,7.52-9.12,13.62,2.49,1.41,4.98,0,7.04.47,2.49-2.82,4.98-5.64,7.46-8.46v-2.35h.42ZM290.6,246.64c2.9,0,14.1-2.35,17.42-3.76,2.49-.94,2.08-2.35,1.66-4.23-5.81-2.35-10.78,2.82-16.17,2.82-1.24,0-3.73,2.35-2.49,5.64l-.41-.47h0ZM167.89,272.48v7.05c4.98-2.35,4.98,5.17,8.71,5.17,2.08-1.41,3.32-2.35,3.73-2.82-2.9-3.76-5.39-6.58-7.46-9.39h-5.39.41ZM364.82,273.42c-2.9-1.88-5.39-.94-5.81-.94-2.9,3.29-4.56,5.17-6.63,7.52,1.24,1.88,3.32,2.82,7.88,1.88.41-.94,2.08-3.29,3.73-5.17,0-.47,0-1.41.83-2.82v-.47h0ZM77.52,329.3c1.24,1.41,0,5.64,3.73,4.7,1.66-1.88,4.56-2.82,3.32-6.58-3.59-.94-6.91-2.82-9.95-5.64-1.24,1.88-4.56,3.29-2.49,7.05,1.66,0,3.32,0,4.98.47h.41ZM183.65,202.03c-1.24,1.41-5.39.94-6.63,4.7v3.76h7.88c.83-1.88,2.9-2.35,2.9-5.64-.83-.47-2.49-1.41-4.14-2.35v-.47h0ZM155.04,288.91c-4.98,2.35-8.29-4.7-12.85-1.41,0,2.35-1.24,4.7.83,6.58,4.14-.94,9.12,2.35,12.02-5.17h0ZM332.06,280.46c1.66-3.29,5.81-4.23,6.22-9.39-1.24-1.41-2.08-2.35-3.32-3.76-2.08,1.88-4.14,4.23-5.81,6.11.83,2.35-.41,4.7,2.9,7.05h.01ZM399.64,285.62c2.08,3.76,4.98,4.7,8.29,2.82.41-2.35,1.24-4.7,0-6.11-3.32-1.41-5.81,0-7.88,3.29h-.41ZM197.74,274.83c.56-5.33-1.38-8.61-5.81-9.86-.83,4.7,0,8.46,5.81,9.86ZM457.27,230.67c3.32-1.41,5.39-2.82,4.56-5.64-.83-1.88-1.24-3.29-2.08-4.7-3.32,3.29-4.98,6.11-2.49,10.33h0ZM355.7,295.95c2.9,1.41,5.81,1.41,8.71,0v-3.76c-2.49.47-3.73-1.41-5.81-2.82-.83,1.88-3.73,2.82-2.9,6.11v.47h0ZM431.56,211.89c4.56,1.88,7.46.94,9.12-3.29-1.66-.94-2.08-3.29-4.14-3.29-1.66,0-2.08,1.41-3.32,2.82-.83.94-.83,1.88-1.66,3.76h0ZM361.92,264.02c8.29.47,8.71,0,8.29-6.58-4.14,0-4.98,4.23-8.29,6.58ZM298.9,40.93c-2.9-.94-5.39-.94-8.29,0,1.66,4.23,4.56,5.17,8.29,3.76v-3.76ZM143.44,243.35c4.56-1.41,7.04-2.82,7.04-6.58-.83-1.88-2.08-1.41-3.32-1.41-.83,2.35-2.08,4.23-3.73,7.99h.01ZM174.53,46.56c-2.08-1.88-4.56-1.88-6.63,0-.41,1.88,0,3.29,1.66,4.23,2.49,0,3.32-2.35,4.98-3.76v-.47ZM181.99,77.1c-2.49-2.35-3.32-5.17-5.81-4.7-2.49.94-2.08,2.82-.83,4.7h6.64ZM430.73,303.94c3.32,0,5.81,1.41,7.88-.94,0-1.41,0-3.29-1.66-3.76-2.49,0-2.9,2.35-6.22,4.7ZM131.83,294.07c-2.49,0-4.14,1.88-5.39,4.7h5.81c.83-1.88.83-3.29-.83-4.7h.41ZM476.75,313.8c3.32,0,5.81,1.41,7.88-.94,0-1.41,0-3.29-1.66-3.76-2.49,0-2.9,2.35-6.22,4.7ZM361.08,215.65c1.66-1.88,1.66-3.29,0-5.17-.83,0-2.08-.47-2.9.94-.83,3.29,0,4.23,2.9,3.76v.47ZM158.36,274.83c-3.73-.94-4.14.47-3.32,3.76.83-.94,2.08-2.35,3.32-3.76ZM494.99,289.85c-3.73-.94-4.14.47-3.32,3.76.83-.94,2.08-2.35,3.32-3.76ZM405.86,88.37c2.08,1.41,3.32,2.35,4.14,0-1.24-1.41-2.49-1.41-4.14,0ZM85.81,161.16c1.66-1.88,1.66-3.29,0-5.17-1.66,1.88-1.66,3.29,0,5.17ZM209.76,261.2c-2.08-1.41-3.32-2.35-4.14,0,1.24,1.41,2.49,1.41,4.14,0ZM482.55,290.79c-2.08-1.41-3.32-2.35-4.14,0,1.24,1.41,2.49,1.41,4.14,0ZM64.26,328.83c1.24-2.35,2.08-3.76,0-4.7-1.24,1.41-1.24,2.82,0,4.7ZM72.96,343.87c1.24-2.35,2.08-3.76,0-4.7-1.24,1.41-1.24,2.82,0,4.7ZM429.07,304.41c-.83.94-.83,1.41,0,2.35.83-.94.83-1.41,0-2.35ZM439.85,92.13c.83-.94.83-1.41,0-2.35-.83.94-.83,1.41,0,2.35ZM419.12,83.67c.83.94,1.24.94,2.08,0-.83-.94-1.24-.94-2.08,0ZM453.11,230.2c-.83.94-.83,1.41,0,2.35.83-.94.83-1.41,0-2.35ZM308.84,30.6c-.83.94-.83,1.41,0,2.35.83-.94.83-1.41,0-2.35Z"/>
    </g>
    <path id="Tree-Dark" class="st0" d="M477.16,299.06c-3.32,5.64-7.81,9.6-9.53,17.71-2.87,2.8-2.06,4.12-4.49,9.2l-3.06,8.28c-.21.95-.67,1.81-1.29,2.48-4.07,4.28-7.62,8.27-11.39,12.52-.83.94-1.32,2.24-1.27,3.56.24,6.25,1.62,11.96,5.35,15.77,3.42,3.44,9.28,2.94,13.1,6.45.68.62,1.47,1.06,2.36,1.06h42.65c1.58,0,2.95,1.05,3.72,2.61,2.67,5.34,9.16,5.43,12.79,9.14.72.82,2.28,1,3.87.28,1.81-.82,4.25-.29,5.42,1.48,1.84,2.8,4.17,4.72,6.78,6.18,3.97,2.22,2.82,8.91-1.62,9.01-54.88,1.3-198.32,1.5-238.6.4-3.71-.1-5.46-5.23-2.79-8.15,1.18-1.29,2.41-2.61,3.7-3.96.63-.66,1.85-1.36,2.7-1.44,1.59-.15,3.3-1.02,5.06-2.09,1.18-.72,2.6-.78,3.8-.11,2.28,1.27,4.78,2.27,7.06,4.11,1.28,1.03,2.97,1.05,4.36.22,8.3-4.93,16.62-6.76,25.29-5.47.61-1.19,1.95-1.74,2.69-2.79.8-1.13,2-1.82,3.28-1.95l5.98-.63c2.9-.94,2.56-6.37,6.71-7.31,3.32-.94,7.88-2.35,9.12-6.11,2.08-5.17,4.72-.83,9.12-5.64,6.03-2.5,7.88-5.17,10.78-9.86,3.97-6.76,7.18-13.94,10-20.74.24-.58.59-1.12,1.02-1.55,6.48-6.48,11.2-5.78,18.62-14.24,6.22-7.85,13.89-13.27,17.21-24.08,2.08-7.05,2.9-12.68,0-19.73-1.66-3.76-4.14-2.35-5.39-4.7.83-.94,1.66-1.88,2.49-3.29-3.73-3.29-5.81-7.99-10.36-10.33,0-1.41,0-2.35-1.66-2.82,0,0-.83.47-.83.94,0,1.41,1.24,1.88,2.49,1.88.57,2.39,1.62,4.79,3.13,7.18,1.18,1.87,1.05,4.43-.35,6.08-2.11,2.49-4.18,4.85-7.75,5.53-.83,1.88,0,3.76,1.24,4.7,2.08,1.88,0,2.35-.41,3.29-3.4,12.4-4.38,15.07-14.25,7.29-1.58-1.25-3.76-1.36-5.26.02-3.18,2.93-7.7,4.06-10.34,8.19.83.94,1.66,2.35,2.49,3.29-4.96,8.63-6.05,9.73-19.07,10.22-2.02.08-3.65,1.77-4.06,4-.92,4.95-3.78,8.51-8.78,11.15-5.39,2.82-10.36,4.23-15.34.94-2.9-1.88-7.04-2.35-8.29-.94-3.32,3.38-5.31.75-7.45-.68-1.5-1-2.52-2.83-2.19-4.77.27-1.6,1.04-3.01,1.68-4.3.74-1.5.74-3.37-.06-4.82-2.45-4.41-6.41-2.95-9.84-3.47-.8-.12-1.55-.62-2.12-1.26-1.6-1.77-2.84-3.64-3.78-5.61-1.96-4.08,2.11-8.58,5.72-6.39,1.82,1.1,3.59,2.32,5.61,1.69,0,1.41,0,2.35,1.66,2.82,0,0,.83-.47.83-.94,0-1.41-1.24-1.88-2.49-1.88.54-2.75,2.31-4.31,4.05-5.97,1.6-1.52,3.94-1.48,5.51.09.85.86,1.71,1.73,2.47,2.59,1.66-1.88,1.66-3.29,0-5.17-3.32-3.76-7.04-7.05-8.29-12.21-.83.94-1.66,1.88-2.9,3.29-5.58-1.98-9.69-4.95-11.11-11.16-.48-2.13.55-4.37,2.32-5.31.92-.49,1.82-.98,2.7-1.47,1.39-.78,2.24-2.37,2.32-4.12.16-3.58.84-7.5-.79-10.83-1.66,0-2.49,0-4.14.47,1.24,6.11-2.08,11.27-2.9,17.38h-2.49v-4.7c-4.03-1.14-8.08-2.6-12.34-3.86-1.68-.5-2.93-2.06-3.15-4-.35-3.1-1.52-6-5.25-8.11,0,4.54-2.33,8.65-2.86,12.74-.04.28-.05.56-.05.85v6.84c0,1.26.42,2.48,1.2,3.37,1.89,2.11,4.43,3.53,3.77,7.68-4.56,3.29-6.63-.94-7.46-4.23-3.48-9.66-8.78-19.72-1.69-29.81,1.01-1.44,1.14-3.45.4-5.08-1.47-3.26-2.89-6.59-1.62-10.2,1.24-3.29,1.24-8.92,6.22-8.46,0-5.87,4.6-9.46,6.14-14.3.47-1.48,1.39-2.82,2.76-3.12,1.65-.36,2.9-1.45,4.36-2.78,4.98-4.7,11.61-5.64,17.83-8.46,4.14-1.88,11.61,1.88,14.93,7.05,1.66,2.35,2.9,5.17,6.22,4.23-.67-4.08-.34-8.68,1-13.81.53-2.04,2.1-3.56,3.97-3.59.84-.02,1.7-.04,2.54-.1,2.01-.13,3.78-1.76,4-4.03.65-6.63-1.62-13.88,2.57-19.81,1.24,0,2.08,0,2.49-1.88,0,0-.41-.94-.83-.94-1.24,0-1.66,1.41-1.66,2.82-4.14-.94-4.98-5.64-6.63-8.92-1.24,2.82-2.49,5.64-3.73,8.92-1.66,0-2.49.94-2.49,2.82-7.04,2.35-14.1,5.17-20.73,7.52v1.41c-1.66,0-3.32.94-5.39-1.88,4.14-6.58,5.81-15.03,13.68-18.79,2.49-.94,4.14-2.82,4.56-5.64.83,0,2.08-.47,2.08-.94,0-1.88-.83-1.88-2.08-1.88,0-1.69.3-3.55-.18-4.87-.74-2.04-.62-4.34.83-5.8,1.07-1.08,2.18-2.11,3.06-3.31,3.64.09,5.36.13,9,.22.25.31.54.6.87.88.56.48,1.29.67,2,.67h12.6c2.08-2.82-2.49-2.82-1.66-5.64.24-1.36.2-2.72.13-4.17-.1-1.95.89-3.77,2.48-4.57,1.66-.84,3.33-1.77,5.24-2.73,1.42-.72,2.29-2.32,2.45-4.08.63-6.89,7.54-8.52,10.86-13.11,4.98-7.05,12.85.94,17-7.52.24,1.63.48,2.79.72,3.84.54,2.39,2.59,4.04,4.73,3.55,1.02-.23,2.11-.72,3.26-1.28v-10.22c0-1.27.42-2.55,1.24-3.41,3.93-4.14,8.66-6.08,12.02-10.32,6.22-7.99,13.26-10.8,21.97-4.7,3.32-1.88.83-5.64,2.08-7.99.83-1.41,2.08-.94,3.32-.94,1.87,1.82,1.33,4.41,1.15,6.91-.15,2.15,1.01,4.14,2.82,4.85,2.42.95,4.84,2.09,5.16,5.62,0,2.82,2.08,4.23,3.73,5.64,1.18,1.01,2.79,1.29,3.76,0,1.19-1.58,3.08-2.26,4.83-1.61,2.15.8,3.97,2.1,5.72,3.26,1.13.75,2.54.92,3.73.29,5.6-2.93,9.66-8.21,14.46-12.71.69-.65,1.57-1.06,2.47-1.07,3.83-.03,8.19,1.23,11.88-.86,0-1.88,0-3.76-1.24-4.7-4.57-1.73-7.39,2.11-11.05,4.56-.63.42-1.36.61-2.1.61h-2.7c-2.21,0-4.15-2.04-4.2-4.55-.04-2.08.18-4.3-.83-6.27-1.09-2.14-.71-4.83.94-6.44,1-.98,2.02-1.91,3.11-2.76.16-.12.33-.24.5-.35,7.38-4.56,15.16-5.4,21.71,1.1,3.32,3.38,6.37,4.36,9.79,4.61,2.35.18,4.1,2.46,3.93,5.12-.07,1.14-.04,2.19.79,2.95,1.66.94,4.14.94,4.14-.94.83-6.11,5.39-6.58,9.12-7.05,7.46-.94,14.93,0,22.38-2.82,4.38-1.36,9.54-1.41,15.09,4.86.43.49.76,1.11.96,1.77,1.1,3.57,2.93,8.91,2.91,14.56-.01,2.54,1.65,4.71,3.88,4.86,2.24.15,4.33.22,5.35,3.09,1.24.94.83.94,0,2.35-2.76,6.65-3.22,9.72-2.11,14.63.4,1.78,1.72,3.15,3.32,3.45,3.48.64,6.52,2.56,9.56,4.47-.37.63-.73,1.25-1.1,1.84-1.25,1.99-1.02,4.71.58,6.33.63.64,1.29,1.26,1.77,2.16,1.96-3.69,5.96-1.87,8.79-3.43,2.37-1.3,5.26.49,5.86,3.39.53,2.55.22,5.41.21,8.34,0,1.3.54,2.5,1.38,3.37,2.42,2.48,4.84,5.14,7.25,7.61.87.89,1.36,2.14,1.36,3.47v8.77c0,1.77-.27,2.72-.83,3.45-1.79,2.31-4.05,4.25-6.39,6.24-3.23,2.75-1.5,8.58,2.54,8.55.51,0,1.01,0,1.52.04,1.6.1,2.99,1.28,3.58,2.96,1.74,4.87,4.01,8.95,8.56,10.94,1.11.49,2.07,1.35,2.57,2.59,1.42,3.56,2.99,7.01,5.45,9.8,4.14,4.23,7.46,9.39,6.63,15.97-.83,6.58,8.29,6.58,5.39,13.15,1.71,0,3.08.12,4.24.31,2.17.34,3.78,2.52,3.6,4.99-.07.9-.22,1.79-.38,2.69-3.73,5.17-6.22-5.64-9.95,0,2.09,3.95,6.23,6.23,7.99,10.76.68,1.75,2.2,2.87,3.87,2.66.89-.11,1.78-.27,2.64-.48,3.28,6.26,3.11,5.94,6.38,12.2-.05.07-.11.15-.16.22-3.73-.94-1.66-5.17-3.73-6.11-1.66,6.58-7.46,7.05-11.61,9.86.48.72.95,1.44,1.38,2.11,1.39,2.16,4.13,2.64,5.96.95,2.13-1.98,3.34-4.93,6.34-4,2.08,1.41,1.24,3.29,1.66,5.17,1.66,6.58,4.56,7.99,10.36,5.64,2.9-1.41,5.81-3.29,9.12-5.17,1.66,3.76,2.49,7.05-.41,10.33-5.39,5.17-9.95,12.21-18.24,5.64-2.49-1.88-6.63,0-11.61,0,.79,1.05,1.49,1.95,2.15,2.77,1.67,2.11,1.32,5.56-.88,6.9-.69.42-1.29,1.03-1.69,2.07-.28-.79-.56-1.53-.84-2.24-1.43-3.6-6.12-3.72-7.51-.1-.45,1.17-.69,2.5-.91,3.85-.33,2.05-1.8,3.64-3.63,3.86-2.48.3-5.26.87-9.08,1.21,11.2,4.23,20.32,8.46,29.02,1.88,2.9,1.88,1.66,4.7,2.08,7.05-1.63,2.58-5.31,2.27-7,4.75-.89,1.3-2.23,1.96-3.65,1.65-5.92-1.29-11.26,3.97-16.28,1.12-4.56-2.82-9.95-5.17-12.44-11.27,0-2.35,1.66-3.29,2.49-4.7-.83-2.35-4.98-3.76-1.24-7.52.83.94,1.66,1.41,2.9,2.82,1.24-1.41,2.49-2.35,3.73-3.76,0-.47-.83-1.41-1.24-1.88-2.08-3.76-4.98-2.35-7.88-2.82-4.56-.47-6.63-3.76-6.22-8.92,1.24,0,2.08,0,2.49-1.88,0,0-.41-.94-.83-.94-1.24,0-1.66,1.41-1.66,2.82-3.32,0-2.08,3.29-3.32,5.17-.98,1.12-2.26.91-3.57.75-1.56-.19-3.04.79-3.68,2.4-.17.42-.33.85-.5,1.28-1.43,3.6-5.91,3.73-7.57.25-.91-1.9-1.44-4.17-1.66-7.04-.83,1.88-2.08,3.76-2.9,5.64-1.2,2.73,1.75,3.97,2.5,6.07.59,1.65,1.86,2.85,3.42,2.87.89.01,1.74.04,2.56.08,2.23.11,3.95,2.24,3.95,4.76v21.92h-.41c-3.43-1.17-5.44,1.2-7.44,3.92-.8,1.09-1.99,1.72-3.23,1.72h-9.6c-1.32,0-2.56-.69-3.35-1.9-1.02-1.55-2.35-3.52-3.96-5.7-.64-.86-1.01-1.92-1.01-3.05v-3.42c0-5.52-7.31-6.74-8.25-1.32-.14.81-.16,1.7-.05,2.7,0,0-1.24.47-2.08.94-.83,0-1.66.47-2.49.94v6.6c0,1.19-.42,2.32-1.11,3.22-2.83,3.68-5.45,8.24-11.33,6.15-1.66-1.41-.41-3.76-.83-5.64,1.66,0,2.49-.94,2.49-2.82,1.24,0,2.08,0,2.49-1.88,0,0-.41-.94-.83-.94-1.24,0-1.66,1.41-1.66,2.82-1.04,0-1.77.37-2.15,1.12-.57,1.1-1.25,2.18-2.32,2.61-8.29,3.4-15.5.71-21.65-8.43,1.66-5.64-4.14-3.29-5.39-6.11,1.66-1.41,3.32-3.29,2.49-6.58-.59-.22-1.28-.45-1.98-.67-1.5-.49-2.79-1.86-2.96-3.61-.31-3.23,1.51-5.72,4.11-7.92,1.66.47,2.08,3.29,4.14,2.82,0,2.82-.83,5.64,1.66,9.39,1.24-6.58,6.63-.94,9.12-5.64-1.24-6.58-3.73-4.23-6.63-.94-1.03-.29-1.59-1.5-2.36-2.26-1.88-1.83-1.84-5.23-.08-7.2.59-.67,1.29-1.26,2.03-1.82,1.05-.95,1.25-2.51,1.57-3.93.53-2.4-.53-4.88-2.56-5.78-6.75-2.99-11.55-.67-21.05,8.15-.74.69-1.68,1.1-2.64,1.1h-7.81c-1.22,0-2.36.6-3.14,1.66-1.23,1.67-2.54,3.45-3.79,5.28-1.03,1.51-2.79,2.15-4.41,1.67-6.02-1.77-11.77-3.72-17.52-2.5M524.09,246.93c-.29,0-.51.26-.55.58-.71,6.08-6.19,7.53-6.99,11.63-1.24,6.11-6.63,5.64-9.12,9.39-2.49,3.29-2.9,8.92-7.88,9.39,1.24,1.41,2.49,2.82,3.73,4.23,1.24-1.41,2.73-2.82,4.09-4.24.85-.89,1.95-1.4,3.11-1.39,5.13.06,9.99.26,15.19-1.42,0,0,.41.94.83.94h.83c2.49-1.88,4.56-4.23,7.04-5.64,4.56-3.29,8.29-8.46,12.44-13.15,2.83-3.2,3.68-5.96,1.43-10-.11-.2-.32-.33-.52-.33h-23.65ZM453.11,241.76v18.08c0,.15.05.31.13.44,3.23,4.99,9.35,3.41,12.08,6.92,1.07,1.39,3,1.56,4.44.71,7.72-4.57,9.72-13.78,12.21-22.75.09-.33-.05-.71-.34-.84-3.22-1.41-7.06.51-9.03-3.51-2.49,2.82-5.39,4.23-8.71,1.88-3.73-6.11,4.14-3.76,4.14-7.05-2.81-1.82-5.63-.55-8.44-.9-.17-.02-.33.04-.45.18-2.01,2.28-4.02,4.54-6.03,6.36v.47h-.01ZM397.56,113.54c-6.1,6.48-13.24,10.57-16.94,18.12,2.24,2.34,1.93,2.01,4.17,4.35,5.2-4.22,10.74-6.86,16.94-6.97.23,0,.48.15.58.39.93,2.21-.02,4.38,2.72,5.71,0-7.05,5.81-12.68,2.49-20.2-2.08,0-2.9,3.76-4.98,2.35-1.24-.94-2.49-1.88-4.56-3.76h-.42ZM548.05,262.43c3.95,2.24,6.4,3.63,9.14,4.98.23.11.5.02.66-.2,3.62-4.89,9.38-1.77,14.14-3.2.29-.09.44-.45.4-.79-.3-2.86,2.6-4.17,2.6-5.49-2.84-9.64-9.24-1.33-13.78-4.02-.19-.11-.42-.13-.6,0-3.15,2.49-5.32,8.27-12.56,9.18v-.47h0ZM497.89,253.98c6.22-3.76,8.71-9.86,12.44-14.56l-.83-.94c-3.47,0-4.07-2.85-5.15-5.52-.13-.33-.48-.49-.77-.34-1.79.87-3.57,2.03-5.35,2.88-.21.1-.34.33-.34.58v17.89h0ZM623.09,254.91c-.83,5.17-1.24,9.39-3.32,12.68,0,0,.41,1.41.83,2.35,3.73,1.88,4.98-2.35,7.04-4.23-4.56-1.88-1.24-7.05-4.56-10.8h0ZM381.4,183.52c2.08,6.58,5.39,8.92,10.78,6.58.41-4.7-4.98,0-4.98-4.23s-2.08-4.23-5.81-2.35h.01ZM434.05,82.08c-2.08,5.64-5.81,5.17-9.12,10.33,4.42-2.74,6.51-.16,8.91-2.59.13-.13.21-.34.21-.54v-7.21h0ZM381.81,151.59c-.83-2.82-2.08-4.23-4.14-5.17-1.24,6.11.41,6.58,4.14,5.17ZM553.44,246.46c-1.66,2.82-2.49,4.7,0,5.64,1.24-1.88,1.24-3.29,0-5.64ZM661.23,322.55c-2.08,1.41-4.14,3.29-7.88,6.58h-9.12c-4.98-1.41-4.56-11.27-11.2-12.21-.83-5.17-1.24-10.33,3.32-13.62,7.46,4.23,8.71,15.97,18.24,17.38.83-.94,2.08-1.88,3.32-3.29.83,1.41,2.08,2.82,3.32,5.17h-.01ZM441.93,49.2c-1.24,7.99-8.71,2.82-10.36,9.39-1.66,6.11-9.12-2.35-9.53,5.64-3.73-.94-5.39-3.29-6.22-6.11,2.49-6.11,7.88-6.58,12.02-10.33,6.22-5.17,9.53,3.29,13.68,1.41h.41,0ZM482.14,75.98c-1.24-4.23-1.24-7.52,0-11.27,4.56-1.88,5.81,2.35,7.46,4.7-1.24,3.76-2.49,6.11-7.04,6.58h-.42ZM637.18,300.47c-4.56-1.41-7.04-3.29-7.04-7.99,5.25-1.25,7.6,1.41,7.04,7.99ZM685.28,289.67c0,6.58-4.14,4.23-7.04,4.23-1.24-1.88-1.66-4.23,0-4.7,2.08-.94,4.98-1.88,7.04.94v-.47ZM353.62,158.17c2.49,0,3.32,2.82,4.98,4.23-1.66,2.35-2.9,5.64-6.63,4.7-2.08-1.88-.83-3.76-1.24-5.64,1.66,0,2.49-.94,2.49-2.82l.41-.47h0ZM646.3,178.83v-10.8c2.49,4.23,5.39,4.7,4.98,8.92-.83,3.29-3.32,1.41-4.98,1.88ZM319.63,264.31v5.17c-2.49,0-3.32-2.35-4.56-3.76.83-3.29,3.32-1.41,4.98-1.88l-.41.47ZM342.84,143.61c-1.24,0-2.49,0-2.08-1.88,0-.47,1.24-.47,2.08-.94v2.82Z"/>
  </g>
</svg>