<?xml version="1.0" encoding="UTF-8"?>
<svg id="Layer_1" xmlns="http://www.w3.org/2000/svg" version="1.1" viewBox="0 0 167.24 87.07">
  <defs>
    <style>
      .st0 {
        fill: url(#gradient1);
        filter: url(#shadow);
      }
      .st1 {
        fill: url(#gradient2);
        filter: url(#shadow);
      }
    </style>
    
    <!-- Gradient definitions for depth -->
    <linearGradient id="gradient1" x1="0%" y1="0%" x2="100%" y2="100%">
      <stop offset="0%" style="stop-color:#d4c4a0;stop-opacity:1" />
      <stop offset="50%" style="stop-color:#bfb18c;stop-opacity:1" />
      <stop offset="100%" style="stop-color:#a89d7a;stop-opacity:1" />
    </linearGradient>
    
    <linearGradient id="gradient2" x1="0%" y1="0%" x2="100%" y2="100%">
      <stop offset="0%" style="stop-color:#5a4d38;stop-opacity:1" />
      <stop offset="50%" style="stop-color:#473b26;stop-opacity:1" />
      <stop offset="100%" style="stop-color:#3a2e1c;stop-opacity:1" />
    </linearGradient>
    
    <!-- Subtle drop shadow -->
    <filter id="shadow" x="-20%" y="-20%" width="140%" height="140%">
      <feDropShadow dx="1" dy="2" stdDeviation="1" flood-color="#3a2e1c" flood-opacity="0.2"/>
    </filter>
    
    <!-- Subtle inner glow for premium feel -->
    <filter id="innerGlow" x="-50%" y="-50%" width="200%" height="200%">
      <feGaussianBlur stdDeviation="1" result="coloredBlur"/>
      <feMerge> 
        <feMergeNode in="coloredBlur"/>
        <feMergeNode in="SourceGraphic"/>
      </feMerge>
    </filter>
  </defs>
  
  <!-- Enhanced tree-like path with organic branching details -->
  <path class="st0" d="M29.13,86.88c2.3-.83,4.96-.24,7.37-.37,2.2-.15,4.16-.95,6.33-1.33,1.05-.2,2.21-.32,3.22-.62,1.72-.59,3.56-1.17,4.85-2.48,2.44-2.48,3.46-7.38,2.19-10.86-.57-1.65-1.78-2.92-3.31-3.63-2.71-1.3-9.35-3.79-12.08-4.28-.81-.15-1.37,0-2.22.28-1.53.53-3.97,1.63-5.18,2.26-.93.4-1.24,1.25-.69,2.16.21.43.54.84.53,1.32-.19,1.89-2.4,2.29-4.23,2.58-1.43.29-1.73-1.6-2.68.27-.52.95-.73,1.69-1.54,1.92-.83.23-1.75.07-2.54-.25-.82-.3-1.59-1.07-2.42-.86-1.41.48-3.41,1.86-5.34.98-.79-.35-1.78-1.3-1.24-2.17.45-.6,1.2-1.02,1.43-1.8.08-.18.15-.4.22-.56.09-.19.19-.55.4-.32.53.99,1.38,1.5,2.57,1.61.67.06,1.58.01,1.24-.57-.37-.45-1.01-.76-1.56-1.1-1.26-.8-2.29-1.06-3.51-.44-.63.37-.73.92-1.17.83-.63-.17-1.22-.72-1.92-.47-1.07.31-1.77,1.64-2.9,1.8-1.1.06-2.37-.71-3.75-1.02-.37-.1-.81-.27-1.03-.52-.47-.57.07-1.34.56-1.71.6-.49,1.73-.44,2.06-.96.44-.72-.36-1.7-.2-2.41.37-.34,1.05.38,1.46.07.22-.37-.23-1.31-.22-1.89-.02-.22.06-.51.32-.48.53.02,1.62,1.18,2.61,1.14.51-.03.84-.23,1.03-.72.39-1.14-.99-1.78-1.92-1.98-.5-.14-1.06-.16-1.42-.54-.39-.41-.16-1.49-.03-2.24.06-.28.15-.54.35-.74.7-.77,4.14-.88,4.19-2.46-.1-.23-.64.28-1.22.33-.69.01-1.11-.74-1.33-1.31-.67-2.03,1.42-3.74.99-5.76-.07-.62-.23-1.25-.32-1.89-.18-.83-.1-2.2-1.18-1.63-.72.41-1.03,1.44-1.59,2.01-.28.24-.46-.36-.26-1.12.04-.25.21-.49.32-.71.52-.82,1.51-1.04,2.01-1.7.63-.84.76-2.18,1.71-2.8.95-.66,2.18.16,3.72.43,1.08.21,2.06.11,3.05-.23,1.02-.27,3.25-1.22,1.16-1.66-1.94-.21-5.31.63-5.29-2.13-.19-3.6,1.72-6.88,3.09-10.17.14-.32.27-.76.6-.84.3-.02.78.73,1.48.62,1.15-.23,1.89-1.4,2.82-2.04,1.2-1.01,2.87-.39,4.2-.92.73-.28,1.38-.8,2.1-1.12,1.04-.49,1.35-.09.89,1.2-.22.64-.37,1.32-.72,1.9-.45.78-1.46,1.17-1.45,1.75.01.35.3.52.65.6.48.1,1.01-.05,1.48-.18,1.24-.42,2.54-.42,3.82-.5,1.19-.12.81-1.54,1.04-2.37.66-2.84,4.81-2.98,3.27-1.02-.46.8-1.73,1.27-1.95,2.15-.04.37.45.65,1.03.72,1.14.13,1.67-.51,2.56-1.78.56-.81,1.17-1.72,1.6-2.58.44-.88.36-1.08-.31-1.2-.94-.14-1.45-1.25-2.47-1.13-1.14.13-2.79-.02-3.78.64-.42.29-.6,1.13-1.05,1.3-.28.02-.35-.77-.75-1.16-.1-.1-.23-.19-.37-.26-.29-.14-.63-.23-.91-.4-.75-.39-.83-1.47-1.43-2.15-.59-.69-1.45-.84-1.73-1.72-.23-.96-.57-2.31.33-3,.96-.73,2.68-1.27,3.44-2.02.17-.31-.75-.53-1.07-1.05-.16-.23-.17-.52,0-.74,1.03-1.12,2.98-.21,3.75,1.01.28.34.4,1.06.94,1,1.05-.29,2.02-1.45,3.1-1.78.62-.13.6.99,1.29,1.09,1.68-.08,3.86-1.8,5.21-2.86.77-.76,1.87,0,2.11.88.18.89-.83,1.72-1.63,2.06-.39.18-1.53.26-.98.85.58.61,1.59.76,2.07,1.46.19.23.6.74.85.87,1.06.76,1.74.03,1.45-1.1-.43-1.9.15-3.3,1.57-4.42.33-.33.41-.62.02-.92-.45-.34-1.13-.53-1.58-.89-.63-.47-.66-1.43-.52-2.11.07-.29.23-.53.51-.65,1.19-.42,3.43-.63,4.62-1.06.44-.17.54-.6.66-1.03.24-.9.83-1.44,1.77-.76,1.1.84,2.68,1.12,3.6,2.32.74.8,1.07,2.51,2.48,2.1,2.38-.79,3.34-.89,5.22.79.74.51,1.64.68,1.96,1.22.47.64.15,2.06,1.09,2.29.55.04,1.94-.74,1.68-1.43-.15-.3-.53-.58-.31-.99.12-.23.43-.5.67-.67,3.19-2.38,9.65-3.06,10.28.83.17.69-.23,1.37-.65,1.79-.77.74.29,1.68.83,2.25.63.59,1.47.72,1.66,1.4.14.41.03.93.02,1.35,0,.19.03.31.13.35.29.06.62-.24.9-.39.86-.58,2.05-1.21,2.13-1.7.11-.58-.66-1.14.2-1.44.64-.19,1.36-.11,2.01,0,.69.1,1.21.2,1.14-.09-.03-.17-.21-.36-.17-.53.04-.18.54-.18.77-.16,2.29.14,4.61.63,6.52,1.87,1.94,1.1,5.03,2.95,6.34,3.85,1.25.81.76,1.46.4,2.66-.07.67.56,1.1.97,1.56.53.5,1.4,1.37,1.42,2.05-.13.21-.5,0-.72-.07-1.12-.61-2.55-.92-3.39-1.65-.51-.45-1.24-1.26-1.96-.76-.58.43-.58,1.33-.99,1.83-.29.42-.91.65-1.13,1.12-.22.69.75.91,1.31.97,3.57.3,7.39-.63,8.8,2.68.2.4.36,1.01.15,1.36-.29.53-1.41.29-1.71.68-.18.22-.13.47-.1.75.33,1.33.36,2.59.08,3.91-.2.89-.29,2.03-1.09,2.16-.97.16-2.25-.18-3.19-.21-.4-.02-.51.03-.38.23,2.06,2.39,1.84,3.32,5.3,2.69,1.15-.15,2.46-.18,3.42.58.95.74,1.26,2.01,2.06,2.78.96.99,2.37,1.5,3.41,2.39.65.51,1.33,1.51.75,2.19-.47.48-1.28.54-1.74,1.04-.52.55-.1,1.42.8,1.72.91.37,2.05-.15,2.83.06.45.1.8.52,1.26.53.23-.05.45-.18.6-.38.16-.18.3-.39.41-.57.21-.34.36-.52.45-.29.11.51.34,2.58.35,3.61,0,1.3-2.1,1.1-2.8,2.03-.66.67-.86,1.77.05,2.22.73.44,1.23,1.16,2.07,1.47,1.09.49,2.92.38,3.28,1.74.16.73-.35,1.71.18,2.34.65.55,2.63-.03,3.52.67.5.28.96,1.35.02,1.3-.47.01-.97-.32-1.44-.22-.5.13.03,1.39-.21,1.91-.05.12-.13.2-.25.26-.33.13-.7.09-1.06.06-1.37-.15-2.51-.2-3.14-1.25-.53-.84-.96-.57-1.4.12-1.16,2.36-4.06,4.29-6.62,4.59-1.59.08-3.36-.38-4.95-.22-2.41.06-4.59.91-7,1.33-1.25.19-2.57.48-3.7-.17-.92-.52-1.23-1.74-2.17-2.4-1.18-.91-2.57-.25-3.76.28-.87.38-1.76.43-2.28-.42-.2-.24-.48-.59-.81-.59-.1-.01-.28.07-.29.08-.46.28-.62.82-.96,1.26-.39.57-1.04.9-1.76.81-4.23-.96-6.47-6.4-11.36-5.05-2.91.77-5.21,2.91-7.9,4.79-.85.68-1.38,1.05-1.64,1.71-.63,1.93.03,4.07,1.09,5.77.45.68,1.1,1.18,1.5,1.89.39.63.45,1.53.77,2.09.33.61.96.76,1.65.86.99.13,2.02.31,2.87.87,1.26.8,2.9,2.43,3.81,3.2.45.4.97.58,1.59.48.57-.07,1.21-.17,1.79-.12,1.43.06,2.63,1.34,3.88,1.71,2.08.6,4.6-.44,6.76.45.21.08.36.15.43.19.09.06.07.08,0,.08-3.03-.1-58.28.22-59.88-.12l.04-.02
  
  M25.5,45.2c-1.2.8-2.8,1.1-4.1,2.3-.9.8-1.6,1.8-2.1,3-.8,1.9-.8,4.1-.1,6.1.6,1.8,1.8,3.4,3.2,4.6,1.6,1.4,3.6,2.4,5.7,3.1
  M35.8,42.1c.8-1.5,1.2-3.2,1.1-4.9-.1-1.2-.5-2.4-1.2-3.4-.8-1.1-1.9-2-3.1-2.6-1.5-.8-3.2-1.2-4.9-1.1
  M42.3,38.5c1.8-.3,3.7.2,5.3,1.2,1.4.9,2.6,2.1,3.5,3.5.7,1.1,1.2,2.4,1.4,3.7.3,1.6.2,3.3-.3,4.9
  M28.7,55.8c-.9,1.5-2.3,2.7-3.9,3.5-1.8.9-3.8,1.3-5.8,1.1-1.6-.2-3.1-.8-4.4-1.8
  M52.6,35.2c1.1,1.8,1.8,3.8,2.1,5.9.2,1.4.1,2.9-.3,4.3-.5,1.6-1.3,3.1-2.4,4.3
  M45.1,25.8c-1.3-2.2-3.2-4-5.5-5.2-2.1-1.1-4.5-1.6-6.9-1.4-2.2.2-4.3,1-6.1,2.3
  M38.9,18.4c.9-1.8,2.3-3.4,4-4.6,1.9-1.3,4.1-2.1,6.4-2.3,2.1-.2,4.2.2,6.1,1.1
  M33.2,12.7c-1.5-1.1-3.3-1.8-5.2-2.1-2.1-.3-4.3-.1-6.3.7-1.8.7-3.4,1.8-4.7,3.2
  
  <!-- Enhanced tree-like second path with detailed branching -->
  <path class="st1" d="M131.12,86.97c-3.74,0-61.64.23-67.37-.01-.28.01-.08-.12.26-.61,1.79-2.26,3.81-3.66,7-2.49,2.25.45,5.4-1,7.8-1.5,3.63-.9,6.79-2.22,9.99-4.41.63-.45,1.17-.94,1.64-1.55,1.75-2.23,2.38-6.4,5.34-7.69,1.16-.55,2.43-.87,3.51-1.63,3.38-2.25,4.68-6.74,2.63-10.07-.63-1.03-1.78-2.14-2.1-2.02-.45.18-.35.95-.52,1.4-.23.96-1.01,1.58-1.19,2.42-.3,1.12-.06,2.87-1.33,3.39-1.73.41-3.57-1.16-5.01.89-.78.98-.78,2.17-1.67,2.82-1.24.98-3.08.57-4.4,1.25-1.1.82-1.91,2.27-3.38,2.65-1.17.38-2.37.2-3.66.06-1.28-.21-2.7-.15-3.22-.78-.55-.71-.49-1.69-1.21-2.32-.36-.35-.83-.62-1.25-.91-1.32-.84-2.66-2.65-.83-2.56.77.02,1.54.87,2.34.78.64-.11.87-1.62,1.6-1.89.34-.16.81-.01,1.14.03.58-.05-1.54-2.69-1.77-2.77-.63-.47-1.76-.34-2.56-.97-1.53-1.2-.39-2.47.28-3.81.26-.56.31-1.32-.49-.78-.7.53-1.42,1.47-2.39.96-2.68-1.27-5.86-4.49-5.03,1.26.26.86,1.02,3.45-.48,1.81-.72-.92-1.29-2.13-1.47-3.31-.24-1.65.68-2.96.58-4.55-.54-5.08,6.47-11.57,11.38-10.14.76.25,1.4.87,2.02,1.34.45.33.74.39.98.14.31-.3.52-.77.78-1.14.69-1.11,2.1-1.95,2.36-3.38.36-1.29.2-4.26-1-4.55-.63.1-.95.81-1.42,1.22-1.29,1.51-3.89.87-5.35,1.81-.47.33-1.33.84-1.19-.16.16-1.17,2.31-2.98,3.48-4.03,1.62-1.06.63-3.34,1.77-4.66,1.24-1.42,3.63.69,5.36.04.67-.4.55-1.42.94-2.04.37-.68,1.05-.96,1.61-1.6.5-.56.84-1.27,1.32-1.86,1.07-1.36,2.92-2.11,4.62-2.42,1.85-.23,3.16,1.66,3.9-1.11.71-2.48,3.69-4.95,6.34-5.08.5-.04,1.03-.04,1.49-.15.38-.09.76-.23,1.09-.39.42-.18.72-.35,1.04,0,.61.86,1.11,2.01,2.01,2.67,1.44,1.13,3.2,1.53,4.99,1.59,1.26-.02,3.33-1.15,3.79-1.98.32-.67-1.03-.87-1.29-1.72-.34-1.2.79-2.45,1.79-3.01,2.37-1.37,5.56.41,7.6,1.64,1.11.92,2.46.5,3.7.11,1.53-.39,2.97.02,4.19-.28,1.99-.68,4.87-1.52,5.78,1.19.27.68.34,1.44.63,2.12.41.97,1.09,1.31,1.43,1.93.35.6.32,1.44.36,2.15.17,1.98,1.76,2.95,2.98,4.3.38.28.52.41,1.01.62.57.26,1.19.36,1.78.53,1.39.34,1.99,1.77,2.98,3.24,1.87,2.64,1.06,4.35-1.13,6.3-.44.46-.69.81-.56,1.02.11.19.5.27.99.35,1.13.06,1.95.75,2.45,1.74.93,1.64,2.96,2.43,4.21,4.26,1.16,1.58,1.39,4.09,2.65,5.28.55.54,1.41,1.05,1.62,1.8-.18,1.37-2.79-.14-1.05,2.29,1.72,2.69,4.3-.33,5.95.3.67.39.37,1.37-.11,1.81-1.19,1.22-4.09.8-5.18,2.39-.08.15-.07.28.03.35.64.29,1.72-.29,2.42-.28,1.46-.12,1.61,2.19,3.18,1.84.64-.07,1.39-.34,2.02-.17.8.19.69,1.08.24,1.58-.93,1.15-3.44,1.34-5.23,1.23-.71-.06-1.54.02-1.89.72-.17.28-.36.63-.59.81-.34.22-.69.04-1.14.28-.73.56-1.6,1.54-2.46,2.03-.11.1-.26.2-.24.38.07.33,1.66.81,2.85.77.66.13,3.6-.84,3.33.3-1.51,2.24-6.09,3.13-8.31,1.22-1.18-1.23-1.77-3.2-.47-4.17.15-.13.17-.35.09-.48-.25-.39-.8-.64-1.23-.88-1.11-.58-1.61-1.46-2.48-1.03-.91.39-1.64,1.62-2.6,1.79-.72.06-1-1.09-1.71-1.04-.33.08-.37.87-.05,1.46.54.97,1.81,1.54,2.21,2.66,1.42,4.01-4.72,6.61-6.53,3.19-.59-1.06-.33-4.67-2.02-2.17-.97,1.32-1.91,3.12-3.01,4.36-.76.79-1.71.47-2.97.17-3.6-.79-6.01-1.54-6.57-5.67,0-.82,1.18-1.3,1.96-2.09.52-.51.89-1.18,1.38-1.72.69-.76,1.55-1.25,1.33-1.52-.48-.37-1.23-.26-1.82-.24-2.09.26-3.56,1.22-5.56,2.07-2.28,1-4.5,1.81-6.98,1.79-1.39.05-3.19.13-4.41.84-1.64.93-2.58,2.73-3.66,4.39-1.19,1.81-1.5,3.36-2.74,4.7-.85.91-1.46,1.44-2.18,2.53-.87,1.31-.31,3.3.74,4.32,3.32,2.86,8.46,1.78,12.53,1.98,4.24-.12,7.64,2.44,11.43,3.97,1.17.47,2.94.93,3.13,1.73l.13.46
  
  M142.8,22.4c1.5-1.2,3.4-1.9,5.3-2.1,1.8-.2,3.7.1,5.4.8,1.6.6,3.1,1.6,4.3,2.8,1.3,1.3,2.3,2.9,2.9,4.6.5,1.4.7,2.9.5,4.4
  M148.2,18.7c-1.1-1.8-2.7-3.3-4.6-4.3-1.7-.9-3.6-1.4-5.5-1.5-1.8-.1-3.6.2-5.3.8
  M134.6,15.2c-1.9.7-3.6,1.8-5.1,3.2-1.4,1.3-2.5,2.9-3.3,4.6-.7,1.5-1.1,3.1-1.2,4.8-.1,1.6.1,3.2.6,4.7
  M155.3,35.8c1.2-1.8,1.9-3.9,2.1-6,.2-1.8.1-3.6-.4-5.3-.6-1.9-1.6-3.6-2.9-5
  M162.4,45.1c-.8,2.1-2.1,4-3.8,5.5-1.6,1.4-3.5,2.4-5.6,2.9-1.9.5-3.9.6-5.9.3
  M128.7,42.3c.6,1.9,1.6,3.6,2.9,5.1,1.4,1.6,3.1,2.8,5,3.6,1.7.7,3.6,1,5.4.9,1.8-.1,3.5-.6,5.1-1.4
  M119.4,52.8c-1.4,1.6-3.2,2.8-5.2,3.5-1.9.7-3.9.9-5.9.7-1.8-.2-3.5-.8-5-1.7
  M157.8,58.3c.9-1.4,1.4-3,1.6-4.7.2-1.6.1-3.2-.3-4.8-.5-1.7-1.3-3.3-2.4-4.6
</svg>