<?xml version="1.0" encoding="UTF-8"?>
<svg id="Layer_1" xmlns="http://www.w3.org/2000/svg" version="1.1" viewBox="0 0 274 184">
  <!-- Generator: Adobe Illustrator 29.6.1, SVG Export Plug-In . SVG Version: 2.1.1 Build 9)  -->
  <defs>
    <style>
      .st0 {
        display: none;
        fill: #fff;
      }
    </style>
  </defs>
  <path d="M86.45,184.24c4.36-1.57,9.41-.46,13.98-.7,4.18-.28,7.9-1.81,12.01-2.53,1.99-.38,4.19-.61,6.11-1.18,3.26-1.13,6.75-2.21,9.2-4.71,4.62-4.71,6.56-14,4.16-20.6-1.09-3.14-3.37-5.54-6.28-6.88-5.14-2.47-17.74-7.19-22.91-8.12-1.53-.29-2.59-.01-4.21.53-2.89,1-7.53,3.09-9.82,4.29-1.76.76-2.36,2.36-1.32,4.09.4.81,1.02,1.59,1,2.51-.35,3.59-4.55,4.35-8.02,4.88-2.72.55-3.29-3.04-5.09.52-.98,1.79-1.38,3.2-2.91,3.64-1.58.43-3.32.13-4.82-.48-1.55-.57-3.01-2.04-4.58-1.64-2.67.92-6.47,3.52-10.12,1.85-1.5-.66-3.37-2.47-2.34-4.11.85-1.15,2.27-1.93,2.71-3.41.15-.35.28-.75.41-1.07.18-.37.36-1.04.75-.62,1.01,1.88,2.62,2.85,4.87,3.06,1.28.11,3,.02,2.35-1.08-.7-.86-1.91-1.44-2.96-2.08-2.4-1.52-4.34-2.01-6.67-.83-1.19.71-1.39,1.75-2.21,1.57-1.2-.32-2.31-1.36-3.64-.89-2.02.59-3.36,3.1-5.5,3.41-2.08.11-4.5-1.35-7.11-1.94-.7-.19-1.53-.51-1.94-.98-.89-1.07.13-2.55,1.07-3.24,1.13-.92,3.29-.84,3.9-1.82.83-1.37-.69-3.23-.37-4.57.7-.65,1.99.72,2.78.14.42-.69-.43-2.48-.42-3.58-.04-.41.12-.97.62-.91,1.01.03,3.07,2.24,4.95,2.17.96-.05,1.59-.43,1.96-1.37.73-2.16-1.88-3.37-3.65-3.75-.94-.26-2.01-.31-2.7-1.02-.73-.78-.31-2.83-.06-4.26.1-.53.29-1.03.66-1.41,1.33-1.45,7.85-1.67,7.94-4.66-.2-.43-1.22.53-2.32.62-1.31.02-2.1-1.4-2.52-2.49-1.26-3.85,2.69-7.1,1.87-10.93-.13-1.18-.44-2.38-.61-3.58-.34-1.58-.19-4.16-2.24-3.1-1.36.77-1.96,2.74-3.01,3.82-.54.46-.87-.68-.49-2.13.08-.47.4-.93.61-1.35.99-1.56,2.87-1.97,3.8-3.23,1.2-1.6,1.44-4.13,3.24-5.31,1.79-1.25,4.13.3,7.05.82,2.05.4,3.92.2,5.78-.44,1.93-.52,6.17-2.31,2.2-3.14-3.68-.4-10.07,1.19-10.03-4.04-.37-6.82,3.27-13.06,5.86-19.28.26-.6.51-1.43,1.15-1.59.56-.04,1.49,1.38,2.8,1.18,2.17-.45,3.58-2.65,5.34-3.88,2.27-1.91,5.44-.75,7.96-1.74,1.39-.53,2.62-1.51,3.98-2.12,1.97-.92,2.57-.17,1.7,2.28-.41,1.21-.69,2.5-1.37,3.6-.85,1.49-2.76,2.21-2.75,3.32.03.66.57.99,1.23,1.14.91.19,1.91-.09,2.81-.34,2.34-.79,4.81-.8,7.25-.95,2.25-.23,1.53-2.92,1.98-4.5,1.26-5.39,9.12-5.66,6.2-1.93-.88,1.52-3.28,2.41-3.69,4.08-.08.69.85,1.24,1.96,1.36,2.16.25,3.16-.98,4.85-3.38,1.07-1.53,2.21-3.26,3.04-4.9.83-1.66.68-2.04-.59-2.27-1.78-.27-2.74-2.36-4.69-2.14-2.17.24-5.29-.03-7.17,1.21-.8.54-1.14,2.14-2,2.46-.53.04-.66-1.47-1.41-2.19-.2-.2-.44-.36-.7-.49-.55-.27-1.19-.43-1.72-.75-1.42-.75-1.58-2.78-2.72-4.07-1.12-1.31-2.76-1.59-3.28-3.27-.45-1.82-1.08-4.39.63-5.69,1.83-1.38,5.09-2.4,6.52-3.84.31-.58-1.41-1.01-2.03-2-.3-.43-.32-.98.02-1.4,1.95-2.13,5.64-.39,7.1,1.92.53.65.77,2.01,1.79,1.9,2-.56,3.84-2.74,5.87-3.37,1.17-.24,1.13,1.87,2.45,2.07,3.19-.15,7.33-3.41,9.89-5.42,1.46-1.44,3.55,0,4,1.66.35,1.68-1.57,3.25-3.09,3.9-.74.34-2.9.49-1.87,1.61,1.09,1.16,3.01,1.44,3.92,2.77.36.44,1.14,1.41,1.61,1.65,2.02,1.44,3.29.06,2.75-2.08-.81-3.6.29-6.25,2.97-8.38.63-.63.77-1.17.03-1.74-.85-.65-2.14-1.01-3-1.7-1.19-.89-1.25-2.72-.99-4.01.13-.55.44-1.01.97-1.22,2.26-.79,6.5-1.2,8.77-2.01.84-.33,1.02-1.13,1.26-1.95.45-1.71,1.58-2.74,3.35-1.45,2.08,1.59,5.08,2.13,6.83,4.39,1.4,1.51,2.03,4.76,4.7,3.98,4.51-1.49,6.34-1.68,9.9,1.5,1.41.97,3.12,1.28,3.72,2.32.88,1.22.28,3.91,2.06,4.34,1.05.07,3.69-1.41,3.18-2.72-.28-.56-1-1.1-.59-1.87.22-.44.81-.94,1.27-1.27,6.04-4.52,18.3-5.8,19.5,1.58.33,1.3-.44,2.6-1.24,3.39-1.46,1.4.56,3.19,1.58,4.26,1.2,1.11,2.8,1.37,3.15,2.66.27.79.07,1.77.03,2.55,0,.35.06.59.24.66.56.11,1.18-.46,1.7-.73,1.64-1.09,3.88-2.3,4.04-3.22.21-1.1-1.24-2.17.37-2.73,1.2-.37,2.57-.2,3.82-.02,1.3.18,2.29.38,2.17-.17-.05-.33-.4-.67-.33-1,.08-.34,1.03-.34,1.46-.31,4.34.26,8.73,1.2,12.36,3.55,3.67,2.09,9.54,5.6,12.03,7.29,2.38,1.54,1.45,2.76.76,5.04-.14,1.27,1.06,2.08,1.84,2.95,1.01.95,2.66,2.6,2.69,3.88-.24.4-.94.01-1.37-.14-2.13-1.16-4.83-1.75-6.44-3.12-.98-.85-2.35-2.4-3.71-1.43-1.1.81-1.09,2.53-1.88,3.48-.55.8-1.72,1.23-2.14,2.12-.41,1.31,1.43,1.73,2.49,1.84,6.77.57,14.01-1.19,16.68,5.08.37.76.69,1.92.28,2.58-.55,1-2.68.54-3.24,1.29-.34.41-.24.9-.18,1.42.62,2.52.68,4.92.15,7.41-.37,1.7-.55,3.85-2.06,4.1-1.83.3-4.26-.34-6.05-.41-.75-.04-.97.06-.73.43,3.91,4.53,3.5,6.3,10.04,5.1,2.18-.29,4.67-.34,6.48,1.1,1.79,1.39,2.4,3.81,3.9,5.28,1.83,1.89,4.49,2.84,6.47,4.53,1.23.97,2.52,2.86,1.42,4.16-.88.9-2.43,1.03-3.3,1.97-.98,1.04-.2,2.69,1.51,3.25,1.72.71,3.89-.28,5.36.12.85.19,1.51.99,2.38,1,.44-.1.85-.34,1.14-.72.3-.34.56-.75.78-1.08.4-.65.68-.98.85-.54.21.97.64,4.9.67,6.84-.01,2.46-3.98,2.09-5.31,3.86-1.26,1.26-1.64,3.35.09,4.22,1.38.84,2.32,2.2,3.92,2.78,2.06.93,5.54.72,6.21,3.29.31,1.38-.66,3.25.34,4.45,1.23,1.04,4.98-.05,6.68,1.27.94.54,1.83,2.55.05,2.46-.89.02-1.85-.61-2.72-.41-.95.24.05,2.64-.4,3.62-.09.22-.25.38-.46.49-.62.24-1.33.17-2.02.12-2.61-.28-4.76-.37-5.95-2.36-1-1.59-1.82-1.08-2.65.22-2.2,4.47-7.7,8.13-12.56,8.71-3.02.14-6.37-.72-9.38-.41-4.56.11-8.71,1.73-13.28,2.52-2.37.36-4.88.9-7.01-.32-1.75-.98-2.33-3.3-4.11-4.55-2.23-1.72-4.88-.47-7.13.53-1.65.72-3.33.81-4.32-.8-.38-.46-.92-1.12-1.53-1.12-.18-.03-.53.12-.55.15-.88.54-1.18,1.55-1.82,2.38-.75,1.07-1.98,1.71-3.33,1.54-8.01-1.82-12.27-12.13-21.55-9.58-5.51,1.46-9.89,5.52-14.98,9.09-1.62,1.28-2.62,2-3.1,3.24-1.2,3.66.05,7.73,2.06,10.94.86,1.29,2.08,2.24,2.84,3.58.74,1.19.85,2.89,1.45,3.97.63,1.16,1.82,1.43,3.13,1.62,1.88.24,3.83.59,5.44,1.64,2.39,1.51,5.5,4.6,7.22,6.07.85.76,1.84,1.1,3.01.9,1.07-.13,2.29-.32,3.4-.23,2.71.12,4.98,2.54,7.37,3.24,3.95,1.13,8.72-.83,12.83.85.41.15.68.28.81.37.16.11.13.15,0,.16-5.75-.19-110.53.41-113.56-.22l.08-.03ZM143.92,32.08c-3.04-.07-8.16-4.01-9.71-.48-.59,1.17.2,1.44,1.05,2.59.83,1,2.05,2.48,2.81,3.39.28.38.52.47.91.21.91-.55,6.2-4,5.05-5.66l-.1-.05ZM164.91,117.97c.2-.11-.2-.84-.5-1.78-.31-.82-.59-1.71-.77-2.06-.11-.2-.24-.22-.44-.15-1.51,1.18-11.13,2.14-7.2,5.23.29.26.72.56,1.3.59.42-.07.88-.53,1.34-.81,1.89-1.22,4.01-1.03,6.18-.99l.08-.03ZM179.17,127.99c2.24,1.22,5.43-1.6,6.67-3.19.06-.12.18-.28.01-.39-.6-.28-3.49-1.33-5.07-1.94-.57-.18-1.05-.55-1.59-.25-1.71,1.01-1.21,4.44-.12,5.69l.1.07ZM167.67,125.67c-.83-.89-2.9-1.09-3.94-.34-.6.39-.95.93-1.58,1.25-2.04.75-4.75,1.58-6.83,1.66-1.45-.23-3.29-1.69-4.34.12-1.45,2.37.46,5.04.38,7.51-.13,1.95-2.47,4.29-.25,5.63,1,.58,2.29.23,3.17-.47,2.49-1.86,3.69-4.14,3.81-7.33.07-.77.15-2.03,1-2.21,1.87.03,1.92,2.95,2.14,4.37.74,2.9,5.62-.45,6.3-1.7.63-.98.57-2.02.61-3.22-.08-1.51.39-4-.38-5.16l-.09-.11ZM57.77,127.19c-1.27-.37-2.88,0-4.22-.14-3.26-.05-5.98.06-8.01,3.4-.28.47-.66,1.24-.31,1.63,1.38,1.4,8.81-.35,11.42-1.55,1.2-.39,1.98-2.19,1.24-3.25l-.11-.08ZM98.06,128.01c-.25.13.1.69.57,1.51.89,1.45,2.47,3.4,3.96,4.36,1.34,1.07,3.45.75,3.48-1.13-.08-3.21-5.1-5.25-7.94-4.76l-.07.03ZM120.65,134.31c-.54.16-1.21.03-1.79-.12-1.82-.52-3.9-.72-5.22-1.51-1.85-1.15-3.43-3.73-5.77-3.78-.69-.01-.77.5-.56,1.03.99,2.14,2.55,5.27,3.52,6.94.72.93,2,1,3.12,1.45,3.22.86,6.38,3.19,6.94-1.22.12-.68.33-1.62,1.15-1.04,1.77,1.69,2.4,4.1,4.64,5.54,3.21,2.51,7.42,3.46,7.79-.88.7-4.8-1.81-7.77-7.02-8.63-2-.31-3.97-.04-5.17,1.05-.47.4-.9.91-1.48,1.12l-.13.04Z"/>
  <path class="st0" d="M167.99,126.06l-.12,7.23c-.57,2.15-4.58,4.04-6.87,3.72.1-2.37.6-6.25-3-6,.71,5.44-.91,8.39-5.63,10.9l-2.38-1.43c-.45-1.93,1.77-3.11,1.77-4.77s-1.67-3.79-1.25-5.82c1-4.91,3.59-1.13,4.95-1.22.36-.03,5.77-1.41,6.84-1.69.8-.21.86-3.71,5.68-.92Z"/>
  <path class="st0" d="M121,135c-.34,1.64.66,3.74-1.53,5.01l-8.25-2.67-4.22-8.33c3.34-1.04,5.34,3.24,6.77,3.93,2.05.98,5.06.77,7.23,2.07,1.16-5.53,12.17-2.54,12.97,1.53,1.66,8.42-2.76,8.83-8.34,4.34-2.3-1.85-2.02-4.31-4.63-5.87Z"/>
  <path class="st0" d="M58,127.01c-.08,1.19.51,2.12-.63,3.06-1.49,1.23-12.41,4.01-12.35,1.43,2.9-6.07,7.24-3.9,12.98-4.5Z"/>
  <path class="st0" d="M144,32.01c1.34,1.46-4.28,5.43-5.51,5.97l-4.52-5.46c1.22-5.25,6.58-.12,10.03-.51Z"/>
  <path class="st0" d="M179.1,127.9c-.83-.58-1.88-5.43.54-5.81l6.34,2.41c-1.22,1.75-4.79,4.85-6.88,3.4Z"/>
  <path class="st0" d="M165,118c-2.95-.22-5.43-.3-7.66,1.87-6.82-3.59,3.64-4.15,6.14-5.88l1.52,4Z"/>
  <path class="st0" d="M98,128.01c2.9-.61,8.8,1.76,8,5.47-2.49,4.07-8.49-5.1-8-5.47Z"/>
</svg>